<svg width="20" height="20" viewBox="0 0 20 20" fill="none" xmlns="http://www.w3.org/2000/svg">
<path d="M4.93529 14.3244C5.64347 13.7989 6.41494 13.3839 7.2497 13.0795C8.08446 12.7751 8.97289 12.6229 9.915 12.6229C10.8571 12.6229 11.7455 12.7751 12.5803 13.0795C13.4151 13.3839 14.1865 13.7989 14.8947 14.3244C15.4128 13.7551 15.8232 13.096 16.126 12.3473C16.4289 11.5985 16.5803 10.7877 16.5803 9.91506C16.5803 8.06822 15.9311 6.49563 14.6328 5.19729C13.3344 3.89895 11.7618 3.24978 9.915 3.24978C8.06816 3.24978 6.49557 3.89895 5.19723 5.19729C3.89889 6.49563 3.24972 8.06822 3.24972 9.91506C3.24972 10.7877 3.40113 11.5985 3.70396 12.3473C4.00678 13.096 4.41723 13.7551 4.93529 14.3244ZM9.91525 10.5399C9.15456 10.5399 8.51305 10.2788 7.99073 9.75668C7.46841 9.23451 7.20725 8.59309 7.20725 7.83241C7.20725 7.07172 7.46833 6.43022 7.99048 5.9079C8.51265 5.38557 9.15407 5.12441 9.91475 5.12441C10.6754 5.12441 11.3169 5.38549 11.8393 5.90764C12.3616 6.42981 12.6227 7.07124 12.6227 7.83191C12.6227 8.5926 12.3617 9.23411 11.8395 9.75643C11.3173 10.2787 10.6759 10.5399 9.91525 10.5399ZM9.915 17.8301C8.81587 17.8301 7.78484 17.6234 6.82191 17.21C5.85898 16.7966 5.02127 16.2337 4.30881 15.5212C3.59636 14.8088 3.03345 13.9711 2.62008 13.0081C2.20669 12.0452 2 11.0142 2 9.91506C2 8.81593 2.20669 7.7849 2.62008 6.82197C3.03345 5.85904 3.59636 5.02134 4.30881 4.30887C5.02127 3.59642 5.85898 3.03351 6.82191 2.62014C7.78484 2.20675 8.81587 2.00006 9.915 2.00006C11.0141 2.00006 12.0452 2.20675 13.0081 2.62014C13.971 3.03351 14.8087 3.59642 15.5212 4.30887C16.2336 5.02134 16.7965 5.85904 17.2099 6.82197C17.6233 7.7849 17.83 8.81593 17.83 9.91506C17.83 11.0142 17.6233 12.0452 17.2099 13.0081C16.7965 13.9711 16.2336 14.8088 15.5212 15.5212C14.8087 16.2337 13.971 16.7966 13.0081 17.21C12.0452 17.6234 11.0141 17.8301 9.915 17.8301ZM9.915 16.5803C10.667 16.5803 11.392 16.4594 12.09 16.2174C12.7881 15.9755 13.4079 15.6372 13.9494 15.2024C13.4079 14.7837 12.7961 14.4574 12.1141 14.2235C11.4321 13.9895 10.699 13.8726 9.915 13.8726C9.13097 13.8726 8.39661 13.9882 7.71192 14.2194C7.02723 14.4507 6.41678 14.7784 5.88057 15.2024C6.42212 15.6372 7.04192 15.9755 7.73997 16.2174C8.43801 16.4594 9.16302 16.5803 9.915 16.5803ZM9.915 9.29021C10.3294 9.29021 10.6761 9.15082 10.9549 8.87203C11.2337 8.59323 11.373 8.2466 11.373 7.83216C11.373 7.41772 11.2337 7.0711 10.9549 6.79229C10.6761 6.5135 10.3294 6.37411 9.915 6.37411C9.50056 6.37411 9.15393 6.5135 8.87513 6.79229C8.59634 7.0711 8.45695 7.41772 8.45695 7.83216C8.45695 8.2466 8.59634 8.59323 8.87513 8.87203C9.15393 9.15082 9.50056 9.29021 9.915 9.29021Z" fill="#828282"/>
</svg>  
 