<svg width="20" height="20" viewBox="0 0 20 20" fill="none" xmlns="http://www.w3.org/2000/svg">
<path d="M6 17.0103C6.00023 16.7443 6.1061 16.4893 6.29431 16.3013L11.4261 11.1696C11.5814 11.0143 11.7046 10.8299 11.7887 10.627C11.8727 10.4241 11.916 10.2066 11.916 9.98696C11.916 9.76732 11.8727 9.54983 11.7887 9.34692C11.7046 9.14401 11.5814 8.95964 11.4261 8.80436L6.301 3.67596C6.11824 3.48672 6.0171 3.23328 6.01939 2.97021C6.02168 2.70713 6.1272 2.45548 6.31322 2.26946C6.49925 2.08343 6.7509 1.97791 7.01397 1.97562C7.27705 1.97334 7.53049 2.07447 7.71972 2.25724L12.8448 7.38162C13.5339 8.07209 13.9209 9.00776 13.9209 9.98328C13.9209 10.9588 13.5339 11.8945 12.8448 12.5849L7.71303 17.7167C7.57291 17.8569 7.3944 17.9525 7.20002 17.9913C7.00565 18.0302 6.80411 18.0106 6.62086 17.935C6.4376 17.8595 6.28083 17.7313 6.17034 17.5667C6.05984 17.4022 6.00057 17.2086 6 17.0103Z" fill="#828282"/>
</svg>
