<svg width="13" height="13" viewBox="0 0 13 13" fill="none" xmlns="http://www.w3.org/2000/svg">
<path fill-rule="evenodd" clip-rule="evenodd" d="M6.14112 0.724439C6.23633 0.629343 6.3654 0.575928 6.49997 0.575928C6.63454 0.575928 6.76361 0.629343 6.85883 0.724439L10.9213 4.78694C10.9712 4.83343 11.0112 4.88949 11.039 4.95178C11.0667 5.01407 11.0817 5.08132 11.0829 5.1495C11.0841 5.21769 11.0715 5.28541 11.046 5.34865C11.0205 5.41188 10.9824 5.46932 10.9342 5.51754C10.886 5.56576 10.8286 5.60377 10.7653 5.62931C10.7021 5.65485 10.6344 5.6674 10.5662 5.66619C10.498 5.66499 10.4308 5.65007 10.3685 5.62231C10.3062 5.59456 10.2501 5.55454 10.2036 5.50465L7.00778 2.30881V11.9166C7.00778 12.0513 6.95428 12.1805 6.85905 12.2757C6.76382 12.3709 6.63465 12.4244 6.49997 12.4244C6.36529 12.4244 6.23613 12.3709 6.14089 12.2757C6.04566 12.1805 5.99216 12.0513 5.99216 11.9166V2.30881L2.79633 5.50465C2.74984 5.55454 2.69377 5.59456 2.63148 5.62231C2.56919 5.65007 2.50195 5.66499 2.43376 5.66619C2.36558 5.6674 2.29785 5.65485 2.23462 5.62931C2.17139 5.60377 2.11395 5.56576 2.06573 5.51754C2.01751 5.46932 1.97949 5.41188 1.95395 5.34865C1.92841 5.28541 1.91587 5.21769 1.91707 5.1495C1.91827 5.08132 1.9332 5.01407 1.96095 4.95178C1.98871 4.88949 2.02873 4.83343 2.07862 4.78694L6.14112 0.724439Z" fill="#27AE60"/>
</svg>
