<svg width="25" height="26" viewBox="0 0 25 26" fill="none" xmlns="http://www.w3.org/2000/svg">
<path d="M21.8505 15.7029C21.9189 15.7694 21.9732 15.8489 22.0102 15.9368C22.0473 16.0246 22.0664 16.119 22.0664 16.2144C22.0664 16.3097 22.0473 16.4041 22.0102 16.4919C21.9732 16.5798 21.9189 16.6593 21.8505 16.7258C21.7105 16.8622 21.5228 16.9385 21.3273 16.9385C21.1318 16.9385 20.9441 16.8622 20.8041 16.7258L12.9627 9.08053L5.11969 16.7258C5.04923 16.7946 4.96591 16.8489 4.87448 16.8855C4.78304 16.9221 4.68529 16.9404 4.5868 16.9392C4.48832 16.9381 4.39102 16.9175 4.30048 16.8787C4.20994 16.84 4.12792 16.7837 4.05911 16.7133C3.99352 16.6461 3.9418 16.5667 3.90692 16.4796C3.87205 16.3925 3.8547 16.2993 3.85586 16.2055C3.85703 16.1116 3.87669 16.0189 3.91372 15.9327C3.95075 15.8465 4.00442 15.7684 4.07166 15.7029L12.4151 7.57281C12.5616 7.43001 12.7581 7.3501 12.9627 7.3501C13.1672 7.3501 13.3637 7.43001 13.5102 7.57281L21.8505 15.7029Z" fill="#7D98F6"/>
</svg>
