<svg width="12" height="12" viewBox="0 0 12 12" fill="none" xmlns="http://www.w3.org/2000/svg">
 
<path d="M0.749747 3.03906C0.948592 3.03924 1.13923 3.11837 1.27975 3.25906L5.11575 7.09506C5.23182 7.21117 5.36964 7.30327 5.52132 7.36611C5.673 7.42895 5.83557 7.4613 5.99975 7.4613C6.16393 7.4613 6.3265 7.42895 6.47818 7.36611C6.62986 7.30327 6.76767 7.21117 6.88375 7.09506L10.7172 3.26406C10.8587 3.12744 11.0482 3.05185 11.2448 3.05356C11.4414 3.05527 11.6296 3.13414 11.7686 3.2732C11.9077 3.41225 11.9865 3.60036 11.9883 3.79701C11.99 3.99366 11.9144 4.18311 11.7777 4.32456L7.94725 8.15556C7.43112 8.67068 6.7317 8.95998 6.0025 8.95998C5.27329 8.95998 4.57388 8.67068 4.05775 8.15556L0.221747 4.31956C0.116939 4.21482 0.0455036 4.08138 0.0164566 3.93609C-0.0125904 3.79079 0.00205133 3.64014 0.0585356 3.50316C0.11502 3.36617 0.210814 3.24899 0.333832 3.16639C0.456849 3.08379 0.601575 3.03949 0.749747 3.03906Z" fill="#BDBDBD"/>
 
</svg>
