<svg width="16" height="16" viewBox="0 0 16 16" fill="none" xmlns="http://www.w3.org/2000/svg">
<path d="M8.312 1.49584C8.36067 1.44585 8.41886 1.40612 8.48313 1.379C8.54741 1.35187 8.61647 1.33789 8.68624 1.33789C8.756 1.33789 8.82507 1.35187 8.88934 1.379C8.95362 1.40612 9.01181 1.44585 9.06048 1.49584C9.16027 1.5983 9.21611 1.73567 9.21611 1.87869C9.21611 2.02172 9.16027 2.15909 9.06048 2.26155L3.46636 7.99916L9.06048 13.7379C9.11084 13.7895 9.15055 13.8504 9.17734 13.9173C9.20413 13.9843 9.21748 14.0558 9.21663 14.1278C9.21578 14.1999 9.20074 14.2711 9.17237 14.3373C9.144 14.4036 9.10286 14.4636 9.0513 14.514C9.00218 14.562 8.94408 14.5998 8.88033 14.6253C8.81657 14.6508 8.74841 14.6635 8.67974 14.6627C8.61107 14.6618 8.54325 14.6474 8.48015 14.6203C8.41704 14.5932 8.3599 14.554 8.312 14.5048L2.36315 8.3998C2.25867 8.29261 2.2002 8.14885 2.2002 7.99916C2.2002 7.84947 2.25867 7.70571 2.36315 7.59851L8.312 1.49584ZM12.9039 1.49584C12.9526 1.44585 13.0108 1.40612 13.0751 1.379C13.1393 1.35187 13.2084 1.33789 13.2782 1.33789C13.3479 1.33789 13.417 1.35187 13.4813 1.379C13.5455 1.40612 13.6037 1.44585 13.6524 1.49584C13.7522 1.5983 13.808 1.73567 13.808 1.87869C13.808 2.02172 13.7522 2.15909 13.6524 2.26155L8.05829 7.99916L13.6524 13.7379C13.7028 13.7895 13.7425 13.8504 13.7693 13.9173C13.7961 13.9843 13.8094 14.0558 13.8086 14.1278C13.8077 14.1999 13.7927 14.2711 13.7643 14.3373C13.7359 14.4036 13.6948 14.4636 13.6432 14.514C13.5941 14.562 13.536 14.5998 13.4723 14.6253C13.4085 14.6508 13.3403 14.6635 13.2717 14.6627C13.203 14.6618 13.1352 14.6474 13.0721 14.6203C13.009 14.5932 12.9518 14.554 12.9039 14.5048L6.95508 8.3998C6.8506 8.29261 6.79212 8.14885 6.79212 7.99916C6.79212 7.84947 6.8506 7.70571 6.95508 7.59851L12.9039 1.49584Z" fill="#7D98F6"/>
</svg>
