<svg width="20" height="20" viewBox="0 0 20 20" fill="none" xmlns="http://www.w3.org/2000/svg">
<path d="M9.8 2C5.555 2 2 5.048 2 8.9C2 10.718 2.8154 12.3488 4.1 13.5686C3.94349 13.9766 3.72181 14.3566 3.4436 14.6936C3.07452 15.1414 2.66675 15.5558 2.225 15.932C2.12811 16.0097 2.05773 16.1156 2.02359 16.2351C1.98944 16.3545 1.9932 16.4816 2.03435 16.5988C2.0755 16.716 2.15202 16.8175 2.25334 16.8894C2.35466 16.9613 2.47578 16.9999 2.6 17C3.929 17 4.8848 16.985 5.75 16.7564C6.524 16.5512 7.1894 16.1216 7.8686 15.5186C8.4866 15.6668 9.1244 15.8 9.8 15.8C14.045 15.8 17.6 12.752 17.6 8.9C17.6 5.048 14.045 2 9.8 2ZM9.8 3.2C13.475 3.2 16.4 5.792 16.4 8.9C16.4 12.008 13.475 14.6 9.8 14.6C9.1466 14.6 8.468 14.4872 7.85 14.3186C7.75117 14.2938 7.64764 14.2945 7.54918 14.3207C7.45071 14.347 7.36055 14.3979 7.2872 14.4686C6.6122 15.116 6.1148 15.4178 5.45 15.5936C5.144 15.6746 4.5536 15.6554 4.1372 15.6878C4.2212 15.593 4.2998 15.5426 4.3814 15.4436C4.853 14.8676 5.2832 14.2586 5.4128 13.5686C5.43065 13.465 5.42098 13.3586 5.38476 13.2599C5.34854 13.1612 5.28703 13.0738 5.2064 13.0064C3.9494 11.9684 3.2 10.5134 3.2 8.9C3.2 5.792 6.125 3.2 9.8 3.2Z" fill="#828282"/>
<path d="M10.2662 10.0574C10.1916 10.3682 9.94302 10.629 9.62336 10.629C9.29839 10.629 9.02807 10.3625 9.0718 10.0404C9.08397 9.9508 9.09899 9.86743 9.11686 9.79032C9.16919 9.56093 9.2564 9.35305 9.37849 9.16667C9.50407 8.98029 9.66977 8.78315 9.87558 8.57527C10.036 8.41756 10.1808 8.26882 10.3099 8.12903C10.439 7.98566 10.5419 7.83513 10.6186 7.67742C10.6953 7.51613 10.7337 7.33154 10.7337 7.12366C10.7337 6.89785 10.6971 6.70609 10.6238 6.54839C10.5506 6.39068 10.4424 6.27061 10.2994 6.18817C10.1599 6.10573 9.98547 6.06452 9.77616 6.06452C9.60174 6.06452 9.43779 6.10036 9.2843 6.17204C9.13081 6.24014 9.00698 6.34767 8.91279 6.49462C8.73014 6.77265 8.49647 7.06452 8.16381 7.06452H8.14469C7.79026 7.06452 7.49101 6.76864 7.58743 6.42758C7.63964 6.24287 7.71515 6.07525 7.81395 5.92473C8.01628 5.61649 8.28837 5.3853 8.63023 5.23118C8.97209 5.07706 9.35407 5 9.77616 5C10.2436 5 10.643 5.08244 10.9744 5.24731C11.3058 5.4086 11.5587 5.64516 11.7331 5.95699C11.911 6.26523 12 6.63799 12 7.07527C12 7.39068 11.939 7.67742 11.8169 7.93548C11.6948 8.18996 11.536 8.42832 11.3407 8.65054C11.1453 8.86918 10.9343 9.08781 10.7076 9.30645C10.5122 9.48925 10.3797 9.68817 10.3099 9.90323C10.2935 9.95293 10.2789 10.0043 10.2662 10.0574ZM8.92849 12.3065C8.92849 12.1129 8.99302 11.9498 9.12209 11.8172C9.25116 11.681 9.42733 11.6129 9.65058 11.6129C9.87384 11.6129 10.05 11.681 10.1791 11.8172C10.3081 11.9498 10.3727 12.1129 10.3727 12.3065C10.3727 12.5 10.3081 12.6649 10.1791 12.8011C10.05 12.9337 9.87384 13 9.65058 13C9.42733 13 9.25116 12.9337 9.12209 12.8011C8.99302 12.6649 8.92849 12.5 8.92849 12.3065Z" fill="#828282"/>
</svg>
