<svg width="100" height="100" viewBox="0 0 100 100" fill="none" xmlns="http://www.w3.org/2000/svg">
 
<path fill-rule="evenodd" clip-rule="evenodd" d="M62.9156 79.1405C62.4053 80.624 61.8588 82.027 61.2804 83.3416C59.4564 87.487 57.4138 90.5293 55.3989 92.4661C53.4087 94.3793 51.6938 95 50.3006 95C48.9074 95 47.1925 94.3793 45.2023 92.4661C43.1874 90.5293 41.1448 87.487 39.3208 83.3416C38.7424 82.0271 38.1959 80.6241 37.6857 79.1407C41.7312 78.0298 45.9746 76.5211 50.3011 74.6272C54.6272 76.521 58.8703 78.0296 62.9156 79.1405ZM50.3006 100C43.1642 100 36.8214 92.2774 32.8018 80.3088C31.0224 80.6687 29.295 80.9431 27.6308 81.1309C26.4899 85.0978 22.8338 88 18.4998 88C13.2531 88 8.99981 83.7467 8.99981 78.5C8.99981 78.1642 9.01723 77.8325 9.05122 77.5057C8.23075 76.7747 7.54251 75.9399 6.99981 74.9999C3.4316 68.8196 6.94814 59.4653 15.3036 49.9999C6.94814 40.5346 3.4316 31.1803 6.99981 24.9999C10.568 18.8197 20.4271 17.1879 32.8019 19.6911C36.8214 7.7225 43.1642 0 50.3006 0C57.437 0 63.7798 7.72258 67.7994 19.6913C70.0981 19.2263 72.31 18.9039 74.4109 18.7269C75.5975 14.833 79.2178 12 83.4998 12C88.7465 12 92.9998 16.2533 92.9998 21.5C92.9998 22.2701 92.9082 23.0187 92.7353 23.7356C93.056 24.1336 93.3455 24.555 93.6023 24.9999C97.1706 31.1802 93.654 40.5345 85.2986 49.9999C93.654 59.4653 97.1706 68.8196 93.6024 74.9999C90.0341 81.1803 80.1746 82.812 67.7994 80.3086C63.7799 92.2774 57.437 100 50.3006 100ZM14.4048 80.3683C16.5912 81.0358 19.1193 81.3869 21.9157 81.4296C21.0904 82.391 19.8662 83 18.4998 83C16.6811 83 15.1144 81.9211 14.4048 80.3683ZM15.2529 75.3843C16.0718 74.5311 17.2238 74 18.4998 74C20.2403 74 21.7501 74.9882 22.4986 76.4341C19.9702 76.4339 17.8171 76.1525 16.0735 75.6483C15.7854 75.5649 15.5121 75.4768 15.2529 75.3843ZM27.691 76.0884C26.6237 72.0096 22.9132 69 18.4998 69C15.5947 69 12.9941 70.304 11.2516 72.3586C10.6103 71.1545 10.3388 69.3951 10.9752 66.8177C11.6451 64.1043 13.2585 60.8142 15.9365 57.162C16.7857 56.0038 17.7275 54.829 18.7571 53.6454C21.7417 56.5932 25.1696 59.5135 28.9727 62.3132C29.4957 67.007 30.3108 71.4362 31.3715 75.4952C30.1083 75.7412 28.8798 75.9389 27.691 76.0884ZM87.8115 20.2079C87.2563 18.3524 85.536 17 83.4998 17C82.1117 17 80.8704 17.6285 80.045 18.6164C83 18.7742 85.6207 19.3011 87.8115 20.2079ZM79.517 23.5965C81.443 23.6821 83.1196 23.944 84.5287 24.3516C85.2029 24.5466 85.7958 24.7679 86.3167 25.0095C85.5457 25.6292 84.566 26 83.4998 26C81.7716 26 80.2709 25.0258 79.517 23.5965ZM74.2703 23.76C75.2844 27.9156 79.0319 31 83.4998 31C85.8947 31 88.0826 30.1138 89.7535 28.6515C90.0709 29.7752 90.1044 31.2485 89.627 33.1821C88.957 35.8955 87.3437 39.1856 84.6657 42.8379C83.8165 43.996 82.8747 45.1709 81.8451 46.3544C78.8602 43.4063 75.4319 40.4858 71.6284 37.6859C71.1054 32.9925 70.2903 28.5635 69.2297 24.5049C70.7697 24.205 72.2581 23.9767 73.6859 23.8203C73.8823 23.7988 74.0771 23.7787 74.2703 23.76ZM44.2061 71.7277C41.4713 72.7779 38.8044 73.6529 36.2409 74.3522C35.5648 71.7825 34.9891 69.0354 34.5312 66.1418C36.0746 67.1365 37.6657 68.1083 39.3011 69.0525C40.9362 69.9965 42.5732 70.8885 44.2061 71.7277ZM64.3604 74.352C61.7971 73.6527 59.1305 72.7777 56.396 71.7277C58.0289 70.8885 59.6659 69.9965 61.3011 69.0525C62.936 68.1085 64.5268 67.137 66.0699 66.1425C65.612 69.0357 65.0364 71.7825 64.3604 74.352ZM58.8011 64.7224C61.6525 63.0761 64.3511 61.3492 66.8789 59.5718C67.1544 56.4937 67.3006 53.2928 67.3006 50C67.3006 46.7071 67.1544 43.5062 66.8789 40.428C64.3511 38.6506 61.6525 36.9237 58.8011 35.2775C55.9495 33.6311 53.1045 32.1574 50.3011 30.8569C47.4977 32.1574 44.6527 33.6311 41.8011 35.2775C38.9493 36.924 36.2503 38.6511 33.7222 40.4288C33.4468 43.5067 33.3006 46.7074 33.3006 50C33.3006 53.2926 33.4468 56.4932 33.7222 59.5711C36.2503 61.3488 38.9493 63.0759 41.8011 64.7224C44.6527 66.3687 47.4977 67.8425 50.3011 69.143C53.1045 67.8425 55.9495 66.3687 58.8011 64.7224ZM69.2297 75.495C70.2903 71.4363 71.1054 67.0074 71.6284 62.3139C75.4319 59.5141 78.8602 56.5935 81.8451 53.6454C82.8747 54.829 83.8165 56.0038 84.6657 57.162C87.3437 60.8142 88.9571 64.1043 89.627 66.8177C90.2887 69.4978 89.9688 71.2934 89.2722 72.4999C88.5756 73.7065 87.1806 74.8813 84.5287 75.6483C81.8438 76.4248 78.1879 76.6726 73.6859 76.1795C72.2581 76.0231 70.7697 75.7949 69.2297 75.495ZM72.1648 55.5858C74.4418 53.7425 76.5331 51.8704 78.4205 49.9999C76.5331 48.1295 74.4418 46.2574 72.1648 44.414C72.2545 46.2479 72.3006 48.1117 72.3006 50C72.3006 51.8882 72.2545 53.752 72.1648 55.5858ZM61.2804 16.6584C61.8588 17.9729 62.4053 19.3759 62.9155 20.8594C58.8703 21.9703 54.6272 23.4789 50.3011 25.3727C45.9746 23.4787 41.7312 21.97 37.6857 20.8592C38.1959 19.3758 38.7424 17.9728 39.3208 16.6584C41.1448 12.513 43.1874 9.47075 45.2023 7.53387C47.1925 5.62074 48.9074 5 50.3006 5C51.6938 5 53.4087 5.62074 55.3989 7.53387C57.4138 9.47075 59.4564 12.513 61.2804 16.6584ZM64.3603 25.6479C61.7971 26.3472 59.1305 27.2221 56.396 28.2722C58.0289 29.1114 59.6659 30.0033 61.3011 30.9474C62.936 31.8913 64.5268 32.8629 66.0698 33.8573C65.6119 30.9641 65.0364 28.2173 64.3603 25.6479ZM36.2409 25.6476C38.8044 26.347 41.4713 27.222 44.2061 28.2722C42.5732 29.1114 40.9362 30.0033 39.3011 30.9474C37.6657 31.8915 36.0746 32.8634 34.5312 33.858C34.9892 30.9645 35.5648 28.2174 36.2409 25.6476ZM31.3715 24.5047C30.3109 28.5636 29.4957 32.9929 28.9727 37.6867C25.1696 40.4863 21.7417 43.4066 18.7571 46.3544C17.7275 45.1709 16.7857 43.9961 15.9365 42.8379C13.2585 39.1856 11.6451 35.8955 10.9752 33.1821C10.3134 30.502 10.6333 28.7065 11.3299 27.4999C12.0265 26.2934 13.4216 25.1186 16.0735 24.3516C18.7583 23.5751 22.4143 23.3273 26.9163 23.8203C28.3437 23.9767 29.8319 24.2049 31.3715 24.5047ZM28.4363 44.4148C26.1598 46.2579 24.0688 48.1298 22.1816 49.9999C24.0688 51.8701 26.1597 53.7419 28.4363 55.585C28.3466 53.7514 28.3006 51.8879 28.3006 50C28.3006 48.112 28.3466 46.2485 28.4363 44.4148ZM50.8006 53C53.2859 53 55.3006 50.9853 55.3006 48.5C55.3006 46.0147 53.2859 44 50.8006 44C48.3153 44 46.3006 46.0147 46.3006 48.5C46.3006 50.9853 48.3153 53 50.8006 53ZM50.8006 58C56.0473 58 60.3006 53.7467 60.3006 48.5C60.3006 43.2533 56.0473 39 50.8006 39C45.5539 39 41.3006 43.2533 41.3006 48.5C41.3006 53.7467 45.5539 58 50.8006 58Z" fill="#7DF6D2"/>
 
</svg>
