<svg width="52" height="52" viewBox="0 0 52 52" fill="none" xmlns="http://www.w3.org/2000/svg">
 
<path d="M43.625 8.55652H8.15C7.40159 8.55652 6.68384 8.85382 6.15463 9.38303C5.62543 9.91223 5.32813 10.63 5.32812 11.3784V40.4034C5.32812 41.1518 5.62543 41.8696 6.15463 42.3988C6.68384 42.928 7.40159 43.2253 8.15 43.2253H43.625C44.3734 43.2253 45.0912 42.928 45.6204 42.3988C46.1496 41.8696 46.4469 41.1518 46.4469 40.4034V11.3784C46.4469 10.63 46.1496 9.91223 45.6204 9.38303C45.0912 8.85382 44.3734 8.55652 43.625 8.55652ZM8.15 10.9753H43.625C43.7319 10.9753 43.8344 11.0177 43.9101 11.0933C43.9857 11.1689 44.0281 11.2715 44.0281 11.3784V33.0605L38.0881 27.1204C37.826 26.8584 37.5149 26.6505 37.1726 26.5086C36.8302 26.3668 36.4632 26.2938 36.0926 26.2938C35.722 26.2938 35.355 26.3668 35.0127 26.5086C34.6703 26.6505 34.3592 26.8584 34.0971 27.1204L29.7797 31.4379L20.6267 22.2829C20.3647 22.0209 20.0536 21.813 19.7112 21.6711C19.3688 21.5293 19.0018 21.4563 18.6312 21.4563C18.2607 21.4563 17.8937 21.5293 17.5513 21.6711C17.2089 21.813 16.8978 22.0209 16.6358 22.2829L7.74687 31.1718V11.3784C7.74687 11.2715 7.78935 11.1689 7.86495 11.0933C7.94055 11.0177 8.04308 10.9753 8.15 10.9753ZM7.74687 40.4034V34.5923L18.345 23.9942C18.3825 23.9564 18.4271 23.9264 18.4762 23.9059C18.5253 23.8855 18.578 23.8749 18.6312 23.8749C18.6845 23.8749 18.7372 23.8855 18.7863 23.9059C18.8354 23.9264 18.88 23.9564 18.9175 23.9942L35.7298 40.8065H8.15C8.04308 40.8065 7.94055 40.764 7.86495 40.6884C7.78935 40.6128 7.74687 40.5103 7.74687 40.4034ZM43.625 40.8065H39.1503L31.4909 33.1471L35.8064 28.8297C35.8438 28.7922 35.8883 28.7625 35.9372 28.7422C35.9862 28.7219 36.0386 28.7114 36.0916 28.7114C36.1446 28.7114 36.197 28.7219 36.246 28.7422C36.2949 28.7625 36.3394 28.7922 36.3768 28.8297L44.0362 36.4891V40.4034C44.0362 40.457 44.0255 40.5101 44.0047 40.5595C43.984 40.609 43.9536 40.6538 43.9153 40.6913C43.877 40.7289 43.8316 40.7584 43.7817 40.7782C43.7319 40.798 43.6786 40.8076 43.625 40.8065ZM29.5156 20.2471C29.5156 19.8485 29.6338 19.4588 29.8553 19.1273C30.0768 18.7959 30.3916 18.5375 30.7599 18.3849C31.1282 18.2324 31.5335 18.1925 31.9245 18.2702C32.3155 18.348 32.6746 18.54 32.9565 18.8219C33.2384 19.1038 33.4304 19.4629 33.5081 19.8539C33.5859 20.2449 33.546 20.6502 33.3934 21.0185C33.2409 21.3868 32.9825 21.7016 32.6511 21.9231C32.3196 22.1446 31.9299 22.2628 31.5312 22.2628C30.9967 22.2628 30.484 22.0504 30.106 21.6724C29.728 21.2944 29.5156 20.7817 29.5156 20.2471Z" fill="#828282"/>
 
</svg>
