<svg width="20" height="20" viewBox="0 0 20 20" fill="none" xmlns="http://www.w3.org/2000/svg">
<path d="M15.2747 14.5241C15.704 14.4014 16 14.009 16 13.5626V3.25211C16 2.53961 15.6737 1.88486 15.1045 1.45586C14.8274 1.24455 14.5045 1.10127 14.1619 1.03757C13.8193 0.973869 13.4665 0.991523 13.132 1.08911L10.882 1.73186C10.5547 1.82541 10.253 1.9924 9.99998 2.22011C9.74694 1.9924 9.44529 1.82541 9.11798 1.73186L6.86799 1.08911C6.53346 0.991463 6.18066 0.973778 5.83804 1.03748C5.49543 1.10119 5.17257 1.2445 4.89549 1.45586C4.61626 1.66447 4.3898 1.93563 4.23429 2.24757C4.07877 2.55951 3.99853 2.90355 3.99999 3.25211V13.5626C3.99999 14.009 4.29595 14.4014 4.72524 14.5241L9.99998 16.0313L15.2747 14.5241ZM10.75 3.89485C10.75 3.56186 10.9735 3.26561 11.2945 3.17411L13.5445 2.53136C13.6559 2.49897 13.7734 2.49316 13.8875 2.51439C14.0016 2.53562 14.1091 2.5833 14.2015 2.65361C14.2945 2.72315 14.3699 2.8135 14.4218 2.91742C14.4736 3.02135 14.5004 3.13597 14.5 3.25211V12.4316C14.5 12.878 14.204 13.2704 13.7748 13.3931L10.75 14.2576V3.89485ZM9.24998 14.2568L6.22519 13.3923C5.79593 13.2697 5.49999 12.8773 5.49999 12.4308V3.25211C5.49999 3.01511 5.60874 2.79686 5.79849 2.65361C5.89088 2.58341 5.99841 2.53579 6.11249 2.51457C6.22657 2.49334 6.34403 2.49909 6.45549 2.53136L8.70548 3.17411C9.02573 3.26561 9.24923 3.56186 9.24923 3.89485L9.24998 14.2568ZM19 3.25136V14.951C19 15.844 18.408 16.6287 17.5495 16.8741L10.5495 18.8743C10.1903 18.9769 9.80962 18.9769 9.45047 18.8743L2.45049 16.8741C1.59192 16.6287 1 15.844 1 14.951V4.00135C1 3.28886 1.32625 2.63411 1.8955 2.20511C2.16102 2.00464 2.5 2.2425 2.5 2.5752V13.82C2.5 14.7129 3.09196 15.4977 3.95058 15.743L9.45056 17.3144C9.80966 17.4169 10.1903 17.4169 10.5494 17.3144L16.0494 15.743C16.908 15.4977 17.5 14.7129 17.5 13.82V1.82523C17.5 1.49251 17.8393 1.25411 18.1045 1.45511C18.3837 1.66372 18.6101 1.93488 18.7657 2.24682C18.9212 2.55876 19.0014 2.9028 19 3.25136Z" fill="#828282"/>
</svg>
