<svg width="25" height="24" viewBox="0 0 25 24" fill="none" xmlns="http://www.w3.org/2000/svg">
<path fill-rule="evenodd" clip-rule="evenodd" d="M18.0666 3.00001H18.9666C20.1596 3.00144 21.3034 3.47601 22.147 4.31961C22.9906 5.16321 23.4651 6.30698 23.4666 7.50001V18.3C23.4651 19.493 22.9906 20.6368 22.147 21.4804C21.3034 22.324 20.1596 22.7986 18.9666 22.8H6.36658C5.17354 22.7986 4.02978 22.324 3.18617 21.4804C2.34257 20.6368 1.86801 19.493 1.86658 18.3V7.50001C1.86801 6.30698 2.34257 5.16321 3.18617 4.31961C4.02978 3.47601 5.17354 3.00144 6.36658 3.00001H7.26658V2.10001C7.26658 1.86132 7.3614 1.6324 7.53018 1.46362C7.69896 1.29483 7.92788 1.20001 8.16658 1.20001C8.40527 1.20001 8.63419 1.29483 8.80297 1.46362C8.97176 1.6324 9.06658 1.86132 9.06658 2.10001V3.00001H16.2666V2.10001C16.2666 1.86132 16.3614 1.6324 16.5302 1.46362C16.699 1.29483 16.9279 1.20001 17.1666 1.20001C17.4053 1.20001 17.6342 1.29483 17.803 1.46362C17.9718 1.6324 18.0666 1.86132 18.0666 2.10001V3.00001ZM4.45739 5.59082C4.02226 6.02595 3.75099 6.59431 3.68329 7.20001H3.66658V7.50001V8.40001V10.2V10.8V18.3C3.66658 19.0161 3.95104 19.7029 4.45739 20.2092C4.96374 20.7155 5.65049 21 6.36658 21H18.9666C19.6827 21 20.3694 20.7155 20.8758 20.2092C21.3821 19.7029 21.6666 19.0161 21.6666 18.3L21.6666 10.8L21.6666 10.2V8.40001V7.50001L21.6666 7.20001H21.6499C21.5822 6.59431 21.3109 6.02595 20.8758 5.59082C20.3694 5.08448 19.6827 4.80001 18.9666 4.80001H6.36658C5.65049 4.80001 4.96374 5.08448 4.45739 5.59082Z" fill="#BDBDBD"/>
</svg>
