<svg width="20" height="20" viewBox="0 0 20 20" fill="none" xmlns="http://www.w3.org/2000/svg">
<path d="M15.25 2.5H14.5V1.75C14.5 1.55109 14.421 1.36032 14.2803 1.21967C14.1397 1.07902 13.9489 1 13.75 1C13.5511 1 13.3603 1.07902 13.2197 1.21967C13.079 1.36032 13 1.55109 13 1.75V2.5H7V1.75C7 1.55109 6.92098 1.36032 6.78033 1.21967C6.63968 1.07902 6.44891 1 6.25 1C6.05109 1 5.86032 1.07902 5.71967 1.21967C5.57902 1.36032 5.5 1.55109 5.5 1.75V2.5H4.75C3.7558 2.50119 2.80267 2.89666 2.09966 3.59966C1.39666 4.30267 1.00119 5.2558 1 6.25L1 15.25C1.00119 16.2442 1.39666 17.1973 2.09966 17.9003C2.80267 18.6033 3.7558 18.9988 4.75 19H15.25C16.2442 18.9988 17.1973 18.6033 17.9003 17.9003C18.6033 17.1973 18.9988 16.2442 19 15.25V6.25C18.9988 5.2558 18.6033 4.30267 17.9003 3.59966C17.1973 2.89666 16.2442 2.50119 15.25 2.5ZM2.5 6.25C2.5 5.65326 2.73705 5.08097 3.15901 4.65901C3.58097 4.23705 4.15326 4 4.75 4H15.25C15.8467 4 16.419 4.23705 16.841 4.65901C17.2629 5.08097 17.5 5.65326 17.5 6.25V7H2.5V6.25ZM15.25 17.5H4.75C4.15326 17.5 3.58097 17.2629 3.15901 16.841C2.73705 16.419 2.5 15.8467 2.5 15.25V8.5H17.5V15.25C17.5 15.8467 17.2629 16.419 16.841 16.841C16.419 17.2629 15.8467 17.5 15.25 17.5Z" fill="#828282"/>
<path d="M10 13.375C10.6213 13.375 11.125 12.8713 11.125 12.25C11.125 11.6287 10.6213 11.125 10 11.125C9.37868 11.125 8.875 11.6287 8.875 12.25C8.875 12.8713 9.37868 13.375 10 13.375Z" fill="#828282"/>
<path d="M6.25 13.375C6.87132 13.375 7.375 12.8713 7.375 12.25C7.375 11.6287 6.87132 11.125 6.25 11.125C5.62868 11.125 5.125 11.6287 5.125 12.25C5.125 12.8713 5.62868 13.375 6.25 13.375Z" fill="#828282"/>
<path d="M13.75 13.375C14.3713 13.375 14.875 12.8713 14.875 12.25C14.875 11.6287 14.3713 11.125 13.75 11.125C13.1287 11.125 12.625 11.6287 12.625 12.25C12.625 12.8713 13.1287 13.375 13.75 13.375Z" fill="#828282"/>
</svg>
