<svg width="20" height="20" viewBox="0 0 20 20" fill="none" xmlns="http://www.w3.org/2000/svg">
<path d="M3.77778 18C3.28889 18 2.87022 17.8258 2.52178 17.4773C2.17333 17.1289 1.99941 16.7105 2 16.2222V3.77778C2 3.28889 2.17422 2.87022 2.52267 2.52178C2.87111 2.17333 3.28948 1.99941 3.77778 2H16.2222C16.7111 2 17.1298 2.17422 17.4782 2.52267C17.8267 2.87111 18.0006 3.28948 18 3.77778V16.2222C18 16.7111 17.8258 17.1298 17.4773 17.4782C17.1289 17.8267 16.7105 18.0006 16.2222 18H3.77778ZM3.77778 16.2222H16.2222V3.77778H3.77778V16.2222Z" fill="#BDBDBD"/>
<path d="M8.75556 13.7333L15.0222 7.46667L13.7778 6.22222L8.75556 11.2444L6.22222 8.71111L4.97778 9.95556L8.75556 13.7333ZM3.77778 18C3.28889 18 2.87022 17.8258 2.52178 17.4773C2.17333 17.1289 1.99941 16.7105 2 16.2222V3.77778C2 3.28889 2.17422 2.87022 2.52267 2.52178C2.87111 2.17333 3.28948 1.99941 3.77778 2H16.2222C16.7111 2 17.1298 2.17422 17.4782 2.52267C17.8267 2.87111 18.0006 3.28948 18 3.77778V16.2222C18 16.7111 17.8258 17.1298 17.4773 17.4782C17.1289 17.8267 16.7105 18.0006 16.2222 18H3.77778Z" fill="#7D98F6"/>
</svg>
