<svg width="20" height="20" viewBox="0 0 20 20" fill="none" xmlns="http://www.w3.org/2000/svg">
<g clip-path="url(#clip0_1357_65261)">
<path d="M18.6236 11.2273C19.5182 9.92544 19.8677 8.34681 19.6352 6.6084C19.5097 5.67119 19.2336 4.76041 18.8177 3.91124C18.767 3.81535 18.696 3.73164 18.6098 3.66586C18.5235 3.60007 18.424 3.5538 18.3181 3.53026C18.2122 3.50672 18.1024 3.50645 17.9964 3.52949C17.8904 3.55254 17.7907 3.59835 17.7041 3.66373C17.2761 3.98545 16.8788 3.79924 15.6247 2.94109C14.4263 2.12146 12.7849 0.998657 10.4787 0.998657C8.04476 0.998657 6.1387 3.05166 5.36972 4.02894C4.60502 3.76001 3.24539 3.41904 2.10047 3.85774L2.20177 4.12096L2.09476 3.85917C0.764379 4.40416 0.434813 5.89647 0.421259 5.95925C-0.0203 8.03793 0.70232 10.1002 1.30723 11.3578C1.09002 11.6422 0.937608 11.9706 0.860681 12.3201C0.752818 12.7978 0.751237 13.2934 0.856049 13.7718C0.960861 14.2502 1.1695 14.6997 1.46722 15.0885C1.76494 15.4773 2.14447 15.7961 2.57895 16.022C3.01343 16.248 3.49226 16.3757 3.98156 16.3962C4.41538 17.1945 5.05651 17.861 5.83738 18.3255C6.61825 18.7901 7.50996 19.0353 8.41855 19.0355H11.6165C12.5251 19.0353 13.4168 18.7901 14.1976 18.3255C14.9785 17.861 15.6196 17.1945 16.0535 16.3962C16.5428 16.3757 17.0216 16.248 17.4561 16.022C17.8905 15.7961 18.2701 15.4773 18.5678 15.0885C18.8655 14.6997 19.0742 14.2502 19.179 13.7718C19.2838 13.2934 19.2822 12.7978 19.1743 12.3201C19.0862 11.9151 18.8968 11.5391 18.6236 11.2273ZM1.88861 6.26956C1.92285 6.10834 2.15183 5.46776 2.64903 5.25304C3.50504 4.93275 4.86039 5.40712 5.31337 5.61755C5.4767 5.69393 5.66206 5.70903 5.8356 5.66005C6.00913 5.61107 6.15925 5.50129 6.25855 5.35078C6.27709 5.32225 8.16745 2.49741 10.4808 2.49741C12.3234 2.49741 13.6288 3.3905 14.7809 4.17875C15.3836 4.59034 15.9522 4.97983 16.5293 5.17743C16.9261 5.32249 17.3559 5.35241 17.7691 5.26374C17.955 5.77826 18.0849 6.31137 18.1564 6.85378C18.3347 8.26049 18.0501 9.48033 17.3132 10.4883C17.1563 10.459 16.997 10.4441 16.8374 10.444C16.7675 10.444 16.6983 10.4469 16.6298 10.4526C16.5802 10.3028 16.4845 10.1724 16.3564 10.0802C16.2283 9.98793 16.0744 9.93851 15.9165 9.93899C10.2005 9.93899 7.41916 7.41021 7.39419 7.38666C7.28793 7.28577 7.15442 7.21825 7.01018 7.19248C6.86594 7.16671 6.71731 7.18381 6.58269 7.24166C6.44807 7.29952 6.33338 7.39559 6.25281 7.51798C6.17225 7.64037 6.12935 7.78372 6.12943 7.93024C6.12811 8.46203 5.91628 8.97163 5.54024 9.34766C5.16421 9.72369 4.65458 9.93555 4.1228 9.93687C3.96494 9.93638 3.81097 9.98577 3.68286 10.078C3.55476 10.1702 3.45907 10.3006 3.40945 10.4505C3.33812 10.4447 3.27249 10.4419 3.20258 10.4419C2.99059 10.4415 2.7794 10.4681 2.57413 10.5211C2.08692 9.45393 1.55476 7.83035 1.88861 6.26956ZM15.1689 13.9908C15.1683 14.9322 14.7941 15.8348 14.1284 16.5004C13.4627 17.1659 12.56 17.54 11.6186 17.5404H8.42069C7.47939 17.5398 6.57679 17.1657 5.91112 16.5001C5.24545 15.8346 4.87114 14.9321 4.87038 13.9908V11.3514C4.93743 11.3372 5.00378 11.32 5.06869 11.3015C5.58713 11.155 6.06507 10.8916 6.46575 10.5315C6.86643 10.1714 7.17917 9.72415 7.37992 9.22422C8.32795 9.82699 9.94796 10.6409 12.2713 11.0932C12.6337 11.1636 13.0141 11.2245 13.4127 11.2758C13.8806 11.3357 14.3728 11.3807 14.89 11.4064C14.9827 11.4114 15.0769 11.4149 15.1753 11.4185L15.1689 13.9908ZM2.27881 13.0577C2.27882 12.9207 2.2939 12.7841 2.32375 12.6504C2.36217 12.4617 2.45959 12.2901 2.60195 12.1604L2.77387 12.0427C2.90631 11.9748 3.05306 11.9396 3.20187 11.9399C3.25856 11.9399 3.31513 11.9449 3.37094 11.9549V13.9908C3.37097 14.2507 3.391 14.5101 3.43085 14.7669C3.09036 14.6293 2.79875 14.393 2.59348 14.0885C2.38821 13.7839 2.27863 13.425 2.27881 13.0577ZM16.607 14.7698C16.6469 14.513 16.6669 14.2535 16.6669 13.9937V11.9578C16.723 11.9478 16.7798 11.9428 16.8367 11.9428C17.044 11.9384 17.2462 12.0076 17.4073 12.1382C17.5683 12.2688 17.6778 12.4524 17.7163 12.6561C17.7461 12.7899 17.7612 12.9264 17.7612 13.0635C17.7601 13.4301 17.6496 13.7881 17.4439 14.0915C17.2381 14.395 16.9465 14.6302 16.6063 14.7669L16.607 14.7698ZM11.3411 14.6556C11.4107 14.7252 11.4659 14.8078 11.5035 14.8986C11.5411 14.9895 11.5605 15.0869 11.5605 15.1853C11.5605 15.2836 11.5411 15.381 11.5035 15.4719C11.4659 15.5628 11.4107 15.6454 11.3411 15.7149C10.9907 16.0641 10.5161 16.2602 10.0214 16.2602C9.52673 16.2602 9.05218 16.0641 8.70175 15.7149C8.57284 15.5726 8.50354 15.3861 8.50816 15.1941C8.51279 15.0022 8.591 14.8193 8.72662 14.6833C8.86224 14.5473 9.04491 14.4686 9.23689 14.4635C9.42887 14.4583 9.6155 14.5271 9.75821 14.6556C9.79253 14.69 9.83328 14.7172 9.87814 14.7358C9.923 14.7544 9.97108 14.764 10.0196 14.764C10.0682 14.764 10.1163 14.7544 10.1612 14.7358C10.206 14.7172 10.2468 14.69 10.2811 14.6556C10.3507 14.586 10.4333 14.5307 10.5242 14.493C10.6152 14.4553 10.7127 14.4359 10.8111 14.4359C10.9096 14.4359 11.007 14.4553 11.098 14.493C11.1889 14.5307 11.2716 14.586 11.3411 14.6556ZM13.1202 12.0804V12.7624C13.1202 12.9611 13.0413 13.1516 12.9008 13.2921C12.7603 13.4325 12.5698 13.5114 12.3712 13.5114C12.1725 13.5114 11.982 13.4325 11.8416 13.2921C11.7011 13.1516 11.6222 12.9611 11.6222 12.7624V12.0804C11.6222 11.8818 11.7011 11.6913 11.8416 11.5508C11.982 11.4104 12.1725 11.3314 12.3712 11.3314C12.5698 11.3314 12.7603 11.4104 12.9008 11.5508C13.0413 11.6913 13.1202 11.8818 13.1202 12.0804ZM8.41855 12.0804V12.7624C8.41855 12.9611 8.33963 13.1516 8.19917 13.2921C8.0587 13.4325 7.86819 13.5114 7.66954 13.5114C7.47089 13.5114 7.28037 13.4325 7.13991 13.2921C6.99944 13.1516 6.92053 12.9611 6.92053 12.7624V12.0804C6.92053 11.8818 6.99944 11.6913 7.13991 11.5508C7.28037 11.4104 7.47089 11.3314 7.66954 11.3314C7.86819 11.3314 8.0587 11.4104 8.19917 11.5508C8.33963 11.6913 8.41855 11.8818 8.41855 12.0804Z" fill="#828282"/>
</g>
<defs>
<clipPath id="clip0_1357_65261">
<rect width="20" height="20" fill="white"/>
</clipPath>
</defs>
</svg>
