<svg width="20" height="20" viewBox="0 0 20 20" fill="none" xmlns="http://www.w3.org/2000/svg">
<path d="M10.0187 16.9875H3.4625C2.725 16.9875 2.125 16.3875 2.125 15.65V7.38563H18.4937V9.76875C18.4937 9.91793 18.553 10.061 18.6585 10.1665C18.764 10.272 18.9071 10.3313 19.0562 10.3313C19.2054 10.3313 19.3485 10.272 19.454 10.1665C19.5595 10.061 19.6187 9.91793 19.6187 9.76875V4.45625C19.6179 3.80496 19.3588 3.18059 18.8982 2.72011C18.4376 2.25964 17.8132 2.00066 17.1619 2H3.45625C2.80502 2.00066 2.18064 2.25966 1.72015 2.72015C1.25966 3.18064 1.00066 3.80502 1 4.45625V15.65C1.00083 16.3028 1.26053 16.9287 1.72216 17.3903C2.18379 17.852 2.80966 18.1117 3.4625 18.1125H10.0187C10.1679 18.1125 10.311 18.0532 10.4165 17.9477C10.522 17.8423 10.5813 17.6992 10.5813 17.55C10.5813 17.4008 10.522 17.2577 10.4165 17.1523C10.311 17.0468 10.1679 16.9875 10.0187 16.9875ZM3.45625 3.125H17.1625C17.8969 3.125 18.4937 3.7225 18.4937 4.45625V6.26063H2.125V4.45625C2.125 3.72188 2.72188 3.125 3.45625 3.125Z" fill="#828282"/>
<path d="M4.24752 5.22807C4.39074 5.22807 4.52809 5.17118 4.62936 5.06991C4.73063 4.96864 4.78752 4.83129 4.78752 4.68807C4.78752 4.54485 4.73063 4.4075 4.62936 4.30623C4.52809 4.20496 4.39074 4.14807 4.24752 4.14807C4.1043 4.14807 3.96695 4.20496 3.86568 4.30623C3.76441 4.4075 3.70752 4.54485 3.70752 4.68807C3.70752 4.83129 3.76441 4.96864 3.86568 5.06991C3.96695 5.17118 4.1043 5.22807 4.24752 5.22807ZM6.15064 5.22807C6.29386 5.22807 6.43121 5.17118 6.53248 5.06991C6.63375 4.96864 6.69064 4.83129 6.69064 4.68807C6.69064 4.54485 6.63375 4.4075 6.53248 4.30623C6.43121 4.20496 6.29386 4.14807 6.15064 4.14807C6.00743 4.14807 5.87008 4.20496 5.76881 4.30623C5.66754 4.4075 5.61064 4.54485 5.61064 4.68807C5.61064 4.83129 5.66754 4.96864 5.76881 5.06991C5.87008 5.17118 6.00743 5.22807 6.15064 5.22807ZM8.05377 5.22807C8.19699 5.22807 8.33434 5.17118 8.43561 5.06991C8.53688 4.96864 8.59377 4.83129 8.59377 4.68807C8.59377 4.54485 8.53688 4.4075 8.43561 4.30623C8.33434 4.20496 8.19699 4.14807 8.05377 4.14807C7.91055 4.14807 7.7732 4.20496 7.67193 4.30623C7.57066 4.4075 7.51377 4.54485 7.51377 4.68807C7.51377 4.83129 7.57066 4.96864 7.67193 5.06991C7.7732 5.17118 7.91055 5.22807 8.05377 5.22807ZM19.2356 12.1143L15.4856 9.93557C15.2866 9.82011 15.0605 9.7593 14.8303 9.7593C14.6002 9.7593 14.3741 9.82011 14.175 9.93557L10.425 12.1143C10.3069 12.1834 10.2089 12.2822 10.1408 12.4009C10.0727 12.5196 10.0369 12.654 10.0369 12.7909C10.0369 12.9277 10.0727 13.0622 10.1408 13.1809C10.2089 13.2996 10.3069 13.3984 10.425 13.4674L11.42 14.0456V15.7756C11.42 16.2331 11.6669 16.6599 12.0638 16.8887L13.6288 17.7906C13.9944 18.001 14.4088 18.1115 14.8306 18.1112C15.2456 18.1112 15.6613 18.0043 16.0319 17.7906L17.5981 16.8881C17.7932 16.7751 17.9552 16.6129 18.068 16.4176C18.1807 16.2224 18.2403 16.001 18.2406 15.7756V14.0456L19.2356 13.4674C19.3538 13.3984 19.4517 13.2996 19.5198 13.1809C19.5879 13.0622 19.6238 12.9277 19.6238 12.7909C19.6238 12.654 19.5879 12.5196 19.5198 12.4009C19.4517 12.2822 19.3538 12.1834 19.2356 12.1143ZM14.7406 10.9087C14.7678 10.8927 14.7988 10.8843 14.8303 10.8843C14.8619 10.8843 14.8928 10.8927 14.92 10.9087L18.1613 12.7912L14.92 14.6737C14.8928 14.6895 14.8618 14.6978 14.8303 14.6978C14.7988 14.6978 14.7679 14.6895 14.7406 14.6737L11.5 12.7912L14.7406 10.9087ZM17.1156 15.7756C17.1156 15.8035 17.1083 15.831 17.0944 15.8552C17.0804 15.8794 17.0604 15.8996 17.0363 15.9137L15.4706 16.8156C15.2758 16.9272 15.0552 16.9859 14.8306 16.9859C14.6061 16.9859 14.3855 16.9272 14.1906 16.8156L12.6256 15.9137C12.6014 15.8997 12.5812 15.8796 12.5672 15.8553C12.5532 15.8311 12.5457 15.8036 12.5456 15.7756V14.6999L14.175 15.6468C14.3741 15.7623 14.6002 15.8231 14.8303 15.8231C15.0605 15.8231 15.2866 15.7623 15.4856 15.6468L17.115 14.6999L17.1156 15.7756Z" fill="#828282"/>
</svg>
