<svg width="100" height="100" viewBox="0 0 100 100" fill="none" xmlns="http://www.w3.org/2000/svg">
 
<path d="M97.8545 22.9944C99.0802 21.9382 99.0725 20.0721 97.9284 18.928V18.928C96.7844 17.784 94.9394 17.7976 93.6981 18.8353C93.0497 19.3773 92.3996 19.8752 91.7477 20.3328L79.6674 8.25254C80.1249 7.60067 80.6227 6.9506 81.1646 6.30229C82.2023 5.0608 82.216 3.21563 81.0719 2.07151V2.07151C79.9278 0.927446 78.0619 0.919695 77.0057 2.14534C73.3202 6.42212 70.9472 11.1319 69.7791 16.4672C69.1344 19.4115 68.8936 22.3426 68.834 25.2396C68.4662 25.2281 68.0977 25.216 67.7283 25.2039C62.5291 25.0334 57.1523 24.8564 51.7318 26.0434C45.4893 27.4102 40.1029 30.4266 35.2646 35.2648C30.4264 40.1031 27.41 45.4895 26.0432 51.732C24.8564 57.1525 25.033 62.5291 25.2037 67.7285C25.2158 68.0979 25.2279 68.4664 25.2395 68.8342C22.3424 68.8938 19.4113 69.1346 16.467 69.7791C11.132 70.9474 6.4222 73.3203 2.14545 77.0056C0.919753 78.0618 0.927485 79.9279 2.07158 81.072V81.072C3.2156 82.216 5.06055 82.2023 6.30188 81.1647C6.95025 80.6227 7.60038 80.1248 8.25234 79.6672L20.3326 91.7475C19.8751 92.3993 19.3773 93.0494 18.8354 93.6977C17.7977 94.9392 17.784 96.7844 18.9281 97.9285V97.9285C20.0722 99.0726 21.9381 99.0803 22.9943 97.8547C26.6798 93.5779 29.0528 88.8681 30.2209 83.5328C30.8656 80.5885 31.1064 77.6574 31.166 74.7602C31.5338 74.7717 31.9023 74.7838 32.2717 74.7959C37.4709 74.9666 42.8478 75.1434 48.2682 73.9565C54.5107 72.5897 59.8971 69.5732 64.7354 64.735C69.5736 59.8967 72.59 54.5104 73.9566 48.2678C75.1434 42.8473 74.9668 37.4707 74.7961 32.2713C74.784 31.902 74.7719 31.5334 74.7604 31.1656C77.6572 31.1061 80.5883 30.8652 83.5328 30.2207C88.868 29.0526 93.5778 26.6797 97.8545 22.9944ZM86.3695 23.2406C82.5518 24.7477 78.665 25.218 74.6937 25.3062C74.782 21.3352 75.2523 17.4484 76.7594 13.6305L86.3695 23.2406ZM67.5363 31.0602C67.9883 31.075 68.442 31.0895 68.8965 31.1035C68.9105 31.558 68.925 32.0117 68.94 32.4637C69.0586 36.0744 69.1742 39.6117 68.8316 43.0865L56.9135 31.1684C60.3881 30.8258 63.9254 30.9414 67.5363 31.0602ZM58.4303 62.5732C55.6367 64.909 52.8102 66.4277 49.9443 67.4029L32.5969 50.0555C33.5721 47.1896 35.0908 44.3631 37.4266 41.5695L58.4303 62.5732ZM41.5697 37.4266C44.3633 35.0908 47.1896 33.5721 50.0555 32.5967L67.4029 49.9441C66.4277 52.81 64.909 55.6365 62.5732 58.4301L41.5697 37.4266ZM13.6305 76.7594C17.4482 75.2523 21.3352 74.7818 25.3062 74.6937C25.218 78.665 24.7477 82.5518 23.2406 86.3697L13.6305 76.7594ZM32.4637 68.9398C32.0117 68.925 31.558 68.9105 31.1035 68.8965C31.0895 68.442 31.075 67.9883 31.06 67.5363C30.9412 63.9256 30.8258 60.3883 31.1684 56.9135L43.0865 68.8316C39.6119 69.174 36.0746 69.0586 32.4637 68.9398Z" fill="#F6B77D"/>

</svg>
