<svg width="20" height="20" viewBox="0 0 20 20" fill="none" xmlns="http://www.w3.org/2000/svg">
 
<path d="M5.29159 16.6667C4.05547 16.6667 3.00339 16.2361 2.13534 15.375C1.26728 14.5139 0.833252 13.4653 0.833252 12.2292C0.833252 11.1366 1.17584 10.1782 1.86102 9.35417C2.54622 8.5301 3.41659 8.02315 4.47215 7.83333C4.68973 6.72222 5.26612 5.71759 6.20131 4.81944C7.1365 3.9213 8.17585 3.47223 9.31938 3.47223C9.69436 3.47223 10.0196 3.58913 10.2951 3.82292C10.5705 4.05671 10.7083 4.35647 10.7083 4.72221V10.4861L11.8114 9.39261C12.0846 9.12173 12.5254 9.1227 12.7975 9.39476C13.0704 9.66767 13.0704 10.1101 12.7975 10.383L10.7209 12.4596C10.3304 12.8501 9.69723 12.8501 9.30671 12.4596L7.23016 10.383C6.95726 10.1101 6.95726 9.66766 7.23016 9.39476C7.50222 9.12269 7.94303 9.12173 8.21628 9.39261L9.31938 10.4861V4.79167C8.17123 4.95833 7.27307 5.47801 6.62492 6.35069C6.06559 7.10377 5.7476 7.89909 5.67095 8.73665C5.65068 8.95817 5.47236 9.1389 5.24992 9.1389C4.41659 9.1389 3.70362 9.43288 3.11102 10.0208C2.51843 10.6088 2.22213 11.338 2.22213 12.2083C2.22213 13.0787 2.52537 13.8079 3.13186 14.3958C3.73834 14.9838 4.45825 15.2778 5.29159 15.2778H15.5694C16.1805 15.2778 16.7013 15.0625 17.1319 14.632C17.5624 14.2014 17.7777 13.6806 17.7777 13.0695C17.7777 12.4583 17.5624 11.9375 17.1319 11.5069C16.7013 11.0764 16.1805 10.8611 15.5694 10.8611H15.2777C14.7254 10.8611 14.2777 10.4134 14.2777 9.8611V9.1389C14.2777 8.28703 14.074 7.53587 13.6666 6.8854C13.3089 6.31435 12.8585 5.83875 12.3152 5.4586C12.1736 5.35949 12.0832 5.20043 12.0832 5.02758V4.49139C12.0832 4.13875 12.4389 3.89838 12.7481 4.06801C13.5348 4.49972 14.1836 5.1032 14.6944 5.87846C15.3425 6.86226 15.6666 7.94908 15.6666 9.1389V9.47223C16.6527 9.49074 17.4826 9.84144 18.1562 10.5243C18.8298 11.2072 19.1666 12.0556 19.1666 13.0695C19.1666 14.0556 18.8136 14.9016 18.1076 15.6076C17.4015 16.3137 16.5555 16.6667 15.5694 16.6667H5.29159Z" fill="#828282"/>
 
</svg>
