<svg width="20" height="20" viewBox="0 0 20 20" fill="none" xmlns="http://www.w3.org/2000/svg">
<path d="M7.06054 9.29915L9.47592 11.7138C9.54319 11.7813 9.62312 11.8349 9.71114 11.8714C9.79915 11.908 9.89352 11.9268 9.98882 11.9268C10.0841 11.9268 10.1785 11.908 10.2665 11.8714C10.3545 11.8349 10.4344 11.7813 10.5017 11.7138L12.9171 9.29915C13.0185 9.1977 13.0876 9.06844 13.1156 8.92774C13.1435 8.78704 13.1292 8.6412 13.0743 8.50866C13.0194 8.37612 12.9264 8.26283 12.8072 8.18311C12.6879 8.10339 12.5477 8.06083 12.4042 8.06079H7.57415C7.43063 8.06069 7.2903 8.10315 7.17092 8.18281C7.05154 8.26248 6.95848 8.37576 6.9035 8.50833C6.84851 8.6409 6.83408 8.7868 6.86204 8.92757C6.88999 9.06834 6.95908 9.19765 7.06054 9.29915Z" fill="#828282"/>
</svg>
