<svg width="20" height="20" viewBox="0 0 20 20" fill="none" xmlns="http://www.w3.org/2000/svg">
<path fill-rule="evenodd" clip-rule="evenodd" d="M8.71947 4.83074C8.64483 4.77961 8.54295 4.74725 8.43123 4.75018L8.41154 4.75044H4.15385C4.02304 4.75044 3.91126 4.79799 3.84008 4.86215C3.77147 4.92399 3.75 4.99014 3.75 5.0404V15.96C3.75 16.0103 3.77147 16.0765 3.84008 16.1383C3.91126 16.2025 4.02304 16.25 4.15385 16.25H16.8462C16.977 16.25 17.0887 16.2025 17.1599 16.1383C17.2285 16.0765 17.25 16.0103 17.25 15.96V7.12033C17.25 7.07007 17.2285 7.00392 17.1599 6.94208C17.0887 6.87792 16.977 6.83037 16.8462 6.83037H9.92308C9.58607 6.83037 9.29044 6.60558 9.20036 6.28083L8.842 4.98886C8.82885 4.94084 8.79301 4.88111 8.71947 4.83074ZM8.40283 3.25044C8.81458 3.24186 9.22496 3.35882 9.56716 3.59323C9.91311 3.8302 10.175 4.17851 10.2884 4.59135C10.2885 4.59182 10.2886 4.59229 10.2888 4.59276L10.4934 5.33037H16.8462C17.3274 5.33037 17.8026 5.50196 18.1642 5.82786C18.5283 6.15608 18.75 6.61897 18.75 7.12033V15.96C18.75 16.4614 18.5283 16.9243 18.1642 17.2525C17.8026 17.5784 17.3274 17.75 16.8462 17.75H4.15385C3.67262 17.75 3.19742 17.5784 2.83583 17.2525C2.47166 16.9243 2.25 16.4614 2.25 15.96V5.0404C2.25 4.53904 2.47166 4.07615 2.83583 3.74793C3.19742 3.42203 3.67262 3.25044 4.15385 3.25044H8.40283Z" fill="#828282"/>
</svg>
