<svg width="73" height="28" viewBox="0 0 73 28" fill="none" xmlns="http://www.w3.org/2000/svg">
<path d="M13.8477 1.63601H18.1531V14.8604C18.1531 16.3453 17.7984 17.6445 17.0891 18.7582C16.3865 19.8718 15.4021 20.7402 14.136 21.3633C12.8699 21.9798 11.395 22.288 9.71129 22.288C8.02095 22.288 6.54273 21.9798 5.27663 21.3633C4.01054 20.7402 3.02616 19.8718 2.32351 18.7582C1.62086 17.6445 1.26953 16.3453 1.26953 14.8604V1.63601H5.57493V14.4925C5.57493 15.2681 5.74396 15.9575 6.08203 16.5607C6.42673 17.1639 6.91063 17.6379 7.53374 17.9826C8.15684 18.3273 8.88269 18.4996 9.71129 18.4996C10.5465 18.4996 11.2724 18.3273 11.8889 17.9826C12.512 17.6379 12.9925 17.1639 13.3306 16.5607C13.6753 15.9575 13.8477 15.2681 13.8477 14.4925V1.63601Z" fill="#1C1C1C"/>
<path d="M25.8516 13.1701V21.9996H21.6158V6.72692H25.6527V9.42152H25.8317C26.1697 8.53326 26.7365 7.83061 27.532 7.31357C28.3274 6.78989 29.2919 6.52806 30.4254 6.52806C31.486 6.52806 32.4107 6.76006 33.1996 7.22408C33.9884 7.68809 34.6016 8.35097 35.0391 9.21271C35.4766 10.0678 35.6953 11.0887 35.6953 12.2752V21.9996H31.4595V13.0309C31.4661 12.0962 31.2275 11.3671 30.7436 10.8434C30.2597 10.3131 29.5935 10.0479 28.745 10.0479C28.175 10.0479 27.6712 10.1706 27.2337 10.4158C26.8028 10.6611 26.4647 11.0191 26.2195 11.4897C25.9808 11.9537 25.8582 12.5139 25.8516 13.1701Z" fill="#1C1C1C"/>
<path d="M39.0337 21.9996V6.72692H43.2695V21.9996H39.0337ZM41.1616 4.75817C40.5318 4.75817 39.9916 4.54936 39.5408 4.13175C39.0967 3.70751 38.8746 3.2004 38.8746 2.61044C38.8746 2.02711 39.0967 1.52663 39.5408 1.10902C39.9916 0.684778 40.5318 0.472656 41.1616 0.472656C41.7913 0.472656 42.3282 0.684778 42.7724 1.10902C43.2231 1.52663 43.4485 2.02711 43.4485 2.61044C43.4485 3.2004 43.2231 3.70751 42.7724 4.13175C42.3282 4.54936 41.7913 4.75817 41.1616 4.75817Z" fill="#1C1C1C"/>
<path d="M54.7862 6.72692V9.90874H45.5888V6.72692H54.7862ZM47.6768 3.06783H51.9126V17.3065C51.9126 17.6976 51.9723 18.0025 52.0916 18.2212C52.2109 18.4334 52.3767 18.5825 52.5888 18.6687C52.8075 18.7549 53.0594 18.7979 53.3445 18.7979C53.5433 18.7979 53.7422 18.7814 53.9411 18.7482C54.1399 18.7085 54.2924 18.6786 54.3984 18.6587L55.0646 21.8107C54.8525 21.877 54.5542 21.9532 54.1697 22.0394C53.7853 22.1322 53.3179 22.1886 52.7678 22.2085C51.7469 22.2482 50.852 22.1123 50.0831 21.8008C49.3208 21.4892 48.7275 21.0053 48.3033 20.3491C47.879 19.6928 47.6702 18.8642 47.6768 17.8633V3.06783Z" fill="#1C1C1C"/>
<path d="M60.1605 27.7269C59.6236 27.7269 59.1198 27.6838 58.6491 27.5977C58.1851 27.5181 57.8007 27.4154 57.4957 27.2894L58.4503 24.1275C58.9474 24.2799 59.3949 24.3628 59.7926 24.3761C60.197 24.3893 60.545 24.2965 60.8366 24.0977C61.1349 23.8988 61.3769 23.5607 61.5625 23.0835L61.8111 22.4371L56.3324 6.72692H60.7869L63.9489 17.9428H64.108L67.2997 6.72692H71.7841L65.848 23.6502C65.563 24.4722 65.1752 25.1881 64.6847 25.7979C64.2008 26.4144 63.5876 26.8884 62.8452 27.2198C62.1027 27.5579 61.2079 27.7269 60.1605 27.7269Z" fill="#1C1C1C"/>
</svg>
