<svg width="20" height="20" viewBox="0 0 20 20" fill="none" xmlns="http://www.w3.org/2000/svg">
<path d="M6.25 1H4C3.20435 1 2.44129 1.31607 1.87868 1.87868C1.31607 2.44129 1 3.20435 1 4L1 6.25C1 7.04565 1.31607 7.80871 1.87868 8.37132C2.44129 8.93393 3.20435 9.25 4 9.25H6.25C7.04565 9.25 7.80871 8.93393 8.37132 8.37132C8.93393 7.80871 9.25 7.04565 9.25 6.25V4C9.25 3.20435 8.93393 2.44129 8.37132 1.87868C7.80871 1.31607 7.04565 1 6.25 1ZM7.75 6.25C7.75 6.64782 7.59196 7.02936 7.31066 7.31066C7.02936 7.59196 6.64782 7.75 6.25 7.75H4C3.60218 7.75 3.22064 7.59196 2.93934 7.31066C2.65804 7.02936 2.5 6.64782 2.5 6.25V4C2.5 3.60218 2.65804 3.22064 2.93934 2.93934C3.22064 2.65804 3.60218 2.5 4 2.5H6.25C6.64782 2.5 7.02936 2.65804 7.31066 2.93934C7.59196 3.22064 7.75 3.60218 7.75 4V6.25ZM16 1H13.75C12.9544 1 12.1913 1.31607 11.6287 1.87868C11.0661 2.44129 10.75 3.20435 10.75 4V6.25C10.75 7.04565 11.0661 7.80871 11.6287 8.37132C12.1913 8.93393 12.9544 9.25 13.75 9.25H16C16.7956 9.25 17.5587 8.93393 18.1213 8.37132C18.6839 7.80871 19 7.04565 19 6.25V4C19 3.20435 18.6839 2.44129 18.1213 1.87868C17.5587 1.31607 16.7956 1 16 1ZM17.5 6.25C17.5 6.64782 17.342 7.02936 17.0607 7.31066C16.7794 7.59196 16.3978 7.75 16 7.75H13.75C13.3522 7.75 12.9706 7.59196 12.6893 7.31066C12.408 7.02936 12.25 6.64782 12.25 6.25V4C12.25 3.60218 12.408 3.22064 12.6893 2.93934C12.9706 2.65804 13.3522 2.5 13.75 2.5H16C16.3978 2.5 16.7794 2.65804 17.0607 2.93934C17.342 3.22064 17.5 3.60218 17.5 4V6.25ZM6.25 10.75H4C3.20435 10.75 2.44129 11.0661 1.87868 11.6287C1.31607 12.1913 1 12.9544 1 13.75L1 16C1 16.7956 1.31607 17.5587 1.87868 18.1213C2.44129 18.6839 3.20435 19 4 19H6.25C7.04565 19 7.80871 18.6839 8.37132 18.1213C8.93393 17.5587 9.25 16.7956 9.25 16V13.75C9.25 12.9544 8.93393 12.1913 8.37132 11.6287C7.80871 11.0661 7.04565 10.75 6.25 10.75ZM7.75 16C7.75 16.3978 7.59196 16.7794 7.31066 17.0607C7.02936 17.342 6.64782 17.5 6.25 17.5H4C3.60218 17.5 3.22064 17.342 2.93934 17.0607C2.65804 16.7794 2.5 16.3978 2.5 16V13.75C2.5 13.3522 2.65804 12.9706 2.93934 12.6893C3.22064 12.408 3.60218 12.25 4 12.25H6.25C6.64782 12.25 7.02936 12.408 7.31066 12.6893C7.59196 12.9706 7.75 13.3522 7.75 13.75V16ZM16 10.75H13.75C12.9544 10.75 12.1913 11.0661 11.6287 11.6287C11.0661 12.1913 10.75 12.9544 10.75 13.75V16C10.75 16.7956 11.0661 17.5587 11.6287 18.1213C12.1913 18.6839 12.9544 19 13.75 19H16C16.7956 19 17.5587 18.6839 18.1213 18.1213C18.6839 17.5587 19 16.7956 19 16V13.75C19 12.9544 18.6839 12.1913 18.1213 11.6287C17.5587 11.0661 16.7956 10.75 16 10.75ZM17.5 16C17.5 16.3978 17.342 16.7794 17.0607 17.0607C16.7794 17.342 16.3978 17.5 16 17.5H13.75C13.3522 17.5 12.9706 17.342 12.6893 17.0607C12.408 16.7794 12.25 16.3978 12.25 16V13.75C12.25 13.3522 12.408 12.9706 12.6893 12.6893C12.9706 12.408 13.3522 12.25 13.75 12.25H16C16.3978 12.25 16.7794 12.408 17.0607 12.6893C17.342 12.9706 17.5 13.3522 17.5 13.75V16Z" fill="#828282"/>
</svg>
