<svg width="100" height="100" viewBox="0 0 100 100" fill="none" xmlns="http://www.w3.org/2000/svg">
 
<path d="M89.254 75.6491C90.4651 75.6491 91.447 74.6673 91.447 73.4562C91.447 72.245 90.4651 71.2632 89.254 71.2632C88.0429 71.2632 87.061 72.245 87.061 73.4562C87.061 74.6673 88.0429 75.6491 89.254 75.6491Z" fill="#7D98F6"/>
<path d="M86.4537 58.263C87.6649 58.263 88.6467 57.2812 88.6467 56.07C88.6467 54.8589 87.6649 53.8771 86.4537 53.8771C85.2426 53.8771 84.2607 54.8589 84.2607 56.07C84.2607 57.2812 85.2426 58.263 86.4537 58.263Z" fill="#7D98F6"/>
<path d="M74.026 71.2741C75.2371 71.2741 76.219 70.2923 76.219 69.0812C76.219 67.87 75.2371 66.8882 74.026 66.8882C72.8148 66.8882 71.833 67.87 71.833 69.0812C71.833 70.2923 72.8148 71.2741 74.026 71.2741Z" fill="#7D98F6"/>
<path d="M94.6651 62.5031C96.2511 60.4609 97.1989 57.9 97.1989 55.1203C97.1989 48.4697 91.7882 43.059 85.1376 43.059C78.9935 43.059 73.9113 47.6781 73.1722 53.625L38.6263 24.4761H60.0707C59.3766 27.2772 58.9008 31.4839 60.8969 34.9411C64.1404 40.5594 72.3664 41.5176 72.715 41.5555C73.1783 41.6061 73.6457 41.5077 74.0493 41.2747C74.4529 41.0417 74.7718 40.6861 74.9597 40.2596C75.1011 39.9387 78.3843 32.336 75.1406 26.7175C74.6498 25.8675 74.0437 25.1257 73.3693 24.4761H76.8257C78.4466 26.355 82.6079 30.5067 87.7374 30.5067C94.2249 30.5067 99.1677 23.862 99.3749 23.5792C99.6504 23.2033 99.799 22.7494 99.799 22.2833C99.799 21.8172 99.6504 21.3633 99.3749 20.9874C99.1677 20.7046 94.2249 14.0599 87.7374 14.0599C82.6081 14.0599 78.4468 18.2116 76.8259 20.0905H73.3695C74.0439 19.4409 74.6498 18.6991 75.1406 17.8491C78.3845 12.2308 75.1011 4.62791 74.9597 4.30701C74.7719 3.88044 74.4531 3.52481 74.0494 3.29175C73.6458 3.05869 73.1784 2.96032 72.715 3.01093C72.3664 3.04882 64.1404 4.00702 60.8969 9.62535C58.9008 13.0828 59.3768 17.2896 60.0707 20.0904H53.2301C53.9045 19.4407 54.5106 18.699 55.0014 17.849C58.2454 12.2306 54.962 4.62772 54.8206 4.30682C54.4348 3.43143 53.5243 2.90565 52.5758 3.01073C52.2272 3.04862 44.0013 4.00682 40.7577 9.62516C38.7614 13.0826 39.2376 17.2892 39.9316 20.0902H33.4287L23.5637 11.7664C22.6381 10.9855 21.2545 11.1025 20.4732 12.0283C19.6922 12.9539 19.8094 14.3374 20.7351 15.1187L34.3509 26.6069C34.3392 26.6259 34.3259 26.6433 34.3148 26.6628L31.6076 31.3516C29.5289 29.3501 26.1238 26.8345 22.1314 26.8345C15.644 26.8345 10.7012 33.4792 10.494 33.762C10.2184 34.1379 10.0699 34.5918 10.0699 35.0579C10.0699 35.5239 10.2184 35.9779 10.494 36.3538C10.7012 36.6366 15.644 43.2813 22.1314 43.2813C23.1131 43.2813 24.0584 43.1274 24.9582 42.8682L21.5379 48.7926C19.4592 46.7912 16.0539 44.2758 12.0615 44.2758C5.57407 44.2758 0.631317 50.9203 0.424091 51.2031C0.148551 51.5791 0 52.0331 0 52.4992C0 52.9653 0.148551 53.4193 0.424091 53.7953C0.631317 54.0781 5.57407 60.7228 12.0615 60.7228C13.0432 60.7228 13.9887 60.5689 14.8885 60.3097L13.1602 63.3031C10.7227 63.7673 5.04634 65.2953 2.4817 69.7372C-0.762232 75.3556 2.52115 82.9585 2.66256 83.2796C2.85045 83.7061 3.16934 84.0617 3.57296 84.2947C3.97658 84.5278 4.44395 84.6262 4.90728 84.5756C5.25571 84.5376 13.4819 83.5794 16.7254 77.961C19.29 73.5189 17.7752 67.8394 16.9586 65.4962L21.0767 58.3631L32.7871 69.8751C30.3953 70.1404 27.7484 70.9042 25.6978 72.7507C20.8767 77.0917 21.6498 85.337 21.6851 85.6858C21.732 86.1495 21.9254 86.5862 22.2373 86.9326C22.5491 87.279 22.9632 87.517 23.4195 87.6122C23.5693 87.6432 25.1961 87.9708 27.3838 87.9708C30.2144 87.9708 33.9837 87.4223 36.7034 84.9737C38.9905 82.9145 40.0175 79.9774 40.4626 77.4206L43.9255 80.8249C43.6161 83.3139 43.3403 89.1354 46.7509 92.9231C49.9858 96.5158 55.3879 97.002 58.0758 97.002C58.995 97.002 59.5973 96.9449 59.6862 96.936C60.1499 96.889 60.5866 96.6956 60.933 96.3838C61.2793 96.0719 61.5174 95.6578 61.6125 95.2016C61.684 94.8584 63.3147 86.7389 58.9739 81.9178C55.5225 78.085 49.6075 77.7882 47.1507 77.8452L44.1276 74.8735C46.6845 74.6812 49.6432 73.956 51.8876 71.9353C56.7086 67.5943 55.9356 59.349 55.9002 59.0002C55.8534 58.5364 55.66 58.0997 55.3481 57.7533C55.0362 57.407 54.6221 57.1689 54.1659 57.0738C53.8225 57.0025 45.7034 55.3715 40.8819 59.7125C38.4056 61.9421 37.407 65.2001 37.0243 67.8908L23.342 54.44L28.7566 45.0617C28.982 45.9705 29.3214 46.8664 29.8121 47.7164C33.0556 53.3348 41.2817 54.293 41.6302 54.331C42.0935 54.3816 42.5609 54.2833 42.9646 54.0502C43.3682 53.8172 43.6871 53.4615 43.8749 53.035C44.0163 52.7139 47.2995 45.1112 44.0556 39.4928C42.0595 36.0354 38.1784 34.3442 35.4056 33.5448L37.7534 29.4784L69.7162 56.4472C64.5094 57.7824 60.6496 62.5148 60.6496 68.1318C60.6496 74.7823 66.0604 80.193 72.7109 80.193C74.4757 80.1944 76.219 79.8061 77.8164 79.0557C79.9679 82.3704 83.7007 84.5676 87.9384 84.5676C94.589 84.5676 99.9997 79.1569 99.9997 72.5064C99.9997 68.3454 97.8804 64.6714 94.6651 62.5031ZM87.7374 18.4458C90.4429 18.4458 93.1397 20.6241 94.7265 22.2833C93.1384 23.944 90.4421 26.1212 87.7374 26.1212C85.0357 26.1212 82.3425 23.9487 80.755 22.2905C82.2033 20.7694 84.8837 18.4458 87.7374 18.4458ZM64.6951 11.8181C66.0461 9.47828 69.2738 8.23219 71.5039 7.68649C72.0969 9.70133 72.7689 13.1845 71.3422 15.6558C69.9892 17.999 66.7547 19.2452 64.5242 19.7898C63.8803 17.5839 63.343 14.1607 64.6951 11.8181ZM64.5215 24.786C66.5629 25.28 69.9156 26.4393 71.3426 28.9108C72.6935 31.2507 72.1586 34.6692 71.516 36.8733C69.4748 36.3794 66.1221 35.22 64.6951 32.7485C63.3444 30.4089 63.8789 26.9903 64.5215 24.786ZM44.5558 11.8181C45.9067 9.47828 49.1345 8.23219 51.3645 7.68649C51.9575 9.70133 52.6296 13.1845 51.2028 15.6558C49.8516 17.9956 46.6239 19.2419 44.3938 19.7876C43.8011 17.773 43.1288 14.2896 44.5558 11.8181ZM12.927 75.7687C11.576 78.1085 8.34828 79.3548 6.11821 79.9005C5.52524 77.8856 4.85318 74.4024 6.27993 71.931C7.6309 69.5911 10.8586 68.345 13.0887 67.7993C13.6815 69.814 14.3537 73.2972 12.927 75.7687ZM12.0614 56.3375C9.35941 56.3373 6.66645 54.1648 5.07896 52.5066C6.52719 50.9857 9.20765 48.6621 12.0614 48.6621C14.7666 48.6621 17.4635 50.8404 19.0504 52.4996C17.4621 54.1603 14.7662 56.3375 12.0614 56.3375ZM48.1845 82.2366C50.2841 82.2952 53.8046 82.7327 55.7137 84.8532C57.5215 86.8608 57.7094 90.3159 57.5391 92.6055C55.4395 92.5467 51.9192 92.1094 50.0098 89.9889C48.202 87.9813 48.0143 84.5262 48.1845 82.2366ZM43.8165 62.9722C45.827 61.1619 49.2886 60.9763 51.5782 61.1476C51.5092 63.4445 50.9624 66.8661 48.9522 68.6761C46.9446 70.4843 43.4894 70.6722 41.1999 70.5015C41.2589 68.4021 41.6956 64.8816 43.8165 62.9722ZM36.3845 74.1853C36.3259 76.2847 35.8888 79.8052 33.7681 81.7145C31.7576 83.5249 28.2961 83.7102 26.0064 83.5391C26.0754 81.2423 26.6222 77.8206 28.6322 76.0106C30.6402 74.2028 34.0952 74.0151 36.3845 74.1853ZM22.131 38.8961C19.4256 38.8961 16.7289 36.7178 15.142 35.0587C16.7301 33.3979 19.4264 31.2208 22.131 31.2208C24.8328 31.2208 27.5259 33.393 29.1134 35.0514C27.6652 36.5723 24.9847 38.8961 22.131 38.8961ZM40.2573 41.6858C41.6083 44.0254 41.0735 47.4441 40.431 49.6482C38.3896 49.1543 35.0368 47.9947 33.6099 45.5235C32.2589 43.1836 32.7937 39.7651 33.4363 37.561C35.4777 38.0551 38.8304 39.2143 40.2573 41.6858ZM85.1376 47.4449C89.3698 47.4449 92.813 50.8881 92.813 55.1203C92.813 59.3525 89.3698 62.7957 85.1376 62.7957C84.5482 62.7957 83.9749 62.7265 83.4234 62.6003C82.1838 60.2124 80.1859 58.3041 77.7437 57.1754C77.557 56.5063 77.4622 55.8149 77.4621 55.1203C77.4623 50.8883 80.9054 47.4449 85.1376 47.4449ZM72.7109 75.8073C68.4787 75.8073 65.0356 72.3642 65.0356 68.132C65.0356 63.8998 68.4787 60.4566 72.7109 60.4566C76.9431 60.4566 80.3863 63.8998 80.3863 68.132C80.3863 72.3642 76.9431 75.8073 72.7109 75.8073ZM87.9382 80.1821C85.1669 80.1821 82.7367 78.7046 81.3878 76.4968C83.4808 74.3265 84.772 71.3779 84.772 68.132C84.772 67.8079 84.7554 67.4876 84.7302 67.1699C84.8658 67.1745 85.0009 67.1816 85.1374 67.1816C87.3386 67.1816 89.4021 66.5859 91.1804 65.5519C93.7964 66.7765 95.6138 69.4325 95.6138 72.5067C95.6136 76.739 92.1704 80.1821 87.9382 80.1821Z" fill="#7D98F6"/>
 
</svg>
