<svg width="20" height="20" viewBox="0 0 20 20" fill="none" xmlns="http://www.w3.org/2000/svg">
<path d="M18.3407 7.78979L12.652 2.09688C11.9479 1.39445 10.9942 1 10 1C9.00575 1 8.05207 1.39445 7.348 2.09688L1.65926 7.78979C1.44958 7.99825 1.28334 8.24628 1.17017 8.51951C1.05701 8.79274 0.999167 9.08573 1.00001 9.38149V16.7487C1.00001 17.3457 1.23706 17.9184 1.65902 18.3406C2.08097 18.7628 2.65327 19 3.25001 19H16.75C17.3467 19 17.919 18.7628 18.341 18.3406C18.7629 17.9184 19 17.3457 19 16.7487V9.38149C19.0008 9.08573 18.943 8.79274 18.8298 8.51951C18.7167 8.24628 18.5504 7.99825 18.3407 7.78979ZM12.25 17.4991H7.75V14.5468C7.75 13.9497 7.98705 13.3771 8.40901 12.9549C8.83097 12.5327 9.40326 12.2955 10 12.2955C10.5967 12.2955 11.169 12.5327 11.591 12.9549C12.0129 13.3771 12.25 13.9497 12.25 14.5468V17.4991ZM17.5 16.7487C17.5 16.9477 17.421 17.1386 17.2803 17.2793C17.1397 17.42 16.9489 17.4991 16.75 17.4991H13.75V14.5468C13.75 13.5517 13.3549 12.5973 12.6516 11.8936C11.9484 11.1899 10.9946 10.7946 10 10.7946C9.00544 10.7946 8.05161 11.1899 7.34835 11.8936C6.64509 12.5973 6.25 13.5517 6.25 14.5468V17.4991H3.25001C3.05109 17.4991 2.86033 17.42 2.71968 17.2793C2.57903 17.1386 2.50001 16.9477 2.50001 16.7487V9.38149C2.5007 9.1826 2.57965 8.992 2.71976 8.85092L8.4085 3.16026C8.83128 2.73921 9.4035 2.50283 10 2.50283C10.5965 2.50283 11.1687 2.73921 11.5915 3.16026L17.2802 8.85317C17.4198 8.99369 17.4987 9.18339 17.5 9.38149V16.7487Z" fill="#828282"/>
</svg>
