<svg width="100" height="100" viewBox="0 0 100 100" fill="none" xmlns="http://www.w3.org/2000/svg">
 
<path d="M52.1137 56.8094C51.6528 56.8094 51.2018 56.6758 50.8154 56.4247C50.429 56.1735 50.1237 55.8157 49.9366 55.3945C46.019 46.5986 40.8643 44.4055 36.3163 42.4714C31.5793 40.4562 26.6819 38.3727 26.6994 29.4498C26.6994 28.818 26.9504 28.2122 27.3971 27.7655C27.8438 27.3188 28.4497 27.0678 29.0814 27.0678C29.7131 27.0678 30.319 27.3188 30.7657 27.7655C31.2124 28.2122 31.4634 28.818 31.4634 29.4498C31.4523 35.2158 33.7009 36.1718 38.1806 38.0774C43.0034 40.1291 49.6142 42.9382 54.2877 53.4476C54.4494 53.8102 54.5179 54.2074 54.487 54.6032C54.4561 54.999 54.3268 55.3808 54.1108 55.7139C53.8948 56.047 53.5989 56.3208 53.2501 56.5105C52.9014 56.7001 52.5107 56.7996 52.1137 56.7999V56.8094ZM15.3055 34.6822C14.8786 34.6818 14.4596 34.5667 14.0925 34.3489C13.7253 34.1311 13.4234 33.8186 13.2184 33.4441C13.0134 33.0696 12.9128 32.6469 12.9271 32.2203C12.9415 31.7936 13.0702 31.3786 13.2999 31.0187C13.7398 30.328 24.2682 14.0637 39.4002 11.9342C39.7109 11.8875 40.0277 11.9027 40.3325 11.9789C40.6372 12.0551 40.9239 12.1909 41.176 12.3784C41.4281 12.5658 41.6407 12.8013 41.8014 13.0712C41.9621 13.3411 42.0679 13.6402 42.1126 13.9511C42.1573 14.2621 42.1401 14.5788 42.0619 14.8831C41.9837 15.1874 41.8461 15.4732 41.657 15.7241C41.468 15.975 41.2311 16.186 40.9602 16.345C40.6892 16.504 40.3895 16.6078 40.0783 16.6505C27.0885 18.4783 17.4191 33.4293 17.3223 33.5802C17.1064 33.9191 16.8082 34.1978 16.4556 34.3905C16.103 34.5832 15.7074 34.6836 15.3055 34.6822Z" fill="#F67D7D"/>
<path d="M62.3101 33.1594C62.2151 33.159 62.1201 33.1532 62.0258 33.1419C54.3812 32.2209 48.3531 30.7123 44.11 28.659C40.3814 26.8566 37.9168 24.5826 36.7671 21.9021C35.1315 18.0718 36.6718 14.4178 37.839 12.8616L44.5245 3.95452C44.9035 3.44912 45.4678 3.115 46.0932 3.02566C46.7186 2.93632 47.3539 3.09907 47.8593 3.47812C48.3647 3.85716 48.6988 4.42145 48.7881 5.04685C48.8775 5.67224 48.7147 6.30752 48.3357 6.81291L41.6661 15.7057C41.5629 15.8534 40.1988 17.859 41.1754 20.0774C42.152 22.2959 46.0458 26.2103 61.2318 28.2398L73.4927 11.9072C73.8718 11.4018 74.4361 11.0677 75.0615 10.9783C75.6869 10.889 76.3221 11.0518 76.8275 11.4308C77.3329 11.8099 77.667 12.3741 77.7564 12.9995C77.8457 13.6249 77.683 14.2602 77.3039 14.7656L64.2157 32.2066C63.9938 32.5024 63.7061 32.7425 63.3753 32.9079C63.0446 33.0733 62.6799 33.1594 62.3101 33.1594ZM69.9594 85.9841C64.6984 85.9841 59.6375 84.6994 55.3387 82.1919C48.9375 78.4554 46.3126 74.6585 43.5447 70.0835C40.753 65.4687 37.2785 59.725 29.6386 56.0551C19.5929 51.2308 13.7174 45.7427 12.1548 39.74C10.8447 34.6997 13.1076 31.2966 13.368 30.9266L17.2602 33.6739L17.2808 33.6437C17.2268 33.7263 15.9707 35.6843 16.8044 38.6761C17.6699 41.7965 20.957 46.5986 31.7046 51.7627C40.6228 56.0503 44.669 62.7358 47.6243 67.6189C50.1952 71.87 52.2898 74.8951 57.743 78.079C63.3804 81.3694 70.6772 82.1189 77.7517 80.1339C82.7793 78.7253 86.8573 76.0877 88.3913 73.2499C88.697 72.7037 89.2054 72.2997 89.8066 72.1254C90.4078 71.9511 91.0534 72.0204 91.6039 72.3184C92.1544 72.6164 92.5655 73.1191 92.7482 73.7177C92.9309 74.3164 92.8707 74.963 92.5805 75.5176C90.4208 79.5098 85.3567 82.951 79.0364 84.728C76.0821 85.5579 73.0282 85.9805 69.9594 85.9841Z" fill="#F67D7D"/>
<path d="M69.95 97C62.6754 97 55.7025 95.1706 49.7824 91.7136C41.1644 86.6828 37.4532 81.3106 34.1137 75.7907C31.6634 71.7397 29.5466 68.243 24.8668 65.9944C18.2543 62.8184 13.1458 59.3772 9.24563 55.4771C7.76531 54.0053 6.42608 52.3981 5.24547 50.6765C3.7214 48.415 2.93855 45.7353 3.00542 43.0089C3.07228 40.2826 3.98555 37.6445 5.61865 35.4604C7.30862 33.1975 9.67527 31.5317 12.3756 30.7043L14.621 30.0215C15.2252 29.839 15.8771 29.9036 16.4337 30.2013C16.9902 30.499 17.4059 31.0053 17.5895 31.6091C17.7731 32.213 17.7097 32.865 17.413 33.4221C17.1164 33.9792 16.6108 34.3959 16.0073 34.5806L13.7571 35.2619C12.0319 35.7913 10.5197 36.8557 9.43937 38.3013C8.39571 39.691 7.81025 41.371 7.76415 43.1084C7.71806 44.8458 8.21361 46.5545 9.18211 47.9976C10.1919 49.4723 11.3382 50.8488 12.6058 52.1089C16.1185 55.6231 20.8015 58.7594 26.92 61.6988C32.8798 64.5572 35.573 69.0179 38.1789 73.3245C41.3041 78.4887 44.5135 83.1272 52.1755 87.6006C57.3699 90.6321 63.5122 92.2344 69.942 92.236C75.9987 92.236 82.1839 90.8068 87.3592 88.1993C87.9452 87.9055 88.5216 87.5927 89.0742 87.2719C90.0198 86.7219 90.807 85.9367 91.3593 84.9925C91.9116 84.0483 92.2103 82.9773 92.2263 81.8835C92.2423 80.7897 91.975 79.7104 91.4505 78.7505C90.926 77.7906 90.1621 76.9827 89.233 76.4053L73.4928 66.6311L68.1651 69.0131C66.8309 69.6066 65.3929 69.9313 63.9331 69.9688C62.4734 70.0064 61.0206 69.7559 59.6577 69.2318C58.2948 68.7077 57.0485 67.9202 55.99 66.9143C54.9315 65.9084 54.0816 64.7039 53.4888 63.3694L49.9365 55.3897L54.2876 53.4524L57.8415 61.432C58.3421 62.5541 59.1568 63.5072 60.1874 64.1762C61.2179 64.8452 62.4202 65.2015 63.6488 65.2019C64.5378 65.202 65.4168 65.0137 66.2277 64.6493L72.7068 61.7608C73.0622 61.6039 73.4506 61.5364 73.8381 61.5641C74.2256 61.5918 74.6004 61.7138 74.9299 61.9196L91.7421 72.3606C93.3701 73.371 94.7089 74.7856 95.6284 76.4666C96.5478 78.1477 97.0166 80.0381 96.9891 81.954C96.9616 83.8698 96.4388 85.746 95.4715 87.4C94.5042 89.054 93.1253 90.4295 91.4689 91.3928C90.8337 91.7612 90.1715 92.1201 89.5014 92.4567C83.6782 95.385 76.7339 97 69.95 97ZM57.959 44.6517C57.4134 44.6517 56.8842 44.4645 56.4601 44.1212C56.036 43.7779 55.7426 43.2994 55.629 42.7657C55.5153 42.232 55.5884 41.6755 55.8359 41.1892C56.0834 40.7029 56.4904 40.3163 56.9888 40.0941L64.1792 36.8911C64.465 36.7636 64.7731 36.6936 65.086 36.6852C65.3988 36.6768 65.7103 36.73 66.0025 36.8419C66.2948 36.9539 66.5622 37.1222 66.7893 37.3375C67.0165 37.5527 67.1991 37.8106 67.3266 38.0964C67.4541 38.3822 67.5241 38.6904 67.5326 39.0032C67.541 39.316 67.4877 39.6275 67.3758 39.9198C67.2639 40.212 67.0955 40.4794 66.8803 40.7066C66.665 40.9338 66.4071 41.1163 66.1213 41.2438L58.9293 44.4452C58.6242 44.5823 58.2934 44.6527 57.959 44.6517ZM60.8015 52.9442C60.2552 52.9451 59.7252 52.7582 59.3004 52.4148C58.8755 52.0714 58.5816 51.5924 58.4679 51.058C58.3541 50.5237 58.4275 49.9665 58.6758 49.4799C58.924 48.9932 59.332 48.6067 59.8313 48.3851L67.0233 45.1821C67.6005 44.9252 68.2561 44.9081 68.8459 45.1345C69.4357 45.361 69.9114 45.8125 70.1683 46.3897C70.4252 46.9669 70.4423 47.6226 70.2159 48.2124C69.9894 48.8022 69.5379 49.2779 68.9607 49.5348L61.7702 52.7298C61.4661 52.869 61.136 52.942 60.8015 52.9442Z" fill="#F67D7D"/>
<path d="M63.6456 61.2351C63.0993 61.236 62.5693 61.049 62.1445 60.7057C61.7196 60.3623 61.4257 59.8832 61.3119 59.3489C61.1982 58.8146 61.2716 58.2574 61.5199 57.7708C61.7681 57.2841 62.176 56.8976 62.6754 56.6759L69.8658 53.4745C70.1526 53.3395 70.4636 53.2631 70.7803 53.2498C71.0971 53.2365 71.4133 53.2865 71.7105 53.397C72.0076 53.5075 72.2797 53.6762 72.5109 53.8932C72.742 54.1102 72.9274 54.3712 73.0564 54.6608C73.1854 54.9504 73.2552 55.2629 73.2618 55.5798C73.2685 55.8968 73.2118 56.2119 73.095 56.5066C72.9783 56.8014 72.8039 57.0699 72.5821 57.2964C72.3603 57.5229 72.0954 57.7028 71.8032 57.8257L64.6127 61.0286C64.3083 61.1644 63.9789 61.2347 63.6456 61.2351Z" fill="#F67D7D"/>
 
</svg>
