<svg width="20" height="20" viewBox="0 0 20 20" fill="none" xmlns="http://www.w3.org/2000/svg">
<path d="M10.2488 14.061C10.3659 14.1782 10.4317 14.3371 10.4317 14.5028C10.4317 14.6685 10.3659 14.8274 10.2488 14.9446L9.47224 15.7259C8.651 16.5466 7.53737 17.0074 6.37633 17.0071C5.21529 17.0067 4.10195 16.5451 3.28122 15.7239C2.4605 14.9027 1.99963 13.789 2 12.628C2.00037 11.4669 2.46194 10.3536 3.28318 9.53289L5.16755 7.64851C5.95637 6.85906 7.01706 6.40091 8.13257 6.3678C9.24808 6.33468 10.3341 6.72912 11.1683 7.47039C11.2299 7.52497 11.2801 7.59114 11.3161 7.66512C11.3521 7.7391 11.3731 7.81945 11.3781 7.90157C11.383 7.98369 11.3717 8.06598 11.3448 8.14374C11.318 8.2215 11.276 8.29321 11.2215 8.35476C11.1669 8.41632 11.1007 8.46652 11.0267 8.50251C10.9527 8.53849 10.8724 8.55955 10.7903 8.56448C10.7082 8.56942 10.6259 8.55813 10.5481 8.53126C10.4703 8.50439 10.3986 8.46247 10.3371 8.40789C9.74124 7.87875 8.96576 7.59723 8.16923 7.6209C7.3727 7.64457 6.6153 7.97165 6.05193 8.53523L4.16755 10.4173C3.58138 11.0034 3.25208 11.7984 3.25208 12.6274C3.25208 13.4564 3.58138 14.2514 4.16755 14.8376C4.75372 15.4237 5.54874 15.7531 6.37771 15.7531C7.20668 15.7531 8.0017 15.4237 8.58787 14.8376L9.36443 14.061C9.42247 14.0029 9.4914 13.9568 9.56728 13.9253C9.64315 13.8939 9.72448 13.8777 9.80662 13.8777C9.88875 13.8777 9.97008 13.8939 10.046 13.9253C10.1218 13.9568 10.1908 14.0029 10.2488 14.061ZM15.7238 3.27976C14.9024 2.46025 13.7895 2 12.6293 2C11.469 2 10.3561 2.46025 9.53474 3.27976L8.75818 4.05711C8.64101 4.17438 8.57522 4.3334 8.57529 4.49918C8.57537 4.66496 8.64129 4.82392 8.75857 4.94109C8.87584 5.05826 9.03486 5.12405 9.20064 5.12397C9.36642 5.1239 9.52538 5.05798 9.64255 4.9407L10.4191 4.16414C11.0053 3.57797 11.8003 3.24866 12.6293 3.24866C13.4582 3.24866 14.2533 3.57797 14.8394 4.16414C15.4256 4.75031 15.7549 5.54532 15.7549 6.37429C15.7549 7.20326 15.4256 7.99828 14.8394 8.58445L12.9551 10.4704C12.3914 11.0336 11.6338 11.3603 10.8373 11.3835C10.0408 11.4068 9.26545 11.1248 8.6699 10.5954C8.54558 10.4852 8.38256 10.4288 8.21671 10.4388C8.05085 10.4488 7.89575 10.5242 7.78552 10.6485C7.67529 10.7728 7.61896 10.9358 7.62892 11.1017C7.63889 11.2676 7.71433 11.4227 7.83865 11.5329C8.67271 12.2744 9.75859 12.6691 10.8741 12.6362C11.9896 12.6034 13.0504 12.1456 13.8394 11.3563L15.7238 9.47195C16.5438 8.65053 17.0043 7.53729 17.0043 6.37664C17.0043 5.21598 16.5438 4.10275 15.7238 3.28132V3.27976Z" fill="#828282"/>
</svg>
