<svg xmlns="http://www.w3.org/2000/svg" width="20" height="20" viewBox="0 0 20 20" fill="none">
<path d="M6.25 5.25H18.25C18.4489 5.25 18.6397 5.17098 18.7803 5.03033C18.921 4.88968 19 4.69891 19 4.5C19 4.30109 18.921 4.11032 18.7803 3.96967C18.6397 3.82902 18.4489 3.75 18.25 3.75H6.25C6.05109 3.75 5.86032 3.82902 5.71967 3.96967C5.57902 4.11032 5.5 4.30109 5.5 4.5C5.5 4.69891 5.57902 4.88968 5.71967 5.03033C5.86032 5.17098 6.05109 5.25 6.25 5.25ZM18.25 9H6.25C6.05109 9 5.86032 9.07902 5.71967 9.21967C5.57902 9.36032 5.5 9.55109 5.5 9.75C5.5 9.94891 5.57902 10.1397 5.71967 10.2803C5.86032 10.421 6.05109 10.5 6.25 10.5H18.25C18.4489 10.5 18.6397 10.421 18.7803 10.2803C18.921 10.1397 19 9.94891 19 9.75C19 9.55109 18.921 9.36032 18.7803 9.21967C18.6397 9.07902 18.4489 9 18.25 9ZM18.25 14.25H6.25C6.05109 14.25 5.86032 14.329 5.71967 14.4697C5.57902 14.6103 5.5 14.8011 5.5 15C5.5 15.1989 5.57902 15.3897 5.71967 15.5303C5.86032 15.671 6.05109 15.75 6.25 15.75H18.25C18.4489 15.75 18.6397 15.671 18.7803 15.5303C18.921 15.3897 19 15.1989 19 15C19 14.8011 18.921 14.6103 18.7803 14.4697C18.6397 14.329 18.4489 14.25 18.25 14.25Z" fill="#A6C0FB"/>
<path d="M2.5 6C3.32843 6 4 5.32843 4 4.5C4 3.67157 3.32843 3 2.5 3C1.67157 3 1 3.67157 1 4.5C1 5.32843 1.67157 6 2.5 6Z" fill="#A6C0FB"/>
<path d="M2.5 11.25C3.32843 11.25 4 10.5784 4 9.75C4 8.92157 3.32843 8.25 2.5 8.25C1.67157 8.25 1 8.92157 1 9.75C1 10.5784 1.67157 11.25 2.5 11.25Z" fill="#A6C0FB"/>
<path d="M2.5 16.5C3.32843 16.5 4 15.8284 4 15C4 14.1716 3.32843 13.5 2.5 13.5C1.67157 13.5 1 14.1716 1 15C1 15.8284 1.67157 16.5 2.5 16.5Z" fill="#A6C0FB"/>
</svg>
