<svg width="20" height="20" viewBox="0 0 20 20" fill="none" xmlns="http://www.w3.org/2000/svg">

<path d="M4.50322 17.5C4.08229 17.5 3.72599 17.3542 3.43433 17.0625C3.14266 16.7708 2.99683 16.4145 2.99683 15.9936V4.4231C2.99683 4.00216 3.14266 3.64585 3.43433 3.35419C3.72599 3.06252 4.08229 2.91669 4.50322 2.91669H10.0962V4.16667H4.50322C4.43911 4.16667 4.38035 4.19338 4.32693 4.24679C4.2735 4.30022 4.24678 4.35899 4.24678 4.4231V15.9936C4.24678 16.0577 4.2735 16.1165 4.32693 16.1699C4.38035 16.2233 4.43911 16.25 4.50322 16.25H10.0962V17.5H4.50322ZM13.4455 13.766L12.5802 12.8622L14.609 10.8333H7.59616V9.58335H14.609L12.5802 7.55452L13.4455 6.65071L17.0032 10.2084L13.4455 13.766Z" fill="#828282"/>
 
</svg>
