<svg width="20" height="20" viewBox="0 0 20 20" fill="none" xmlns="http://www.w3.org/2000/svg">
<path d="M8.81148 18.3529L8.81411 18.3531C9.86193 18.4226 10.8384 18.2291 11.7269 17.7619C12.628 17.2925 13.35 16.5682 13.8982 15.6187L18.0708 8.3917C18.3814 7.85362 18.1971 7.16558 17.659 6.85492L16.0312 5.91511C15.4931 5.60445 14.8051 5.78881 14.4944 6.32689L10.4449 13.3408C10.2335 13.707 9.97701 13.9653 9.68014 14.1385L9.68013 14.1385L9.67566 14.1411C9.38117 14.3162 9.05943 14.4016 8.69587 14.3949L8.69303 14.3948C8.34544 14.3901 7.97094 14.2855 7.56271 14.0498C7.15931 13.8169 6.87998 13.5445 6.69726 13.241C6.50961 12.9293 6.42033 12.6059 6.42142 12.2597C6.42625 11.9176 6.52365 11.5664 6.73561 11.1992L10.7851 4.18532C11.0958 3.64725 10.9114 2.95921 10.3733 2.64855L8.74551 1.70873C8.20743 1.39807 7.51939 1.58243 7.20873 2.12051L3.03622 9.34752C2.48838 10.2964 2.2202 11.2821 2.25999 12.2947C2.29942 13.2984 2.62005 14.2413 3.20446 15.1144L3.20593 15.1166C3.79579 15.9898 4.62585 16.7234 5.6708 17.3267C6.71228 17.928 7.76064 18.2788 8.81148 18.3529Z" stroke="#828282" stroke-width="1.25"/>
</svg>
