<svg width="20" height="20" viewBox="0 0 20 20" fill="none" xmlns="http://www.w3.org/2000/svg">
<path fill-rule="evenodd" clip-rule="evenodd" d="M9.79893 17.1839C9.65851 17.0434 9.57953 16.853 9.57935 16.6544C9.57888 16.5561 9.59778 16.4586 9.63499 16.3675C9.6722 16.2765 9.72698 16.1936 9.7962 16.1238C9.86542 16.0539 9.94773 15.9983 10.0384 15.9602C10.1291 15.9222 10.2264 15.9023 10.3248 15.9019H14.5214C14.7648 15.9017 14.9981 15.8049 15.1701 15.6327C15.3421 15.4606 15.4387 15.2271 15.4387 14.9838V4.98415C15.4387 4.74078 15.3421 4.50738 15.1701 4.33522C14.9981 4.16307 14.7648 4.06626 14.5214 4.06607H10.3248C10.1261 4.06607 9.93563 3.98716 9.79516 3.84669C9.65469 3.70622 9.57578 3.51571 9.57578 3.31706C9.57578 3.11841 9.65469 2.9279 9.79516 2.78743C9.93563 2.64696 10.1261 2.56805 10.3248 2.56805H14.5214C15.1621 2.56824 15.7764 2.82288 16.2294 3.27596C16.6823 3.72905 16.9368 4.34348 16.9368 4.98415V14.9874C16.9368 15.628 16.6823 16.2425 16.2294 16.6955C15.7764 17.1486 15.1621 17.4033 14.5214 17.4034H10.3284C10.1298 17.4033 9.93936 17.3243 9.79893 17.1839ZM12.094 10.4348C12.1019 10.4248 12.1097 10.4141 12.1169 10.4034C12.1204 10.3981 12.1238 10.3925 12.1272 10.387C12.1306 10.3815 12.134 10.376 12.1375 10.3706C12.1447 10.3599 12.1497 10.3506 12.1547 10.3406C12.1607 10.3295 12.1662 10.3181 12.1711 10.3064C12.1727 10.3028 12.1745 10.2993 12.1762 10.2957C12.1797 10.2886 12.1832 10.2814 12.186 10.2743C12.1907 10.2634 12.1948 10.2522 12.1982 10.2408C12.1997 10.2363 12.2014 10.232 12.2031 10.2276C12.2059 10.2202 12.2088 10.2128 12.211 10.2051C12.2136 10.1965 12.2154 10.189 12.2172 10.1812C12.218 10.1781 12.2188 10.1749 12.2196 10.1716C12.2203 10.1688 12.221 10.1659 12.2218 10.1629C12.2241 10.1536 12.2267 10.1435 12.2289 10.1338C12.2315 10.121 12.2334 10.1082 12.2346 10.0953C12.2369 10.0842 12.2386 10.073 12.2395 10.0617V9.99039V9.91906C12.2385 9.90803 12.2369 9.89708 12.2346 9.88624C12.2334 9.87307 12.2315 9.85997 12.2289 9.84701C12.2289 9.83757 12.2258 9.82851 12.2227 9.81956C12.2216 9.81634 12.2205 9.81313 12.2196 9.80992C12.2179 9.80411 12.2167 9.79862 12.2155 9.79323C12.2142 9.78737 12.2129 9.78162 12.211 9.77567C12.2075 9.76426 12.2032 9.75213 12.1989 9.74072C12.1975 9.73692 12.1961 9.73311 12.1948 9.72931C12.1921 9.7217 12.1894 9.71409 12.186 9.70648C12.1851 9.7044 12.1842 9.70236 12.1834 9.70036C12.1795 9.6914 12.1759 9.68313 12.1718 9.67438C12.1668 9.66368 12.1611 9.65156 12.1547 9.64015C12.1482 9.62873 12.1432 9.62017 12.1375 9.6109C12.1358 9.60803 12.1339 9.60477 12.1319 9.6013C12.1274 9.59353 12.1223 9.58477 12.1169 9.57737L12.094 9.54598C12.0916 9.54266 12.0894 9.53961 12.0874 9.53672C12.0828 9.53027 12.0788 9.52455 12.0733 9.51816C12.0655 9.50888 12.0427 9.48249 12.0255 9.46537L8.98171 6.42154C8.84124 6.28107 8.65072 6.20215 8.45206 6.20215C8.2534 6.20215 8.06287 6.28107 7.9224 6.42154C7.78192 6.56202 7.70301 6.75253 7.70301 6.95119C7.70301 7.14985 7.78192 7.34038 7.9224 7.48085L9.68578 9.23568H3.81639C3.61774 9.23568 3.42723 9.31459 3.28676 9.45506C3.1463 9.59553 3.06738 9.78604 3.06738 9.98469C3.06738 10.1833 3.1463 10.3738 3.28676 10.5143C3.42723 10.6548 3.61774 10.7337 3.81639 10.7337H9.68578L7.91526 12.5042C7.77489 12.645 7.69617 12.8357 7.69644 13.0345C7.6967 13.2333 7.77593 13.4239 7.91669 13.5642C8.05745 13.7046 8.24821 13.7833 8.447 13.7831C8.6458 13.7828 8.83634 13.7036 8.97672 13.5628L12.0263 10.514C12.0427 10.4969 12.0584 10.4797 12.0733 10.4619L12.094 10.4348Z" fill="#828282"/>
</svg>
