<svg width="100" height="100" viewBox="0 0 100 100" fill="none" xmlns="http://www.w3.org/2000/svg">
<path d="M10.25 45.6667H39.4167C41.0743 45.6667 42.664 45.0082 43.8361 43.8361C45.0082 42.664 45.6667 41.0743 45.6667 39.4167V10.25C45.6667 8.5924 45.0082 7.00269 43.8361 5.83058C42.664 4.65848 41.0743 4 39.4167 4H10.25C8.5924 4 7.00269 4.65848 5.83058 5.83058C4.65848 7.00269 4 8.5924 4 10.25V39.4167C4 41.0743 4.65848 42.664 5.83058 43.8361C7.00269 45.0082 8.5924 45.6667 10.25 45.6667ZM8.16667 10.25C8.16667 9.69747 8.38616 9.16756 8.77686 8.77686C9.16756 8.38616 9.69747 8.16667 10.25 8.16667H39.4167C39.9692 8.16667 40.4991 8.38616 40.8898 8.77686C41.2805 9.16756 41.5 9.69747 41.5 10.25V39.4167C41.5 39.9692 41.2805 40.4991 40.8898 40.8898C40.4991 41.2805 39.9692 41.5 39.4167 41.5H10.25C9.69747 41.5 9.16756 41.2805 8.77686 40.8898C8.38616 40.4991 8.16667 39.9692 8.16667 39.4167V10.25ZM89.4167 54H60.25C58.5924 54 57.0027 54.6585 55.8306 55.8306C54.6585 57.0027 54 58.5924 54 60.25V89.4167C54 91.0743 54.6585 92.664 55.8306 93.8361C57.0027 95.0082 58.5924 95.6667 60.25 95.6667H89.4167C91.0743 95.6667 92.664 95.0082 93.8361 93.8361C95.0082 92.664 95.6667 91.0743 95.6667 89.4167V60.25C95.6667 58.5924 95.0082 57.0027 93.8361 55.8306C92.664 54.6585 91.0743 54 89.4167 54ZM91.5 89.4167C91.5 89.9692 91.2805 90.4991 90.8898 90.8898C90.4991 91.2805 89.9692 91.5 89.4167 91.5H60.25C59.6975 91.5 59.1676 91.2805 58.7769 90.8898C58.3862 90.4991 58.1667 89.9692 58.1667 89.4167V60.25C58.1667 59.6975 58.3862 59.1676 58.7769 58.7769C59.1676 58.3862 59.6975 58.1667 60.25 58.1667H89.4167C89.9692 58.1667 90.4991 58.3862 90.8898 58.7769C91.2805 59.1676 91.5 59.6975 91.5 60.25V89.4167ZM39.4167 95.6667C41.0743 95.6667 42.664 95.0082 43.8361 93.8361C45.0082 92.664 45.6667 91.0743 45.6667 89.4167V60.25C45.6667 58.5924 45.0082 57.0027 43.8361 55.8306C42.664 54.6585 41.0743 54 39.4167 54H10.25C8.5924 54 7.00269 54.6585 5.83058 55.8306C4.65848 57.0027 4 58.5924 4 60.25V89.4167C4 91.0743 4.65848 92.664 5.83058 93.8361C7.00269 95.0082 8.5924 95.6667 10.25 95.6667H39.4167ZM8.16667 89.4167V60.25C8.16667 59.6975 8.38616 59.1676 8.77686 58.7769C9.16756 58.3862 9.69747 58.1667 10.25 58.1667H39.4167C39.9692 58.1667 40.4991 58.3862 40.8898 58.7769C41.2805 59.1676 41.5 59.6975 41.5 60.25V89.4167C41.5 89.9692 41.2805 90.4991 40.8898 90.8898C40.4991 91.2805 39.9692 91.5 39.4167 91.5H10.25C9.69747 91.5 9.16756 91.2805 8.77686 90.8898C8.38616 90.4991 8.16667 89.9692 8.16667 89.4167ZM89.4167 4H60.25C58.5924 4 57.0027 4.65848 55.8306 5.83058C54.6585 7.00269 54 8.5924 54 10.25V39.4167C54 41.0743 54.6585 42.664 55.8306 43.8361C57.0027 45.0082 58.5924 45.6667 60.25 45.6667H89.4167C91.0743 45.6667 92.664 45.0082 93.8361 43.8361C95.0082 42.664 95.6667 41.0743 95.6667 39.4167V10.25C95.6667 8.5924 95.0082 7.00269 93.8361 5.83058C92.664 4.65848 91.0743 4 89.4167 4ZM91.5 39.4167C91.5 39.9692 91.2805 40.4991 90.8898 40.8898C90.4991 41.2805 89.9692 41.5 89.4167 41.5H60.25C59.6975 41.5 59.1676 41.2805 58.7769 40.8898C58.3862 40.4991 58.1667 39.9692 58.1667 39.4167V10.25C58.1667 9.69747 58.3862 9.16756 58.7769 8.77686C59.1676 8.38616 59.6975 8.16667 60.25 8.16667H89.4167C89.9692 8.16667 90.4991 8.38616 90.8898 8.77686C91.2805 9.16756 91.5 9.69747 91.5 10.25V39.4167Z" fill="#9C7DF6"/>
<path d="M14.4166 26.9167H35.2499C35.8025 26.9167 36.3324 26.6972 36.7231 26.3065C37.1138 25.9158 37.3333 25.3859 37.3333 24.8334C37.3333 24.2808 37.1138 23.7509 36.7231 23.3602C36.3324 22.9695 35.8025 22.75 35.2499 22.75H14.4166C13.8641 22.75 13.3341 22.9695 12.9434 23.3602C12.5527 23.7509 12.3333 24.2808 12.3333 24.8334C12.3333 25.3859 12.5527 25.9158 12.9434 26.3065C13.3341 26.6972 13.8641 26.9167 14.4166 26.9167ZM85.2499 72.75H64.4166C63.864 72.75 63.3341 72.9695 62.9434 73.3602C62.5527 73.7509 62.3333 74.2808 62.3333 74.8334C62.3333 75.3859 62.5527 75.9158 62.9434 76.3065C63.3341 76.6972 63.864 76.9167 64.4166 76.9167H85.2499C85.8025 76.9167 86.3324 76.6972 86.7231 76.3065C87.1138 75.9158 87.3332 75.3859 87.3332 74.8334C87.3332 74.2808 87.1138 73.7509 86.7231 73.3602C86.3324 72.9695 85.8025 72.75 85.2499 72.75ZM85.2499 22.75H76.9166V14.4167C76.9166 13.8642 76.6971 13.3343 76.3064 12.9436C75.9157 12.5529 75.3858 12.3334 74.8332 12.3334C74.2807 12.3334 73.7508 12.5529 73.3601 12.9436C72.9694 13.3343 72.7499 13.8642 72.7499 14.4167V22.75H64.4166C63.864 22.75 63.3341 22.9695 62.9434 23.3602C62.5527 23.7509 62.3333 24.2808 62.3333 24.8334C62.3333 25.3859 62.5527 25.9158 62.9434 26.3065C63.3341 26.6972 63.864 26.9167 64.4166 26.9167H72.7499V35.25C72.7499 35.8026 72.9694 36.3325 73.3601 36.7232C73.7508 37.1139 74.2807 37.3334 74.8332 37.3334C75.3858 37.3334 75.9157 37.1139 76.3064 36.7232C76.6971 36.3325 76.9166 35.8026 76.9166 35.25V26.9167H85.2499C85.8025 26.9167 86.3324 26.6972 86.7231 26.3065C87.1138 25.9158 87.3332 25.3859 87.3332 24.8334C87.3332 24.2808 87.1138 23.7509 86.7231 23.3602C86.3324 22.9695 85.8025 22.75 85.2499 22.75ZM15.9999 83.6667C16.3903 84.0547 16.9183 84.2725 17.4687 84.2725C18.0191 84.2725 18.5471 84.0547 18.9374 83.6667L24.8333 77.7709L30.7291 83.6667C31.1194 84.0547 31.6474 84.2725 32.1978 84.2725C32.7482 84.2725 33.2762 84.0547 33.6666 83.6667C34.0546 83.2764 34.2724 82.7483 34.2724 82.198C34.2724 81.6476 34.0546 81.1196 33.6666 80.7292L27.7708 74.8334L33.6666 68.9375C34.0079 68.539 34.1862 68.0263 34.166 67.502C34.1457 66.9777 33.9284 66.4803 33.5573 66.1093C33.1863 65.7383 32.6889 65.5209 32.1646 65.5006C31.6403 65.4804 31.1276 65.6587 30.7291 66L24.8333 71.8959L18.9374 66C18.5389 65.6587 18.0262 65.4804 17.5019 65.5006C16.9776 65.5209 16.4802 65.7383 16.1092 66.1093C15.7381 66.4803 15.5208 66.9777 15.5005 67.502C15.4803 68.0263 15.6586 68.539 15.9999 68.9375L21.8958 74.8334L15.9999 80.7292C15.6119 81.1196 15.3941 81.6476 15.3941 82.198C15.3941 82.7483 15.6119 83.2764 15.9999 83.6667ZM74.8332 68.5834C75.3858 68.5834 75.9157 68.3639 76.3064 67.9732C76.6971 67.5825 76.9166 67.0526 76.9166 66.5C76.9166 65.9475 76.6971 65.4176 76.3064 65.0269C75.9157 64.6362 75.3858 64.4167 74.8332 64.4167C74.2807 64.4167 73.7508 64.6362 73.3601 65.0269C72.9694 65.4176 72.7499 65.9475 72.7499 66.5C72.7499 67.0526 72.9694 67.5825 73.3601 67.9732C73.7508 68.3639 74.2807 68.5834 74.8332 68.5834ZM74.8332 81.0834C74.4212 81.0834 74.0184 81.2056 73.6758 81.4345C73.3332 81.6634 73.0662 81.9888 72.9085 82.3695C72.7508 82.7501 72.7096 83.169 72.7899 83.5732C72.8703 83.9773 73.0687 84.3485 73.3601 84.6399C73.6515 84.9312 74.0227 85.1296 74.4268 85.21C74.8309 85.2904 75.2498 85.2491 75.6305 85.0915C76.0112 84.9338 76.3366 84.6668 76.5655 84.3241C76.7944 83.9815 76.9166 83.5788 76.9166 83.1667C76.9166 82.6142 76.6971 82.0843 76.3064 81.6936C75.9157 81.3029 75.3858 81.0834 74.8332 81.0834Z" fill="#9C7DF6"/>
</svg>
