<svg width="70" height="71" viewBox="0 0 70 71" fill="none" xmlns="http://www.w3.org/2000/svg">
<mask id="mask0_492_5976" style="mask-type:alpha" maskUnits="userSpaceOnUse" x="0" y="0" width="70" height="71">
<rect y="0.5" width="70" height="70" fill="#D9D9D9"/>
</mask>
<g mask="url(#mask0_492_5976)">
<path d="M44.9342 32.0224C45.9955 32.0224 46.8954 31.6509 47.634 30.908C48.3725 30.1651 48.7417 29.263 48.7417 28.2017C48.7417 27.1404 48.3703 26.2405 47.6273 25.502C46.8844 24.7635 45.9823 24.3943 44.921 24.3943C43.8597 24.3943 42.9599 24.7658 42.2214 25.5087C41.4828 26.2516 41.1135 27.1537 41.1135 28.215C41.1135 29.2763 41.485 30.1761 42.2279 30.9146C42.9708 31.6531 43.873 32.0224 44.9342 32.0224ZM25.0785 32.0224C26.1398 32.0224 27.0397 31.6509 27.7782 30.908C28.5167 30.1651 28.886 29.263 28.886 28.2017C28.886 27.1404 28.5145 26.2405 27.7716 25.502C27.0287 24.7635 26.1266 24.3943 25.0653 24.3943C24.004 24.3943 23.1041 24.7658 22.3656 25.5087C21.6271 26.2516 21.2578 27.1537 21.2578 28.215C21.2578 29.2763 21.6293 30.1761 22.3722 30.9146C23.1151 31.6531 24.0172 32.0224 25.0785 32.0224ZM34.9998 39.875C31.956 39.875 29.1739 40.7266 26.6537 42.4299C24.1334 44.1331 22.2749 46.3851 21.0784 49.1858H48.9212C47.7246 46.3851 45.8662 44.1331 43.3459 42.4299C40.8256 40.7266 38.0435 39.875 34.9998 39.875ZM35.0046 63.2083C31.1723 63.2083 27.5702 62.481 24.1981 61.0266C20.826 59.5722 17.8928 57.5983 15.3984 55.105C12.9039 52.6117 10.9292 49.6798 9.47412 46.3092C8.01904 42.9386 7.2915 39.3372 7.2915 35.5049C7.2915 31.6726 8.01873 28.0704 9.47317 24.6984C10.9276 21.3262 12.9015 18.393 15.3947 15.8986C17.888 13.4042 20.82 11.4294 24.1906 9.97437C27.5611 8.51929 31.1626 7.79175 34.9949 7.79175C38.8272 7.79175 42.4294 8.51897 45.8014 9.97342C49.1735 11.4279 52.1068 13.4017 54.6012 15.895C57.0956 18.3883 59.0703 21.3202 60.5254 24.6908C61.9805 28.0614 62.708 31.6628 62.708 35.4951C62.708 39.3274 61.9808 42.9296 60.5264 46.3017C59.0719 49.6738 57.0981 52.607 54.6048 55.1014C52.1115 57.5958 49.1795 59.5706 45.8089 61.0257C42.4384 62.4807 38.837 63.2083 35.0046 63.2083ZM34.9998 58.8333C41.5137 58.8333 47.031 56.5729 51.5519 52.0521C56.0727 47.5313 58.3331 42.0139 58.3331 35.5C58.3331 28.9861 56.0727 23.4688 51.5519 18.9479C47.031 14.4271 41.5137 12.1667 34.9998 12.1667C28.4859 12.1667 22.9685 14.4271 18.4477 18.9479C13.9268 23.4688 11.6664 28.9861 11.6664 35.5C11.6664 42.0139 13.9268 47.5313 18.4477 52.0521C22.9685 56.5729 28.4859 58.8333 34.9998 58.8333Z" fill="#FE7C11"/>
</g>
</svg>
