<svg width="70" height="70" viewBox="0 0 70 70" fill="none" xmlns="http://www.w3.org/2000/svg">
<mask id="mask0_492_5851" style="mask-type:alpha" maskUnits="userSpaceOnUse" x="0" y="0" width="70" height="70">
<rect width="70" height="70" fill="#D9D9D9"/>
</mask>
<g mask="url(#mask0_492_5851)">
<path d="M44.9345 31.5223C45.9958 31.5223 46.8957 31.1508 47.6342 30.4079C48.3727 29.665 48.742 28.7629 48.742 27.7016C48.742 26.6403 48.3705 25.7405 47.6276 25.002C46.8846 24.2635 45.9825 23.8942 44.9213 23.8942C43.86 23.8942 42.9601 24.2657 42.2216 25.0086C41.4831 25.7515 41.1138 26.6536 41.1138 27.7149C41.1138 28.7762 41.4852 29.6761 42.2282 30.4146C42.9711 31.1531 43.8732 31.5223 44.9345 31.5223ZM25.0787 31.5223C26.14 31.5223 27.0399 31.1508 27.7784 30.4079C28.517 29.665 28.8862 28.7629 28.8862 27.7016C28.8862 26.6403 28.5148 25.7405 27.7719 25.002C27.0289 24.2635 26.1268 23.8942 25.0656 23.8942C24.0043 23.8942 23.1044 24.2657 22.3658 25.0086C21.6273 25.7515 21.2581 26.6536 21.2581 27.7149C21.2581 28.7762 21.6295 29.6761 22.3724 30.4146C23.1154 31.1531 24.0175 31.5223 25.0787 31.5223ZM35 50.1441C38.0438 50.1441 40.8258 49.2924 43.3461 47.5892C45.8664 45.886 47.7248 43.634 48.9214 40.8333H21.0786C22.2752 43.634 24.1336 45.886 26.6539 47.5892C29.1742 49.2924 31.9562 50.1441 35 50.1441ZM35.0049 62.7082C31.1726 62.7082 27.5704 61.981 24.1984 60.5265C20.8262 59.0721 17.893 57.0982 15.3986 54.605C12.9042 52.1116 10.9294 49.1797 9.47436 45.8091C8.01929 42.4385 7.29175 38.8371 7.29175 35.0048C7.29175 31.1725 8.01897 27.5703 9.47342 24.1983C10.9279 20.8262 12.9017 17.8929 15.395 15.3985C17.8883 12.9041 20.8202 10.9294 24.1908 9.47427C27.5614 8.0192 31.1628 7.29166 34.9951 7.29166C38.8274 7.29166 42.4296 8.01888 45.8017 9.47333C49.1738 10.9278 52.107 12.9016 54.6014 15.3949C57.0958 17.8882 59.0706 20.8202 60.5257 24.1908C61.9807 27.5613 62.7083 31.1627 62.7083 34.995C62.7083 38.8273 61.981 42.4295 60.5266 45.8016C59.0722 49.1737 57.0983 52.1069 54.605 54.6013C52.1117 57.0957 49.1798 59.0705 45.8092 60.5256C42.4386 61.9806 38.8372 62.7082 35.0049 62.7082ZM35 58.3333C41.5139 58.3333 47.0313 56.0728 51.5521 51.552C56.0729 47.0312 58.3333 41.5138 58.3333 34.9999C58.3333 28.486 56.0729 22.9687 51.5521 18.4478C47.0313 13.927 41.5139 11.6666 35 11.6666C28.4861 11.6666 22.9688 13.927 18.4479 18.4478C13.9271 22.9687 11.6667 28.486 11.6667 34.9999C11.6667 41.5138 13.9271 47.0312 18.4479 51.552C22.9688 56.0728 28.4861 58.3333 35 58.3333Z" fill="#FE7C11"/>
</g>
</svg>
