<svg width="20" height="20" viewBox="0 0 20 20" fill="none" xmlns="http://www.w3.org/2000/svg">
<path d="M9.63088 3.10577C9.44472 3.10577 9.26618 3.03182 9.13454 2.90018C9.00291 2.76854 8.92896 2.59001 8.92896 2.40385V1.70192C8.92896 1.51576 9.00291 1.33722 9.13454 1.20559C9.26618 1.07395 9.44472 1 9.63088 1C9.81704 1 9.99558 1.07395 10.1272 1.20559C10.2588 1.33722 10.3328 1.51576 10.3328 1.70192V2.40385C10.3328 2.59001 10.2588 2.76854 10.1272 2.90018C9.99558 3.03182 9.81704 3.10577 9.63088 3.10577Z" fill="#828282"/>
<path d="M15.7572 9.23139C15.571 9.23139 15.3925 9.15744 15.2608 9.02581C15.1292 8.89417 15.0552 8.71563 15.0552 8.52947C15.0552 5.67686 12.7389 3.2461 9.89189 3.11133C7.04138 2.97972 4.50007 5.17498 4.23158 8.0111C4.21534 8.18341 4.20725 8.3564 4.20736 8.52947C4.20736 8.71563 4.13341 8.89417 4.00178 9.02581C3.87014 9.15744 3.6916 9.23139 3.50544 9.23139C3.31928 9.23139 3.14074 9.15744 3.00911 9.02581C2.87747 8.89417 2.80352 8.71563 2.80352 8.52947C2.80352 8.31047 2.8137 8.09147 2.83405 7.87879C3.17203 4.3074 6.37174 1.54042 9.95822 1.70924C13.5429 1.87875 16.4591 4.93843 16.4591 8.52947C16.4591 8.71563 16.3851 8.89417 16.2535 9.02581C16.1219 9.15744 15.9433 9.23139 15.7572 9.23139ZM17.0729 14.0189C16.8934 14.0189 16.7207 13.9502 16.5903 13.8269C16.1063 13.3669 15.7206 12.8136 15.4567 12.2002C15.1928 11.5869 15.0561 10.9264 15.0549 10.2587C15.0549 10.0725 15.1288 9.89396 15.2605 9.76232C15.3921 9.63069 15.5706 9.55674 15.7568 9.55674C15.943 9.55674 16.1215 9.63069 16.2531 9.76232C16.3848 9.89396 16.4587 10.0725 16.4587 10.2587C16.4595 10.7356 16.5572 11.2074 16.7457 11.6455C16.9342 12.0836 17.2097 12.4789 17.5555 12.8073C17.6573 12.904 17.7277 13.0289 17.7578 13.166C17.7879 13.3031 17.7763 13.4461 17.7243 13.5765C17.6724 13.7069 17.5826 13.8187 17.4665 13.8975C17.3503 13.9764 17.2133 14.0187 17.0729 14.0189ZM2.18934 14.0189C2.0489 14.0188 1.9117 13.9767 1.79548 13.8979C1.67925 13.819 1.58934 13.7071 1.53738 13.5767C1.48541 13.4462 1.47377 13.3032 1.50397 13.166C1.53416 13.0289 1.60481 12.9039 1.70676 12.8073C2.05258 12.4789 2.3281 12.0836 2.51662 11.6455C2.70514 11.2074 2.80275 10.7356 2.80352 10.2587C2.80352 10.0725 2.87747 9.89396 3.00911 9.76232C3.14074 9.63069 3.31928 9.55674 3.50544 9.55674C3.6916 9.55674 3.87014 9.63069 4.00178 9.76232C4.13341 9.89396 4.20736 10.0725 4.20736 10.2587C4.20736 11.6032 3.64758 12.9039 2.67191 13.8269C2.54149 13.9502 2.36881 14.0189 2.18934 14.0189ZM9.63147 19.2496C7.72926 19.2496 6.12186 17.6422 6.12186 15.74C6.12186 15.5538 6.19581 15.3753 6.32745 15.2436C6.45908 15.112 6.63762 15.0381 6.82378 15.0381C7.00994 15.0381 7.18848 15.112 7.32012 15.2436C7.45175 15.3753 7.52571 15.5538 7.52571 15.74C7.52571 16.8813 8.49015 17.8457 9.63147 17.8457C10.7728 17.8457 11.7372 16.8813 11.7372 15.74C11.7372 15.5538 11.8112 15.3753 11.9428 15.2436C12.0745 15.112 12.253 15.0381 12.4392 15.0381C12.6253 15.0381 12.8039 15.112 12.9355 15.2436C13.0671 15.3753 13.1411 15.5538 13.1411 15.74C13.1411 17.6422 11.5337 19.2496 9.63147 19.2496Z" fill="#828282"/>
<path d="M3.15395 16.4425C2.29865 16.4425 1.53777 15.9195 1.21524 15.1102C0.892352 14.2999 1.08503 13.3961 1.70623 12.8079C1.84143 12.6799 2.02195 12.6108 2.20809 12.6159C2.39422 12.6209 2.57072 12.6997 2.69875 12.8349C2.82678 12.9701 2.89586 13.1507 2.8908 13.3368C2.88573 13.5229 2.80693 13.6994 2.67173 13.8275C2.36428 14.1188 2.47729 14.4855 2.51941 14.5908C2.56117 14.6954 2.73069 15.0386 3.15395 15.0386C3.34011 15.0386 3.51865 15.1126 3.65028 15.2442C3.78192 15.3759 3.85587 15.5544 3.85587 15.7406C3.85587 15.9267 3.78192 16.1053 3.65028 16.2369C3.51865 16.3685 3.34011 16.4425 3.15395 16.4425ZM16.1079 16.4425C15.9218 16.4425 15.7432 16.3685 15.6116 16.2369C15.48 16.1053 15.406 15.9267 15.406 15.7406C15.406 15.5544 15.48 15.3759 15.6116 15.2442C15.7432 15.1126 15.9218 15.0386 16.1079 15.0386C16.5315 15.0386 16.7014 14.694 16.7435 14.5883C16.7853 14.4834 16.898 14.1181 16.5905 13.8271C16.4603 13.698 16.3857 13.523 16.3828 13.3396C16.3798 13.1562 16.4488 12.9789 16.5749 12.8457C16.7009 12.7125 16.8741 12.6338 17.0574 12.6267C17.2407 12.6195 17.4195 12.6843 17.5557 12.8072C18.1769 13.3954 18.3699 14.2985 18.0477 15.1074C17.7248 15.9185 16.9632 16.4425 16.1079 16.4425ZM3.50491 10.9608C3.31875 10.9608 3.14021 10.8869 3.00858 10.7552C2.87694 10.6236 2.80299 10.445 2.80299 10.2589V8.53005C2.80299 8.34389 2.87694 8.16535 3.00858 8.03371C3.14021 7.90208 3.31875 7.82812 3.50491 7.82812C3.69107 7.82812 3.86961 7.90208 4.00124 8.03371C4.13288 8.16535 4.20683 8.34389 4.20683 8.53005V10.2589C4.20683 10.445 4.13288 10.6236 4.00124 10.7552C3.86961 10.8869 3.69107 10.9608 3.50491 10.9608ZM15.757 10.9608C15.5708 10.9608 15.3923 10.8869 15.2606 10.7552C15.129 10.6236 15.0551 10.445 15.0551 10.2589V8.53005C15.0551 8.34389 15.129 8.16535 15.2606 8.03371C15.3923 7.90208 15.5708 7.82812 15.757 7.82812C15.9431 7.82812 16.1217 7.90208 16.2533 8.03371C16.3849 8.16535 16.4589 8.34389 16.4589 8.53005V10.2589C16.4589 10.445 16.3849 10.6236 16.2533 10.7552C16.1217 10.8869 15.9431 10.9608 15.757 10.9608Z" fill="#828282"/>
<path d="M16.1083 16.4419H3.15432C2.96815 16.4419 2.78962 16.368 2.65798 16.2363C2.52635 16.1047 2.45239 15.9262 2.45239 15.74C2.45239 15.5538 2.52635 15.3753 2.65798 15.2437C2.78962 15.112 2.96815 15.0381 3.15432 15.0381H16.108C16.2941 15.038 16.4727 15.1119 16.6043 15.2436C16.736 15.3752 16.81 15.5537 16.8101 15.7398C16.8101 15.926 16.7362 16.1046 16.6046 16.2362C16.473 16.3679 16.2945 16.4419 16.1083 16.4419Z" fill="#828282"/>
</svg>
