<svg width="20" height="20" viewBox="0 0 20 20" fill="none" xmlns="http://www.w3.org/2000/svg">
<path d="M14.992 1.69706L5.84801 10.8411C5.49877 11.1884 5.2219 11.6016 5.03343 12.0567C4.84495 12.5118 4.74862 12.9997 4.75001 13.4923V14.4995C4.75001 14.6985 4.82903 14.8892 4.96968 15.0299C5.11034 15.1705 5.3011 15.2495 5.50001 15.2495H6.50726C6.99983 15.2509 7.48779 15.1546 7.94288 14.9661C8.39797 14.7777 8.81115 14.5008 9.15851 14.1515L18.3025 5.00756C18.7408 4.56819 18.9869 3.97292 18.9869 3.35231C18.9869 2.73171 18.7408 2.13644 18.3025 1.69706C17.8568 1.27099 17.2639 1.0332 16.6472 1.0332C16.0306 1.0332 15.4377 1.27099 14.992 1.69706ZM17.242 3.94706L8.09801 13.091C7.6751 13.5114 7.10352 13.748 6.50726 13.7495H6.25001V13.4923C6.25158 12.896 6.48819 12.3245 6.90851 11.9015L16.0525 2.75756C16.2127 2.60453 16.4257 2.51913 16.6472 2.51913C16.8688 2.51913 17.0818 2.60453 17.242 2.75756C17.3995 2.91545 17.4879 3.12933 17.4879 3.35231C17.4879 3.57529 17.3995 3.78918 17.242 3.94706Z" fill="#828282"/>
<path d="M18.25 7.73424C18.0511 7.73424 17.8603 7.81326 17.7196 7.95391C17.579 8.09456 17.5 8.28533 17.5 8.48424V12.25H14.5C13.9032 12.25 13.3309 12.487 12.909 12.909C12.487 13.3309 12.25 13.9032 12.25 14.5V17.5H4.74999C4.15326 17.5 3.58096 17.2629 3.15901 16.841C2.73705 16.419 2.5 15.8467 2.5 15.25V4.74999C2.5 4.15326 2.73705 3.58096 3.15901 3.15901C3.58096 2.73705 4.15326 2.5 4.74999 2.5H11.5315C11.7304 2.5 11.9212 2.42098 12.0618 2.28033C12.2025 2.13968 12.2815 1.94891 12.2815 1.75C12.2815 1.55109 12.2025 1.36032 12.0618 1.21967C11.9212 1.07902 11.7304 1 11.5315 1H4.74999C3.7558 1.00119 2.80267 1.39666 2.09966 2.09966C1.39666 2.80267 1.00119 3.7558 1 4.74999L1 15.25C1.00119 16.2442 1.39666 17.1973 2.09966 17.9003C2.80267 18.6033 3.7558 18.9988 4.74999 19H13.2572C13.7499 19.0014 14.238 18.9051 14.6932 18.7166C15.1484 18.5281 15.5617 18.2512 15.9092 17.902L17.9012 15.9085C18.2505 15.5611 18.5275 15.148 18.7161 14.6929C18.9047 14.2378 19.0012 13.7498 19 13.2572V8.48424C19 8.28533 18.921 8.09456 18.7803 7.95391C18.6397 7.81326 18.4489 7.73424 18.25 7.73424ZM14.8487 16.8415C14.5472 17.1422 14.166 17.3504 13.75 17.4415V14.5C13.75 14.3011 13.829 14.1103 13.9696 13.9696C14.1103 13.829 14.3011 13.75 14.5 13.75H17.4437C17.3509 14.1651 17.143 14.5457 16.8437 14.848L14.8487 16.8415Z" fill="#828282"/>
</svg>
