<svg width="20" height="20" viewBox="0 0 20 20" fill="none" xmlns="http://www.w3.org/2000/svg">

<path d="M16.1922 17.0352C14.5715 17.0352 12.9665 16.6505 11.3773 15.8813C9.78809 15.1121 8.3693 14.1033 7.12091 12.8549C5.87251 11.6065 4.86236 10.189 4.09047 8.6025C3.31857 7.01597 2.93262 5.41235 2.93262 3.79163C2.93262 3.54163 3.01595 3.33329 3.18262 3.16663C3.34928 2.99996 3.55762 2.91663 3.80762 2.91663H6.52551C6.74133 2.91663 6.92964 2.98313 7.09043 3.11615C7.25121 3.24916 7.35083 3.4209 7.3893 3.63138L7.86687 6.08327C7.89998 6.2884 7.89651 6.47483 7.85645 6.64256C7.81638 6.8103 7.72851 6.95667 7.59283 7.08167L5.67616 8.95506C6.33428 10.0726 7.11901 11.0822 8.03035 11.9839C8.94167 12.8856 9.97319 13.672 11.1249 14.3429L12.9871 12.4487C13.1228 12.313 13.2833 12.2166 13.4686 12.1594C13.654 12.1023 13.8439 12.0902 14.0383 12.1234L16.3524 12.5945C16.5629 12.6415 16.7346 12.7433 16.8676 12.8998C17.0007 13.0563 17.0672 13.2425 17.0672 13.4583V16.1602C17.0672 16.4102 16.9838 16.6185 16.8172 16.7852C16.6505 16.9518 16.4422 17.0352 16.1922 17.0352ZM5.07683 7.7724L6.56401 6.34931C6.59072 6.32794 6.60808 6.29856 6.6161 6.26117C6.62411 6.22377 6.62277 6.18904 6.61208 6.157L6.24991 4.29481C6.23921 4.25208 6.22051 4.22003 6.1938 4.19867C6.1671 4.17729 6.13237 4.16661 6.08964 4.16661H4.3076C4.27554 4.16661 4.24883 4.17729 4.22745 4.19867C4.20609 4.22003 4.19541 4.24674 4.19541 4.27879C4.23813 4.84824 4.33135 5.42676 4.47505 6.01438C4.61875 6.60199 4.81934 7.18799 5.07683 7.7724ZM12.2947 14.9262C12.8471 15.1837 13.4232 15.3805 14.0231 15.5168C14.623 15.653 15.1836 15.7339 15.705 15.7595C15.7371 15.7595 15.7638 15.7489 15.7851 15.7275C15.8065 15.7061 15.8172 15.6794 15.8172 15.6474V13.8942C15.8172 13.8514 15.8065 13.8167 15.7851 13.79C15.7638 13.7633 15.7317 13.7446 15.689 13.7339L13.939 13.3781C13.9069 13.3674 13.8789 13.3661 13.8548 13.3741C13.8308 13.3821 13.8054 13.3995 13.7787 13.4262L12.2947 14.9262Z" fill="#828282"/>
 
</svg>
