<svg width="20" height="20" viewBox="0 0 20 20" fill="none" xmlns="http://www.w3.org/2000/svg">
<path d="M7.75 13.9375L14.05 10L7.75 6.0625V13.9375ZM2.8 17C2.305 17 1.88125 16.8286 1.52875 16.4859C1.17625 16.1432 1 15.7312 1 15.25V4.75C1 4.26875 1.17625 3.85677 1.52875 3.51406C1.88125 3.17135 2.305 3 2.8 3H17.2C17.695 3 18.1187 3.17135 18.4713 3.51406C18.8238 3.85677 19 4.26875 19 4.75V15.25C19 15.7312 18.8238 16.1432 18.4713 16.4859C18.1187 16.8286 17.695 17 17.2 17H2.8ZM2.3 15C2.3 15.4142 2.63579 15.75 3.05 15.75H16.95C17.3642 15.75 17.7 15.4142 17.7 15V5C17.7 4.58579 17.3642 4.25 16.95 4.25H3.05C2.63579 4.25 2.3 4.58579 2.3 5V15Z" fill="#828282"/>
</svg>
