<svg width="20" height="20" viewBox="0 0 20 20" fill="none" xmlns="http://www.w3.org/2000/svg">
 
<path fill-rule="evenodd" clip-rule="evenodd" d="M19.0318 9.3165C19.4098 9.3165 19.7161 9.62286 19.7161 10.0008C19.7161 10.3787 19.4098 10.6851 19.0318 10.6851L10.6842 10.6851L10.6842 19.033C10.6842 19.411 10.3779 19.7173 9.99993 19.7173C9.62201 19.7173 9.31565 19.411 9.31565 19.033V10.6851L0.967673 10.6851C0.589754 10.6851 0.283389 10.3787 0.283389 10.0008C0.283389 9.62286 0.589753 9.3165 0.967673 9.3165L9.31565 9.3165L9.31565 0.968877C9.31565 0.590957 9.62201 0.284593 9.99993 0.284593C10.3779 0.284593 10.6842 0.590957 10.6842 0.968877L10.6842 9.3165L19.0318 9.3165Z" fill="#828282"/>
 
 
</svg>
