<svg width="20" height="20" viewBox="0 0 20 20" fill="none" xmlns="http://www.w3.org/2000/svg">

 
<path d="M15.3438 14.5H16.3633C17.5284 14.5 18.4727 13.5557 18.4727 12.3906V8.17186C18.4727 7.00677 17.5284 6.06247 16.3633 6.06247H3.63673C2.47164 6.06247 1.52734 7.00677 1.52734 8.17186V12.3906C1.52734 13.5557 2.47164 14.5 3.63673 14.5H4.65626" stroke="#828282" stroke-width="1.25" stroke-miterlimit="10" stroke-linecap="round" stroke-linejoin="round"/>
<path d="M16.1875 11.6875H3.8125" stroke="#828282" stroke-width="1.25" stroke-miterlimit="10" stroke-linecap="round" stroke-linejoin="round"/>
<path d="M5.71094 18.4727H14.2891C14.8716 18.4727 15.3438 18.0004 15.3438 17.418V11.6875H4.65625V17.418C4.65625 18.0004 5.12847 18.4727 5.71094 18.4727Z" stroke="#828282" stroke-width="1.25" stroke-miterlimit="10" stroke-linecap="round" stroke-linejoin="round"/>
<path d="M11.4063 13.9375H8.59375" stroke="#828282" stroke-width="1.25" stroke-miterlimit="10" stroke-linecap="round" stroke-linejoin="round"/>
<path d="M11.4063 16.1875H8.59375" stroke="#828282" stroke-width="1.25" stroke-miterlimit="10" stroke-linecap="round" stroke-linejoin="round"/>
<path d="M5.50001 8.3125H3.8125" stroke="#828282" stroke-width="1.25" stroke-miterlimit="10" stroke-linecap="round" stroke-linejoin="round"/>
<path d="M6.76563 1.52733H13.2344C14.3994 1.52733 15.3438 2.47173 15.3438 3.63671V6.0625H4.65625V3.63671C4.65625 2.47173 5.60066 1.52733 6.76563 1.52733Z" stroke="#828282" stroke-width="1.25" stroke-miterlimit="10" stroke-linecap="round" stroke-linejoin="round"/>
 
</svg>
