<svg width="20" height="20" viewBox="0 0 20 20" fill="none" xmlns="http://www.w3.org/2000/svg">

 
<path d="M9.9999 13.75C11.0405 13.75 11.9256 13.3852 12.6553 12.6555C13.385 11.9258 13.7499 11.0406 13.7499 10C13.7499 8.95944 13.385 8.07429 12.6553 7.34458C11.9256 6.61489 11.0405 6.25004 9.9999 6.25004C8.95931 6.25004 8.07417 6.61489 7.34446 7.34458C6.61477 8.07429 6.24992 8.95944 6.24992 10C6.24992 11.0406 6.61477 11.9258 7.34446 12.6555C8.07417 13.3852 8.95931 13.75 9.9999 13.75ZM10.0013 17.9167C8.90635 17.9167 7.87716 17.7089 6.91371 17.2933C5.95025 16.8778 5.11218 16.3138 4.3995 15.6015C3.68681 14.8891 3.12259 14.0514 2.70686 13.0884C2.29112 12.1253 2.08325 11.0964 2.08325 10.0014C2.08325 8.90647 2.29103 7.87728 2.70659 6.91383C3.12214 5.95037 3.6861 5.11231 4.39846 4.39963C5.11084 3.68693 5.94854 3.12272 6.91156 2.70698C7.87458 2.29124 8.90356 2.08337 9.9985 2.08337C11.0934 2.08337 12.1226 2.29115 13.0861 2.70671C14.0495 3.12226 14.8876 3.68622 15.6003 4.39858C16.313 5.11096 16.8772 5.94866 17.2929 6.91169C17.7087 7.8747 17.9165 8.90368 17.9165 9.99863C17.9165 11.0936 17.7088 12.1228 17.2932 13.0862C16.8777 14.0497 16.3137 14.8877 15.6013 15.6004C14.889 16.3131 14.0513 16.8773 13.0882 17.2931C12.1252 17.7088 11.0962 17.9167 10.0013 17.9167ZM9.9999 16.6667C11.861 16.6667 13.4374 16.0209 14.7291 14.7292C16.0207 13.4375 16.6666 11.8611 16.6666 10C16.6666 8.13891 16.0207 6.56252 14.7291 5.27085C13.4374 3.97919 11.861 3.33335 9.9999 3.33335C8.13879 3.33335 6.5624 3.97919 5.27073 5.27085C3.97906 6.56252 3.33323 8.13891 3.33323 10C3.33323 11.8611 3.97906 13.4375 5.27073 14.7292C6.5624 16.0209 8.13879 16.6667 9.9999 16.6667Z" fill="#7D98F6"/>
 
</svg>
