<svg width="20" height="20" viewBox="0 0 20 20" fill="none" xmlns="http://www.w3.org/2000/svg">

<path d="M3.57146 14.782C3.10865 14.5933 2.67575 14.328 2.2923 13.9928C1.3816 13.1967 0.824443 12.0714 0.743409 10.8645C0.662375 9.65763 1.0641 8.46797 1.8602 7.55727C2.25439 7.10634 2.73354 6.73746 3.27029 6.4717C3.80704 6.20594 4.39088 6.0485 4.98847 6.00838C5.05049 6.00974 5.1116 5.99332 5.16459 5.96107C5.21758 5.92881 5.26023 5.88207 5.28751 5.82636C5.69975 4.63155 6.50915 3.61418 7.58071 2.94391C8.65227 2.27364 9.92123 1.99098 11.176 2.14307C12.4307 2.29516 13.5954 2.8728 14.4758 3.77968C15.3562 4.68655 15.8991 5.86783 16.0139 7.12653C16.0235 7.1928 16.0519 7.25495 16.0957 7.30563C16.1394 7.35631 16.1968 7.39342 16.261 7.41257C17.19 7.63145 18.0066 8.18341 18.556 8.96393C19.1054 9.74444 19.3496 10.6993 19.2423 11.6478C19.1349 12.5962 18.6835 13.4724 17.9736 14.1104C17.7206 14.3377 17.4411 14.5291 17.1429 14.6817" stroke="#828282" stroke-width="1.3" stroke-linecap="round" stroke-linejoin="round"/>
<path d="M13.4999 13.6114C13.169 11.9812 11.7277 10.7542 9.9999 10.7542C8.02745 10.7542 6.42847 12.3532 6.42847 14.3256C6.42847 16.2981 8.02745 17.8971 9.9999 17.8971C10.8811 17.8971 11.6878 17.5779 12.3107 17.0488" stroke="#828282" stroke-width="1.3" stroke-linecap="round" stroke-linejoin="round"/>
<path d="M14.2856 11.4684L13.4999 13.6113L11.4285 13.2542" stroke="#828282" stroke-width="1.3" stroke-linecap="round" stroke-linejoin="round"/>
 
</svg>
