<svg width="20" height="20" viewBox="0 0 20 20" fill="none" xmlns="http://www.w3.org/2000/svg">

<path d="M1.42847 5H18.5713" stroke="#828282" stroke-width="1.3" stroke-linecap="round" stroke-linejoin="round"/>
<path d="M3.57153 5H16.4287V17.8571C16.4287 18.236 16.2782 18.5994 16.0103 18.8673C15.7423 19.1352 15.379 19.2857 15.0001 19.2857H5.0001C4.62122 19.2857 4.25786 19.1352 3.98995 18.8673C3.72204 18.5994 3.57153 18.236 3.57153 17.8571V5Z" stroke="#828282" stroke-width="1.3" stroke-linecap="round" stroke-linejoin="round"/>
<path d="M6.42847 5.00007V4.28578C6.42847 3.33858 6.80474 2.43018 7.47451 1.7604C8.14429 1.09063 9.05269 0.714355 9.9999 0.714355C10.9471 0.714355 11.8555 1.09063 12.5253 1.7604C13.195 2.43018 13.5713 3.33858 13.5713 4.28578V5.00007" stroke="#828282" stroke-width="1.3" stroke-linecap="round" stroke-linejoin="round"/>
<path d="M7.85718 9.28784V15.0043" stroke="#828282" stroke-width="1.3" stroke-linecap="round" stroke-linejoin="round"/>
<path d="M12.1428 9.28784V15.0043" stroke="#828282" stroke-width="1.3" stroke-linecap="round" stroke-linejoin="round"/>

</svg>
