<svg width="20" height="20" viewBox="0 0 20 20" fill="none" xmlns="http://www.w3.org/2000/svg">
<mask id="mask0_1623_81722" style="mask-type:alpha" maskUnits="userSpaceOnUse" x="0" y="0" width="20" height="20">
<rect width="20" height="20" fill="#D9D9D9"/>
</mask>
<g mask="url(#mask0_1623_81722)">
<path d="M10.7449 17.9167C10.0914 17.9167 9.45075 17.8275 8.82289 17.649C8.19504 17.4706 7.60388 17.2083 7.04939 16.8622L7.95322 15.9584C8.38378 16.1945 8.83517 16.3716 9.30739 16.4896C9.77961 16.6077 10.2588 16.6667 10.7449 16.6667C12.3699 16.6667 13.7484 16.1007 14.8803 14.9688C16.0123 13.8368 16.5782 12.4584 16.5782 10.8334C16.5782 9.20837 16.0123 7.82989 14.8803 6.69795C13.7484 5.56601 12.3699 5.00003 10.7449 5.00003H10.1391L11.6231 6.48401L10.7449 7.41991L7.70004 4.37505L10.7449 1.3302L11.6231 2.26608L10.1391 3.75005H10.7449C12.7125 3.75005 14.3849 4.4386 15.7622 5.8157C17.1395 7.1928 17.8282 8.86498 17.8282 10.8323C17.8282 11.8159 17.6423 12.7372 17.2705 13.5962C16.8987 14.4552 16.3934 15.2041 15.7545 15.843C15.1156 16.4818 14.3668 16.9872 13.508 17.359C12.6493 17.7308 11.7282 17.9167 10.7449 17.9167ZM5.74489 15.2404L1.33789 10.8334L5.74489 6.42637L10.1519 10.8334L5.74489 15.2404ZM5.74489 13.4584L8.36989 10.8334L5.74489 8.20837L3.11989 10.8334L5.74489 13.4584Z" fill="#BDBDBD"/>
</g>
</svg>
