<svg width="20" height="20" viewBox="0 0 20 20" fill="none" xmlns="http://www.w3.org/2000/svg">
<path fill-rule="evenodd" clip-rule="evenodd" d="M10.385 2.40746L8.17778 6.88003C8.01392 7.21207 7.69717 7.44222 7.33075 7.49547L2.39487 8.21284L5.96628 11.6934C6.23146 11.9519 6.35248 12.3242 6.28991 12.6892L5.447 17.6058L10.0932 15.1624C10.2985 15.0545 10.524 15.0731 10.7001 15.176L15.323 17.6061L14.4801 12.6892C14.4175 12.3242 14.5385 11.9519 14.8037 11.6934L18.3751 8.21284L13.4392 7.49547C13.0728 7.44222 12.7561 7.21207 12.5922 6.88003L10.385 2.40746ZM9.37615 1.62714C9.7888 0.790951 10.9812 0.790956 11.3938 1.62714L13.684 6.26792L18.8055 7.01227C19.7283 7.14639 20.0967 8.28043 19.4289 8.93125L15.7232 12.5428L16.5978 17.6445C16.7554 18.5635 15.7909 19.2642 14.9656 18.8304L10.3838 16.422L5.80463 18.8301C4.97933 19.2641 4.01461 18.5633 4.17218 17.6443L5.04678 12.5428L1.34104 8.93125C0.673248 8.28043 1.04165 7.14639 1.96442 7.01227L7.08593 6.26792L9.37615 1.62714ZM9.75999 15.7161C9.75999 15.8804 9.82434 16.0351 9.93471 16.1498C9.82799 16.04 9.75999 15.8895 9.75999 15.7161Z" fill="#828282"/>
</svg>
