<svg width="20" height="20" viewBox="0 0 20 20" fill="none" xmlns="http://www.w3.org/2000/svg">
<path d="M18.25 17.5H3.25C3.05109 17.5 2.86032 17.421 2.71967 17.2803C2.57902 17.1397 2.5 16.9489 2.5 16.75V1.75C2.5 1.55109 2.42098 1.36032 2.28033 1.21967C2.13968 1.07902 1.94891 1 1.75 1C1.55109 1 1.36032 1.07902 1.21967 1.21967C1.07902 1.36032 1 1.55109 1 1.75L1 16.75C1 17.3467 1.23705 17.919 1.65901 18.341C2.08097 18.7629 2.65326 19 3.25 19H18.25C18.4489 19 18.6397 18.921 18.7803 18.7803C18.921 18.6397 19 18.4489 19 18.25C19 18.0511 18.921 17.8603 18.7803 17.7197C18.6397 17.579 18.4489 17.5 18.25 17.5Z" fill="#828282"/>
<path d="M12.25 16.0001C12.4489 16.0001 12.6397 15.9211 12.7803 15.7804C12.921 15.6397 13 15.449 13 15.2501V10.0001C13 9.80118 12.921 9.61041 12.7803 9.46976C12.6397 9.32911 12.4489 9.25009 12.25 9.25009C12.0511 9.25009 11.8603 9.32911 11.7197 9.46976C11.579 9.61041 11.5 9.80118 11.5 10.0001V15.2501C11.5 15.449 11.579 15.6397 11.7197 15.7804C11.8603 15.9211 12.0511 16.0001 12.25 16.0001ZM6.25 16.0001C6.44891 16.0001 6.63968 15.9211 6.78033 15.7804C6.92098 15.6397 7 15.449 7 15.2501V10.0001C7 9.80118 6.92098 9.61041 6.78033 9.46976C6.63968 9.32911 6.44891 9.25009 6.25 9.25009C6.05109 9.25009 5.86032 9.32911 5.71967 9.46976C5.57902 9.61041 5.5 9.80118 5.5 10.0001V15.2501C5.5 15.449 5.57902 15.6397 5.71967 15.7804C5.86032 15.9211 6.05109 16.0001 6.25 16.0001ZM15.25 16.0001C15.4489 16.0001 15.6397 15.9211 15.7803 15.7804C15.921 15.6397 16 15.449 16 15.2501V6.25009C16 6.05118 15.921 5.86041 15.7803 5.71976C15.6397 5.57911 15.4489 5.50009 15.25 5.50009C15.0511 5.50009 14.8603 5.57911 14.7197 5.71976C14.579 5.86041 14.5 6.05118 14.5 6.25009V15.2501C14.5 15.449 14.579 15.6397 14.7197 15.7804C14.8603 15.9211 15.0511 16.0001 15.25 16.0001ZM9.25 16.0001C9.44891 16.0001 9.63968 15.9211 9.78033 15.7804C9.92098 15.6397 10 15.449 10 15.2501V3.70032C10 3.50141 9.92098 3.31064 9.78033 3.16999C9.63968 3.02934 9.44891 2.95032 9.25 2.95032C9.05109 2.95032 8.86032 3.02934 8.71967 3.16999C8.57902 3.31064 8.5 3.50141 8.5 3.70032V15.2501C8.5 15.449 8.57902 15.6397 8.71967 15.7804C8.86032 15.9211 9.05109 16.0001 9.25 16.0001Z" fill="#828282"/>
</svg>
