<svg width="20" height="20" viewBox="0 0 20 20" fill="none" xmlns="http://www.w3.org/2000/svg">
<path d="M6.8755 8.03548C6.68391 8.03605 6.49413 7.9969 6.31712 7.92032C6.14012 7.84374 5.97941 7.73124 5.84431 7.58933L5.20893 6.99954C5.08517 6.88409 5.01038 6.72202 5.001 6.54897C4.99636 6.46328 5.00792 6.37747 5.03501 6.29645C5.06211 6.21543 5.10422 6.14078 5.15894 6.07676C5.21365 6.01274 5.2799 5.9606 5.3539 5.92333C5.4279 5.88606 5.5082 5.86438 5.59022 5.85953C5.75587 5.84973 5.91845 5.90909 6.04221 6.02453L6.70217 6.64C6.72366 6.66653 6.75013 6.68818 6.77994 6.7036C6.80975 6.71902 6.84227 6.72789 6.8755 6.72967C6.93064 6.72966 6.98353 6.7068 7.02257 6.66612L8.5279 5.16878C8.64876 5.05452 8.80758 4.99412 8.97047 5.00045C9.13336 5.00679 9.28744 5.07936 9.39984 5.20269C9.51224 5.32602 9.57407 5.49036 9.57214 5.66064C9.57021 5.83092 9.50467 5.99367 9.38951 6.11419L7.89543 7.60021C7.76119 7.73929 7.602 7.84933 7.42698 7.92402C7.25196 7.99872 7.06455 8.03659 6.8755 8.03548ZM15 6.51203C15 6.33887 14.9342 6.1728 14.817 6.05036C14.6997 5.92791 14.5408 5.85912 14.375 5.85912H11.0419C10.8762 5.85912 10.7172 5.92791 10.6 6.05036C10.4828 6.1728 10.4169 6.33887 10.4169 6.51203C10.4169 6.68519 10.4828 6.85126 10.6 6.97371C10.7172 7.09615 10.8762 7.16494 11.0419 7.16494H14.375C14.5408 7.16494 14.6997 7.09615 14.817 6.97371C14.9342 6.85126 15 6.68519 15 6.51203ZM7.89543 11.0824L9.38951 9.59637C9.50467 9.47585 9.57021 9.3131 9.57214 9.14281C9.57407 8.97253 9.51224 8.8082 9.39984 8.68487C9.28744 8.56154 9.13336 8.48896 8.97047 8.48263C8.80758 8.47629 8.64876 8.5367 8.5279 8.65096L7.02257 10.1483C6.98351 10.1891 6.93053 10.212 6.87529 10.212C6.82005 10.212 6.76707 10.1891 6.72801 10.1483L6.06763 9.45795C6.00958 9.3973 5.94066 9.3492 5.86481 9.31637C5.78896 9.28355 5.70767 9.26666 5.62557 9.26666C5.54348 9.26666 5.46218 9.28355 5.38633 9.31637C5.31049 9.3492 5.24157 9.3973 5.18352 9.45795C5.06628 9.58044 5.00041 9.74656 5.00041 9.91978C5.00041 10.093 5.06628 10.2591 5.18352 10.3816L5.84431 11.0715C6.11594 11.3551 6.4837 11.5153 6.86773 11.5174C7.25176 11.5194 7.62106 11.3631 7.89543 11.0824ZM15 9.99421C15 9.82105 14.9342 9.65498 14.817 9.53253C14.6997 9.41009 14.5408 9.3413 14.375 9.3413H11.0419C10.8762 9.3413 10.7172 9.41009 10.6 9.53253C10.4828 9.65498 10.4169 9.82105 10.4169 9.99421C10.4169 10.1674 10.4828 10.3334 10.6 10.4559C10.7172 10.5783 10.8762 10.6471 11.0419 10.6471H14.375C14.5408 10.6471 14.6997 10.5783 14.817 10.4559C14.9342 10.3334 15 10.1674 15 9.99421ZM7.89543 14.5646L9.38951 13.0785C9.50467 12.958 9.57021 12.7953 9.57214 12.625C9.57407 12.4547 9.51224 12.2904 9.39984 12.167C9.28744 12.0437 9.13336 11.9711 8.97047 11.9648C8.80758 11.9585 8.64876 12.0189 8.5279 12.1331L7.02257 13.6305C6.98353 13.6712 6.93064 13.694 6.8755 13.694C6.84227 13.6922 6.80975 13.6834 6.77994 13.668C6.75013 13.6525 6.72366 13.6309 6.70217 13.6044L6.04221 12.9889C5.91845 12.8734 5.75587 12.8141 5.59022 12.8239C5.42457 12.8337 5.26944 12.9118 5.15894 13.0411C5.04844 13.1704 4.99162 13.3403 5.001 13.5133C5.01038 13.6864 5.08517 13.8484 5.20893 13.9639L5.84348 14.5537C6.11515 14.8376 6.48308 14.9979 6.86731 15C7.25155 15.002 7.62102 14.8455 7.89543 14.5646ZM15 13.4764C15 13.3032 14.9342 13.1372 14.817 13.0147C14.6997 12.8923 14.5408 12.8235 14.375 12.8235H11.0419C10.8762 12.8235 10.7172 12.8923 10.6 13.0147C10.4828 13.1372 10.4169 13.3032 10.4169 13.4764C10.4169 13.6495 10.4828 13.8156 10.6 13.9381C10.7172 14.0605 10.8762 14.1293 11.0419 14.1293H14.375C14.5408 14.1293 14.6997 14.0605 14.817 13.9381C14.9342 13.8156 15 13.6495 15 13.4764Z" fill="#828282"/>
<rect x="1.75" y="1.75" width="16.5" height="16.5" rx="2.25" stroke="#828282" stroke-width="1.5"/>
</svg>
