<svg width="20" height="20" viewBox="0 0 20 20" fill="none" xmlns="http://www.w3.org/2000/svg">
<path d="M10 1C8.21997 1 6.47991 1.52784 4.99987 2.51677C3.51983 3.50571 2.36628 4.91131 1.68509 6.55585C1.0039 8.20038 0.82567 10.01 1.17294 11.7558C1.5202 13.5016 2.37737 15.1053 3.63604 16.364C4.89471 17.6226 6.49836 18.4798 8.24419 18.8271C9.99002 19.1743 11.7996 18.9961 13.4441 18.3149C15.0887 17.6337 16.4943 16.4802 17.4832 15.0001C18.4722 13.5201 19 11.78 19 10C18.9974 7.61384 18.0484 5.32616 16.3611 3.63889C14.6738 1.95162 12.3862 1.00258 10 1ZM10 17.5C8.51664 17.5 7.06659 17.0601 5.83322 16.236C4.59986 15.4119 3.63856 14.2406 3.07091 12.8701C2.50325 11.4997 2.35472 9.99168 2.64411 8.53682C2.9335 7.08196 3.64781 5.74559 4.6967 4.6967C5.74559 3.6478 7.08197 2.9335 8.53682 2.64411C9.99168 2.35472 11.4997 2.50325 12.8701 3.0709C14.2406 3.63856 15.4119 4.59985 16.236 5.83322C17.0601 7.06659 17.5 8.51664 17.5 10C17.4978 11.9884 16.7069 13.8948 15.3009 15.3009C13.8948 16.7069 11.9885 17.4978 10 17.5Z" fill="#828282"/>
<path d="M10.0001 5.5C9.80117 5.5 9.6104 5.57902 9.46975 5.71967C9.3291 5.86032 9.25008 6.05109 9.25008 6.25V9.49375L6.72183 11.0777C6.55276 11.1834 6.43256 11.3518 6.3877 11.5461C6.34283 11.7403 6.37696 11.9444 6.48258 12.1135C6.5882 12.2826 6.75667 12.4028 6.95091 12.4476C7.14515 12.4925 7.34926 12.4584 7.51833 12.3527L10.3983 10.5527C10.5071 10.4846 10.5966 10.3896 10.6582 10.2769C10.7198 10.1642 10.7514 10.0376 10.7501 9.90925V6.25C10.7501 6.05109 10.6711 5.86032 10.5304 5.71967C10.3898 5.57902 10.199 5.5 10.0001 5.5Z" fill="#828282"/>
</svg>
