<svg width="20" height="20" viewBox="0 0 20 20" fill="none" xmlns="http://www.w3.org/2000/svg">
<path d="M18.213 8.96514H17.6045V6.99916C17.6045 6.44061 17.3827 5.90492 16.9878 5.50989C16.5929 5.11487 16.0573 4.89285 15.4988 4.89266H14.8903V2.24901C14.8903 2.05036 14.8114 1.85985 14.6709 1.71938C14.5304 1.57891 14.3399 1.5 14.1413 1.5H5.32006C4.04204 1.50151 2.81681 2.00992 1.91318 2.91369C1.00955 3.81745 0.501322 5.04275 0.5 6.32077V16.4988C0.499906 16.7753 0.554305 17.0493 0.660089 17.3048C0.765873 17.5604 0.920971 17.7926 1.11652 17.9882C1.31207 18.1838 1.54424 18.339 1.79977 18.4449C2.05531 18.5508 2.32919 18.6053 2.60579 18.6053H15.4988C15.7753 18.6053 16.0492 18.5508 16.3048 18.4449C16.5603 18.339 16.7925 18.1838 16.988 17.9882C17.1836 17.7926 17.3387 17.5604 17.4445 17.3048C17.5502 17.0493 17.6046 16.7753 17.6045 16.4988V14.5342H18.213C18.5914 14.5342 18.9543 14.3839 19.2218 14.1163C19.4894 13.8488 19.6397 13.4859 19.6397 13.1075V10.3968C19.6404 10.209 19.6039 10.023 19.5325 9.84931C19.4611 9.67564 19.3562 9.51778 19.2236 9.38477C19.0911 9.25176 18.9336 9.14622 18.7601 9.07421C18.5867 9.0022 18.4008 8.96514 18.213 8.96514ZM16.1065 16.4988C16.1055 16.6591 16.0417 16.8128 15.9289 16.9268C15.8728 16.9832 15.8061 17.028 15.7327 17.0586C15.6592 17.0892 15.5805 17.105 15.5009 17.1051H2.60579C2.44515 17.1046 2.29124 17.0405 2.17778 16.9268C2.06496 16.8128 2.00121 16.6591 2.00016 16.4988V6.32077C2.00111 5.43994 2.35139 4.59544 2.97416 3.97253C3.59694 3.34962 4.44137 2.99915 5.3222 2.99802H13.3944V4.89266H5.32006C5.12141 4.89266 4.9309 4.97157 4.79043 5.11204C4.64996 5.25251 4.57105 5.44302 4.57105 5.64167C4.57105 5.84032 4.64996 6.03083 4.79043 6.1713C4.9309 6.31177 5.12141 6.39068 5.32006 6.39068H15.4988C15.66 6.39106 15.8144 6.45531 15.9283 6.56936C16.0423 6.68341 16.1063 6.83797 16.1065 6.99916V8.96514H13.4629C13.0845 8.96514 12.7216 9.11545 12.4541 9.383C12.1865 9.65056 12.0362 10.0134 12.0362 10.3918V13.1025C12.0362 13.4809 12.1865 13.8438 12.4541 14.1113C12.7216 14.3789 13.0845 14.5292 13.4629 14.5292H16.1065V16.4988ZM18.1424 13.0362H13.5335V10.4632H18.1424V13.0362Z" fill="#828282"/>
</svg>
