<svg width="20" height="20" viewBox="0 0 20 20" fill="none" xmlns="http://www.w3.org/2000/svg">
<path fill-rule="evenodd" clip-rule="evenodd" d="M9.99968 2.41699C6.73199 2.41699 4.08301 5.06597 4.08301 8.33366C4.08301 11.5943 6.72061 14.2389 9.9786 14.2503C9.9856 14.2501 9.99263 14.25 9.99967 14.25C10.0067 14.25 10.0137 14.2501 10.0207 14.2503C13.2787 14.2389 15.9163 11.5943 15.9163 8.33366C15.9163 5.06597 13.2674 2.41699 9.99968 2.41699ZM10.7497 15.7129C14.4936 15.3369 17.4163 12.1766 17.4163 8.33366C17.4163 4.23755 14.0958 0.916992 9.99968 0.916992C5.90356 0.916992 2.58301 4.23755 2.58301 8.33366C2.58301 12.1766 5.50579 15.3369 9.24967 15.7129V17.5833H5.83301C5.41879 17.5833 5.08301 17.9191 5.08301 18.3333C5.08301 18.7475 5.41879 19.0833 5.83301 19.0833H14.1663C14.5806 19.0833 14.9163 18.7475 14.9163 18.3333C14.9163 17.9191 14.5806 17.5833 14.1663 17.5833H10.7497V15.7129ZM10 6.58398C9.0335 6.58398 8.25 7.36749 8.25 8.33398C8.25 9.30048 9.0335 10.084 10 10.084C10.9665 10.084 11.75 9.30048 11.75 8.33398C11.75 7.36749 10.9665 6.58398 10 6.58398ZM6.75 8.33398C6.75 6.53906 8.20507 5.08398 10 5.08398C11.7949 5.08398 13.25 6.53906 13.25 8.33398C13.25 10.1289 11.7949 11.584 10 11.584C8.20507 11.584 6.75 10.1289 6.75 8.33398Z" fill="#828282"/>
</svg>
