<svg width="20" height="20" viewBox="0 0 20 20" fill="none" xmlns="http://www.w3.org/2000/svg">
<path d="M19.0009 9.43421C18.8925 7.67913 18.2727 5.99415 17.2182 4.587C16.1637 3.17985 14.7204 2.11206 13.0664 1.51525C11.4123 0.918439 9.61975 0.81871 7.9097 1.22836C6.19964 1.638 4.64684 2.53911 3.44273 3.8206C2.23861 5.10209 1.43583 6.70793 1.13333 8.44015C0.830842 10.1724 1.04187 11.9553 1.7404 13.569C2.43893 15.1827 3.59443 16.5568 5.06444 17.5218C6.53445 18.4867 8.25471 19.0004 10.0131 18.9995H15.2507C16.245 18.9985 17.1983 18.6031 17.9014 17.9C18.6045 17.1969 18.9999 16.2436 19.0009 15.2493V9.43421ZM17.5008 15.2493C17.5008 15.8461 17.2638 16.4184 16.8418 16.8404C16.4198 17.2624 15.8475 17.4994 15.2507 17.4994H10.0131C8.95479 17.499 7.90841 17.2754 6.94224 16.8434C5.97607 16.4113 5.11182 15.7805 4.40582 14.992C3.69641 14.2039 3.16369 13.2733 2.8434 12.2625C2.5231 11.2516 2.42263 10.184 2.54871 9.1312C2.7478 7.47056 3.49391 5.9234 4.66942 4.73363C5.84492 3.54386 7.38297 2.77916 9.04109 2.56006C9.36454 2.51952 9.69017 2.49898 10.0161 2.49856C11.7641 2.49379 13.458 3.10452 14.8007 4.22366C15.5849 4.87541 16.2285 5.67961 16.6927 6.58752C17.1568 7.49543 17.4318 8.48814 17.5008 9.50547V15.2493Z" fill="#828282"/>
<path d="M7.00004 7.74899H10.0002C10.1991 7.74899 10.3899 7.66997 10.5306 7.52931C10.6712 7.38865 10.7503 7.19787 10.7503 6.99895C10.7503 6.80002 10.6712 6.60924 10.5306 6.46858C10.3899 6.32792 10.1991 6.2489 10.0002 6.2489H7.00004C6.80112 6.2489 6.61034 6.32792 6.46968 6.46858C6.32902 6.60924 6.25 6.80002 6.25 6.99895C6.25 7.19787 6.32902 7.38865 6.46968 7.52931C6.61034 7.66997 6.80112 7.74899 7.00004 7.74899ZM13.0004 9.24908H7.00004C6.80112 9.24908 6.61034 9.3281 6.46968 9.46876C6.32902 9.60942 6.25 9.8002 6.25 9.99912C6.25 10.198 6.32902 10.3888 6.46968 10.5295C6.61034 10.6701 6.80112 10.7492 7.00004 10.7492H13.0004C13.1993 10.7492 13.3901 10.6701 13.5308 10.5295C13.6714 10.3888 13.7504 10.198 13.7504 9.99912C13.7504 9.8002 13.6714 9.60942 13.5308 9.46876C13.3901 9.3281 13.1993 9.24908 13.0004 9.24908ZM13.0004 12.2493H7.00004C6.80112 12.2493 6.61034 12.3283 6.46968 12.4689C6.32902 12.6096 6.25 12.8004 6.25 12.9993C6.25 13.1982 6.32902 13.389 6.46968 13.5297C6.61034 13.6703 6.80112 13.7493 7.00004 13.7493H13.0004C13.1993 13.7493 13.3901 13.6703 13.5308 13.5297C13.6714 13.389 13.7504 13.1982 13.7504 12.9993C13.7504 12.8004 13.6714 12.6096 13.5308 12.4689C13.3901 12.3283 13.1993 12.2493 13.0004 12.2493Z" fill="#828282"/>
</svg>
