<?xml version="1.0" encoding="utf-8"?><svg viewBox="0 0 205 146" xmlns="http://www.w3.org/2000/svg" xmlns:xlink="http://www.w3.org/1999/xlink"><style>:root>svg{display:none}:root>svg:target{display:block}</style><svg viewBox="0 0 20 20" id="account" xmlns="http://www.w3.org/2000/svg"><path d="M4.935 14.324A9.087 9.087 0 0 1 7.25 13.08a7.72 7.72 0 0 1 2.665-.456c.942 0 1.83.152 2.665.457a9.084 9.084 0 0 1 2.315 1.244 6.565 6.565 0 0 0 1.231-1.977c.303-.748.454-1.56.454-2.432 0-1.847-.649-3.42-1.947-4.718C13.334 3.9 11.762 3.25 9.915 3.25s-3.42.649-4.718 1.947C3.9 6.496 3.25 8.068 3.25 9.915c0 .873.151 1.684.454 2.432a6.567 6.567 0 0 0 1.231 1.977Zm4.98-3.784c-.76 0-1.402-.261-1.924-.783-.523-.522-.784-1.164-.784-1.925 0-.76.261-1.402.783-1.924.523-.522 1.164-.784 1.925-.784.76 0 1.402.261 1.924.784.523.522.784 1.163.784 1.924 0 .76-.261 1.402-.784 1.924-.522.523-1.163.784-1.924.784Zm0 7.29a7.76 7.76 0 0 1-3.093-.62 7.949 7.949 0 0 1-2.513-1.689 7.948 7.948 0 0 1-1.689-2.513A7.757 7.757 0 0 1 2 9.915c0-1.1.207-2.13.62-3.093a7.95 7.95 0 0 1 1.69-2.513A7.949 7.949 0 0 1 6.822 2.62 7.757 7.757 0 0 1 9.915 2c1.1 0 2.13.207 3.093.62a7.95 7.95 0 0 1 2.513 1.689 7.95 7.95 0 0 1 1.689 2.513c.413.963.62 1.994.62 3.093 0 1.1-.207 2.13-.62 3.093a7.949 7.949 0 0 1-1.689 2.513 7.95 7.95 0 0 1-2.513 1.689 7.757 7.757 0 0 1-3.093.62Zm0-1.25c.752 0 1.477-.12 2.175-.363a6.166 6.166 0 0 0 1.86-1.015 6.335 6.335 0 0 0-1.836-.979 6.732 6.732 0 0 0-2.199-.35c-.784 0-1.518.115-2.203.346a6.044 6.044 0 0 0-1.831.983 6.167 6.167 0 0 0 1.859 1.015 6.593 6.593 0 0 0 2.175.363Zm0-7.29c.414 0 .761-.14 1.04-.418a1.41 1.41 0 0 0 .418-1.04c0-.414-.14-.76-.418-1.04a1.412 1.412 0 0 0-1.04-.418c-.414 0-.761.14-1.04.418a1.412 1.412 0 0 0-.418 1.04c0 .415.14.761.418 1.04.279.279.626.418 1.04.418Z"/></svg><svg viewBox="0 0 33 20" id="arrow" xmlns="http://www.w3.org/2000/svg"><path d="m25.266 15.56 7.553-7.553L25.266.44l-1.808 1.81 4.508 4.485H0v2.534h27.966l-4.508 4.484 1.808 1.808Z"/></svg><svg viewBox="0 0 25 24" id="arrow-back" xmlns="http://www.w3.org/2000/svg"><mask id="aba" maskUnits="userSpaceOnUse" x="0" y="0" width="25" height="24"><path d="M.5 0h24v24H.5z"/></mask><g mask="url(#aba)"><path d="m12.5 19.613-7.615-7.615L12.5 4.383l1.07 1.054-5.812 5.811h12.357v1.5H7.759l5.811 5.812-1.069 1.053Z"/></g></svg><svg viewBox="0 0 12 12" id="arrow-down-mini" xmlns="http://www.w3.org/2000/svg"><path d="M.75 3.04c.199 0 .39.078.53.22l3.836 3.835a1.25 1.25 0 0 0 1.768 0l3.833-3.83a.75.75 0 0 1 1.06 1.06l-3.83 3.83a2.753 2.753 0 0 1-3.89 0L.223 4.32A.75.75 0 0 1 .75 3.04Z"/></svg><svg viewBox="0 0 20 20" id="arrow-right" xmlns="http://www.w3.org/2000/svg"><path d="M6 17.01c0-.266.106-.52.294-.709l5.132-5.131a1.674 1.674 0 0 0 0-2.366L6.301 3.676A1.003 1.003 0 0 1 7.72 2.257l5.125 5.125a3.683 3.683 0 0 1 0 5.203l-5.132 5.132A1.003 1.003 0 0 1 6 17.01Z"/></svg><svg viewBox="0 0 25 26" id="arrow-up" xmlns="http://www.w3.org/2000/svg"><path d="M21.85 15.703a.71.71 0 0 1 .16.789.71.71 0 0 1-.16.234.75.75 0 0 1-1.046 0L12.963 9.08 5.12 16.726a.75.75 0 0 1-1.06-.013.715.715 0 0 1 .012-1.01l8.343-8.13a.785.785 0 0 1 1.095 0l8.34 8.13Z"/></svg><svg viewBox="0 0 13 13" id="arrow-up-outline" xmlns="http://www.w3.org/2000/svg"><path fill-rule="evenodd" clip-rule="evenodd" d="M6.141.724a.508.508 0 0 1 .718 0l4.062 4.063a.508.508 0 1 1-.717.718L7.008 2.309v9.608a.508.508 0 1 1-1.016 0V2.309L2.796 5.505a.508.508 0 1 1-.717-.718L6.14.724Z"/></svg><svg viewBox="0 0 16 16" id="aside-arrows" xmlns="http://www.w3.org/2000/svg"><path d="M8.312 1.496a.522.522 0 0 1 .748 0 .549.549 0 0 1 0 .766L3.466 7.999l5.594 5.739a.549.549 0 0 1-.18.887.524.524 0 0 1-.568-.12L2.363 8.4a.574.574 0 0 1 0-.801l5.949-6.103Zm4.592 0a.522.522 0 0 1 .748 0 .549.549 0 0 1 0 .766L8.058 7.999l5.594 5.739a.549.549 0 0 1-.18.887.524.524 0 0 1-.568-.12L6.955 8.4a.574.574 0 0 1 0-.801l5.949-6.103Z"/></svg><svg viewBox="0 0 20 20" id="ask" xmlns="http://www.w3.org/2000/svg"><path d="M9.8 2C5.555 2 2 5.048 2 8.9c0 1.818.815 3.449 2.1 4.669a4.04 4.04 0 0 1-.656 1.125 9.97 9.97 0 0 1-1.219 1.238A.6.6 0 0 0 2.6 17c1.329 0 2.285-.015 3.15-.244.774-.205 1.44-.634 2.119-1.237.618.148 1.255.281 1.931.281 4.245 0 7.8-3.048 7.8-6.9 0-3.852-3.555-6.9-7.8-6.9Zm0 1.2c3.675 0 6.6 2.592 6.6 5.7s-2.925 5.7-6.6 5.7a7.558 7.558 0 0 1-1.95-.281.601.601 0 0 0-.563.15c-.675.647-1.172.949-1.837 1.125-.306.08-.896.061-1.313.094.084-.095.163-.145.244-.244.472-.576.902-1.185 1.032-1.875a.6.6 0 0 0-.207-.563C3.95 11.968 3.2 10.513 3.2 8.9c0-3.108 2.925-5.7 6.6-5.7Z"/><path d="M10.266 10.057c-.074.311-.323.572-.643.572-.325 0-.595-.266-.551-.589a2.75 2.75 0 0 1 .045-.25 1.9 1.9 0 0 1 .261-.623c.126-.187.292-.384.498-.592.16-.157.305-.306.434-.446.129-.143.232-.294.309-.452.076-.16.115-.345.115-.553 0-.226-.037-.418-.11-.576a.785.785 0 0 0-.325-.36 1.014 1.014 0 0 0-.523-.123c-.174 0-.338.035-.492.107a.838.838 0 0 0-.371.323c-.183.278-.417.57-.75.57h-.018c-.355 0-.654-.296-.558-.637.053-.185.128-.353.227-.503a1.88 1.88 0 0 1 .816-.694A2.757 2.757 0 0 1 9.776 5c.468 0 .867.082 1.198.247.332.162.585.398.76.71.177.308.266.681.266 1.118 0 .316-.061.602-.183.86a3.153 3.153 0 0 1-.476.716 12.3 12.3 0 0 1-.633.655 1.42 1.42 0 0 0-.442.751Zm-1.338 2.25c0-.194.065-.357.194-.49.13-.136.305-.204.529-.204.223 0 .399.068.528.204a.675.675 0 0 1 .194.49.693.693 0 0 1-.194.494c-.129.133-.305.199-.528.199-.224 0-.4-.066-.529-.199a.693.693 0 0 1-.194-.495Z"/></svg><svg viewBox="0 0 100 100" id="atom" xmlns="http://www.w3.org/2000/svg"><path fill-rule="evenodd" clip-rule="evenodd" d="M62.916 79.14a54.31 54.31 0 0 1-1.636 4.202c-1.824 4.145-3.866 7.187-5.881 9.124C53.409 94.38 51.694 95 50.3 95c-1.394 0-3.108-.62-5.099-2.534-2.015-1.937-4.057-4.979-5.881-9.124a54.265 54.265 0 0 1-1.635-4.201c4.045-1.111 8.289-2.62 12.615-4.514 4.326 1.894 8.57 3.403 12.615 4.514ZM50.3 100c-7.137 0-13.48-7.723-17.5-19.691-1.779.36-3.506.634-5.17.822A9.502 9.502 0 0 1 18.5 88a9.5 9.5 0 0 1-9.45-10.494A10.13 10.13 0 0 1 7 75c-3.568-6.18-.052-15.535 8.304-25C6.948 40.535 3.432 31.18 7 25c3.568-6.18 13.427-7.812 25.802-5.309C36.822 7.723 43.164 0 50.3 0c7.136 0 13.479 7.723 17.498 19.691a58.036 58.036 0 0 1 6.612-.964C75.597 14.833 79.218 12 83.5 12a9.5 9.5 0 0 1 9.235 11.736c.321.398.61.819.867 1.264 3.569 6.18.052 15.535-8.303 25 8.355 9.465 11.872 18.82 8.303 25-3.568 6.18-13.427 7.812-25.803 5.309C63.78 92.277 57.437 100 50.301 100ZM14.405 80.368c2.186.668 4.714 1.019 7.51 1.062a4.5 4.5 0 0 1-7.51-1.061Zm.848-4.984a4.5 4.5 0 0 1 7.246 1.05c-2.529 0-4.682-.281-6.426-.786a14.14 14.14 0 0 1-.82-.264Zm12.438.704C26.624 72.01 22.913 69 18.5 69a9.48 9.48 0 0 0-7.248 3.359c-.642-1.204-.913-2.964-.277-5.541.67-2.714 2.284-6.004 4.962-9.656a54.262 54.262 0 0 1 2.82-3.517c2.985 2.948 6.413 5.868 10.216 8.668.523 4.694 1.338 9.123 2.399 13.182a55.524 55.524 0 0 1-3.681.593Zm60.12-55.88a4.502 4.502 0 0 0-7.766-1.592c2.955.158 5.576.685 7.766 1.592Zm-8.294 3.389c1.926.085 3.603.347 5.012.755.674.195 1.267.416 1.788.657a4.5 4.5 0 0 1-6.8-1.413Zm-5.247.163C75.284 27.916 79.032 31 83.5 31a9.464 9.464 0 0 0 6.254-2.349c.317 1.124.35 2.598-.127 4.531-.67 2.713-2.283 6.004-4.961 9.656a54.261 54.261 0 0 1-2.82 3.516c-2.986-2.948-6.414-5.868-10.218-8.668-.523-4.694-1.338-9.122-2.398-13.181a54.288 54.288 0 0 1 5.04-.745ZM44.206 71.728a83.831 83.831 0 0 1-7.965 2.624 83.838 83.838 0 0 1-1.71-8.21 114.347 114.347 0 0 0 9.675 5.586Zm20.154 2.624a83.863 83.863 0 0 1-7.964-2.624 114.478 114.478 0 0 0 9.674-5.585 83.862 83.862 0 0 1-1.71 8.209Zm-5.559-9.63a107.553 107.553 0 0 0 8.078-5.15c.275-3.078.422-6.28.422-9.572 0-3.293-.147-6.494-.422-9.572a107.52 107.52 0 0 0-8.078-5.15 107.521 107.521 0 0 0-8.5-4.421 107.521 107.521 0 0 0-8.5 4.42 107.53 107.53 0 0 0-8.079 5.152A107.536 107.536 0 0 0 33.301 50c0 3.293.146 6.493.421 9.571a107.53 107.53 0 0 0 8.08 5.151 107.554 107.554 0 0 0 8.5 4.421c2.803-1.3 5.648-2.774 8.5-4.42ZM69.23 75.495c1.06-4.059 1.875-8.488 2.398-13.181 3.804-2.8 7.232-5.72 10.217-8.669a54.262 54.262 0 0 1 2.82 3.517c2.679 3.652 4.292 6.942 4.962 9.656.662 2.68.342 4.475-.355 5.682-.696 1.207-2.091 2.381-4.743 3.148-2.685.777-6.341 1.025-10.843.532a54.286 54.286 0 0 1-4.456-.685Zm2.935-19.91A83.802 83.802 0 0 0 78.42 50a83.847 83.847 0 0 0-6.255-5.586 114.383 114.383 0 0 1 0 11.172ZM61.28 16.659a54.252 54.252 0 0 1 1.636 4.201c-4.046 1.111-8.289 2.62-12.615 4.514-4.326-1.894-8.57-3.403-12.615-4.514a54.247 54.247 0 0 1 1.635-4.2c1.824-4.146 3.866-7.188 5.881-9.125C47.192 5.62 48.907 5 50.301 5c1.393 0 3.108.62 5.098 2.534 2.015 1.937 4.057 4.979 5.881 9.124Zm3.08 8.99c-2.563.7-5.23 1.574-7.964 2.624a114.368 114.368 0 0 1 9.674 5.585 83.824 83.824 0 0 0-1.71-8.21Zm-28.12 0a83.78 83.78 0 0 1 7.966 2.624 114.305 114.305 0 0 0-9.675 5.586 83.88 83.88 0 0 1 1.71-8.21Zm-4.869-1.143c-1.06 4.059-1.875 8.488-2.398 13.182-3.803 2.8-7.231 5.72-10.216 8.667a54.234 54.234 0 0 1-2.82-3.516c-2.678-3.652-4.292-6.943-4.962-9.656-.662-2.68-.342-4.476.355-5.682.697-1.207 2.092-2.381 4.743-3.148 2.685-.777 6.341-1.025 10.843-.532 1.428.157 2.916.385 4.456.685Zm-2.935 19.91A83.88 83.88 0 0 0 22.182 50a83.838 83.838 0 0 0 6.254 5.585 114.346 114.346 0 0 1 0-11.17ZM50.801 53a4.5 4.5 0 1 0 0-9 4.5 4.5 0 0 0 0 9Zm0 5a9.5 9.5 0 1 0 0-19 9.5 9.5 0 0 0 0 19Z"/></svg><svg viewBox="0 0 52 52" id="avatar-image" xmlns="http://www.w3.org/2000/svg"><path d="M43.625 8.557H8.15a2.822 2.822 0 0 0-2.822 2.821v29.025a2.822 2.822 0 0 0 2.822 2.822h35.475a2.822 2.822 0 0 0 2.822-2.822V11.378a2.822 2.822 0 0 0-2.822-2.821ZM8.15 10.975h35.475a.403.403 0 0 1 .403.403V33.06l-5.94-5.94a2.826 2.826 0 0 0-3.075-.611c-.343.142-.654.35-.916.611l-4.317 4.318-9.153-9.155a2.823 2.823 0 0 0-3.991 0l-8.89 8.889V11.378a.403.403 0 0 1 .404-.403Zm-.403 29.428v-5.81l10.598-10.599a.404.404 0 0 1 .573 0L35.73 40.807H8.15a.403.403 0 0 1-.403-.404Zm35.878.404H39.15l-7.66-7.66 4.316-4.317a.403.403 0 0 1 .57 0l7.66 7.66v3.913a.402.402 0 0 1-.411.404Zm-14.11-20.56a2.016 2.016 0 1 1 4.032 0 2.016 2.016 0 0 1-4.031 0Z"/></svg><svg viewBox="0 0 20 20" id="book" xmlns="http://www.w3.org/2000/svg"><path d="M15.275 14.524a1 1 0 0 0 .725-.961V3.253a2.23 2.23 0 0 0-.896-1.797 2.225 2.225 0 0 0-1.972-.367l-2.25.643c-.327.093-.629.26-.882.488a2.238 2.238 0 0 0-.882-.488l-2.25-.643a2.225 2.225 0 0 0-1.973.367A2.23 2.23 0 0 0 4 3.252v10.31a1 1 0 0 0 .725.962L10 16.031l5.275-1.507ZM10.75 3.894c0-.332.223-.628.544-.72l2.25-.643a.742.742 0 0 1 .657.123.745.745 0 0 1 .299.598v9.18a1 1 0 0 1-.725.961l-3.025.865V3.895Zm-1.5 10.363-3.025-.865a1 1 0 0 1-.725-.961V3.252c0-.237.109-.455.298-.598a.744.744 0 0 1 .657-.123l2.25.643c.32.092.544.388.544.72l.001 10.363ZM19 3.25v11.7a2 2 0 0 1-1.45 1.923l-7 2a2 2 0 0 1-1.1 0l-7-2A2 2 0 0 1 1 14.951V4.001c0-.712.326-1.367.895-1.796.266-.2.605.038.605.37V13.82a2 2 0 0 0 1.45 1.923l5.5 1.571c.36.103.74.103 1.1 0l5.5-1.571a2 2 0 0 0 1.45-1.923V1.825c0-.332.34-.57.605-.37A2.232 2.232 0 0 1 19 3.251Z"/></svg><svg viewBox="0 0 20 20" id="calendar" xmlns="http://www.w3.org/2000/svg"><path d="M15.25 2.5h-.75v-.75a.75.75 0 1 0-1.5 0v.75H7v-.75a.75.75 0 0 0-1.5 0v.75h-.75A3.755 3.755 0 0 0 1 6.25v9A3.754 3.754 0 0 0 4.75 19h10.5A3.754 3.754 0 0 0 19 15.25v-9a3.755 3.755 0 0 0-3.75-3.75ZM2.5 6.25A2.25 2.25 0 0 1 4.75 4h10.5a2.25 2.25 0 0 1 2.25 2.25V7h-15v-.75ZM15.25 17.5H4.75a2.25 2.25 0 0 1-2.25-2.25V8.5h15v6.75a2.25 2.25 0 0 1-2.25 2.25Z"/><path d="M10 13.375a1.125 1.125 0 1 0 0-2.25 1.125 1.125 0 0 0 0 2.25Zm-3.75 0a1.125 1.125 0 1 0 0-2.25 1.125 1.125 0 0 0 0 2.25Zm7.5 0a1.125 1.125 0 1 0 0-2.25 1.125 1.125 0 0 0 0 2.25Z"/></svg><svg viewBox="0 0 25 24" id="calendar-wrapper" xmlns="http://www.w3.org/2000/svg"><path fill-rule="evenodd" clip-rule="evenodd" d="M18.067 3h.9a4.505 4.505 0 0 1 4.5 4.5v10.8a4.506 4.506 0 0 1-4.5 4.5h-12.6a4.505 4.505 0 0 1-4.5-4.5V7.5a4.505 4.505 0 0 1 4.5-4.5h.9v-.9a.9.9 0 0 1 1.8 0V3h7.2v-.9a.9.9 0 1 1 1.8 0V3ZM4.457 5.59a2.7 2.7 0 0 0-.774 1.61h-.016v11.1a2.7 2.7 0 0 0 2.7 2.7h12.6a2.7 2.7 0 0 0 2.7-2.7V7.2h-.017a2.7 2.7 0 0 0-2.683-2.4h-12.6a2.7 2.7 0 0 0-1.91.79Z"/></svg><svg viewBox="0 0 20 20" id="chat" xmlns="http://www.w3.org/2000/svg"><path d="M19 9.434A9.01 9.01 0 1 0 10.014 19h5.238A3.754 3.754 0 0 0 19 15.25V9.433Zm-1.5 5.815a2.25 2.25 0 0 1-2.25 2.25h-5.237a7.53 7.53 0 0 1-7.17-5.236A7.438 7.438 0 0 1 2.55 9.13a7.533 7.533 0 0 1 6.492-6.57c.324-.041.65-.062.975-.062a7.441 7.441 0 0 1 4.785 1.725 7.532 7.532 0 0 1 2.7 5.281v5.744Z"/><path d="M7 7.749h3a.75.75 0 0 0 0-1.5H7a.75.75 0 1 0 0 1.5Zm6 1.5H7a.75.75 0 1 0 0 1.5h6a.75.75 0 0 0 0-1.5Zm0 3H7a.75.75 0 1 0 0 1.5h6a.75.75 0 0 0 0-1.5Z"/></svg><svg viewBox="0 0 20 20" id="check" xmlns="http://www.w3.org/2000/svg"><path d="m2.206 12.08 3.052 3.237c.859.91 2.25.91 3.109 0l9.427-10a.81.81 0 0 0-.018-1.099.703.703 0 0 0-1.018 0l-9.427 10a.703.703 0 0 1-1.037 0L3.242 10.98a.703.703 0 0 0-1.036.02.812.812 0 0 0 0 1.08Z"/></svg><svg viewBox="0 0 20 20" id="checkbox-active" xmlns="http://www.w3.org/2000/svg"><path d="M3.778 18c-.49 0-.908-.174-1.256-.523A1.708 1.708 0 0 1 2 16.222V3.778c0-.49.174-.908.523-1.256A1.708 1.708 0 0 1 3.778 2h12.444c.49 0 .908.174 1.256.523.349.348.523.766.522 1.255v12.444c0 .49-.174.908-.523 1.256a1.708 1.708 0 0 1-1.255.522H3.778Zm0-1.778h12.444V3.778H3.778v12.444Z"/><path d="m8.756 13.733 6.266-6.266-1.244-1.245-5.022 5.022-2.534-2.533-1.244 1.245 3.778 3.777ZM3.778 18c-.49 0-.908-.174-1.256-.523A1.708 1.708 0 0 1 2 16.222V3.778c0-.49.174-.908.523-1.256A1.708 1.708 0 0 1 3.778 2h12.444c.49 0 .908.174 1.256.523.349.348.523.766.522 1.255v12.444c0 .49-.174.908-.523 1.256a1.708 1.708 0 0 1-1.255.522H3.778Z"/></svg><svg viewBox="0 0 20 20" id="checkbox-default" xmlns="http://www.w3.org/2000/svg"><path d="M3.778 18c-.49 0-.908-.174-1.256-.523A1.708 1.708 0 0 1 2 16.222V3.778c0-.49.174-.908.523-1.256A1.708 1.708 0 0 1 3.778 2h12.444c.49 0 .908.174 1.256.523.349.348.523.766.522 1.255v12.444c0 .49-.174.908-.523 1.256a1.708 1.708 0 0 1-1.255.522H3.778Zm0-1.778h12.444V3.778H3.778v12.444Z"/></svg><svg viewBox="0 0 16 16" id="chevron-left" xmlns="http://www.w3.org/2000/svg"><path d="M10 12.667 5.333 8 10 3.333"/></svg><svg viewBox="0 0 16 16" id="chevron-right" xmlns="http://www.w3.org/2000/svg"><path d="M6 3.333 10.667 8 6 12.666"/></svg><svg viewBox="0 0 20 20" id="childrens" xmlns="http://www.w3.org/2000/svg"><g clip-path="url(#aua)"><path d="M18.624 11.227c.894-1.302 1.244-2.88 1.011-4.619a8.782 8.782 0 0 0-.817-2.697.75.75 0 0 0-1.114-.247c-.428.321-.825.135-2.08-.723C14.427 2.121 12.785 1 10.48 1 8.046 1 6.14 3.053 5.37 4.03c-.764-.269-2.124-.61-3.269-.171l.102.263-.107-.262C.765 4.404.435 5.896.42 5.96c-.441 2.079.281 4.141.886 5.399-.217.284-.37.613-.446.962a3.343 3.343 0 0 0 3.12 4.076 5.051 5.051 0 0 0 4.438 2.64h3.197a5.05 5.05 0 0 0 4.438-2.64 3.343 3.343 0 0 0 3.12-4.076 2.447 2.447 0 0 0-.55-1.093ZM1.889 6.27c.034-.162.263-.802.76-1.017.856-.32 2.211.154 2.664.365a.751.751 0 0 0 .946-.267c.018-.029 1.908-2.854 4.222-2.854 1.842 0 3.148.893 4.3 1.682.603.411 1.171.8 1.748.998a2.25 2.25 0 0 0 1.24.087c.186.514.316 1.047.387 1.59.179 1.406-.106 2.626-.843 3.634a2.601 2.601 0 0 0-.683-.035.749.749 0 0 0-.713-.514c-5.716 0-8.498-2.529-8.523-2.552a.75.75 0 0 0-1.265.543 2.012 2.012 0 0 1-2.006 2.007.749.749 0 0 0-.714.514 2.492 2.492 0 0 0-.835.07c-.487-1.067-1.02-2.69-.685-4.251Zm13.28 7.72a3.552 3.552 0 0 1-3.55 3.55H8.42a3.552 3.552 0 0 1-3.55-3.55v-2.639a3.523 3.523 0 0 0 2.51-2.127c.947.603 2.567 1.417 4.89 1.87a19.085 19.085 0 0 0 2.904.325l-.006 2.572Zm-12.89-.932c0-.137.015-.274.045-.408a.908.908 0 0 1 .278-.49l.172-.117a.934.934 0 0 1 .597-.088v2.036c0 .26.02.52.06.776a1.843 1.843 0 0 1-1.152-1.71Zm14.328 1.712c.04-.257.06-.516.06-.776v-2.036a.967.967 0 0 1 .17-.015.877.877 0 0 1 .88.713 1.842 1.842 0 0 1-1.11 2.11v.004Zm-5.266-.114a.749.749 0 0 1 0 1.059 1.87 1.87 0 0 1-2.64 0 .749.749 0 0 1 1.057-1.06.369.369 0 0 0 .523 0 .75.75 0 0 1 1.06 0Zm1.78-2.576v.682a.749.749 0 1 1-1.499 0v-.682a.749.749 0 0 1 1.498 0Zm-4.702 0v.682a.75.75 0 1 1-1.498 0v-.682a.75.75 0 0 1 1.498 0Z"/></g><defs><clipPath id="aua"><path d="M0 0h20v20H0z"/></clipPath></defs></svg><svg viewBox="0 0 24 24" id="close" xmlns="http://www.w3.org/2000/svg"><path fill-rule="evenodd" clip-rule="evenodd" d="m12 13.414 5.657 5.657a1 1 0 0 0 1.414-1.414L13.414 12l5.657-5.657a1 1 0 0 0-1.414-1.414L12 10.586 6.343 4.929A1 1 0 0 0 4.93 6.343L10.586 12 4.93 17.657a1 1 0 1 0 1.414 1.414L12 13.414Z"/></svg><svg viewBox="0 0 20 20" id="cours" xmlns="http://www.w3.org/2000/svg"><path d="M10.019 16.988H3.463a1.34 1.34 0 0 1-1.338-1.338V7.386h16.369v2.383a.563.563 0 0 0 1.125 0V4.456A2.46 2.46 0 0 0 17.162 2H3.456A2.459 2.459 0 0 0 1 4.456V15.65a2.466 2.466 0 0 0 2.462 2.463h6.557a.563.563 0 0 0 0-1.125ZM3.456 3.125h13.707c.734 0 1.33.598 1.33 1.331v1.805H2.126V4.456c0-.734.597-1.331 1.331-1.331Z"/><path d="M4.248 5.228a.54.54 0 1 0 0-1.08.54.54 0 0 0 0 1.08Zm1.903 0a.54.54 0 1 0 0-1.08.54.54 0 0 0 0 1.08Zm1.903 0a.54.54 0 1 0 0-1.08.54.54 0 0 0 0 1.08Zm11.182 6.886-3.75-2.178a1.306 1.306 0 0 0-1.311 0l-3.75 2.178a.784.784 0 0 0 0 1.353l.995.579v1.73c0 .457.247.884.644 1.113l1.565.902a2.406 2.406 0 0 0 2.403 0l1.566-.903a1.288 1.288 0 0 0 .643-1.112v-1.73l.995-.579a.782.782 0 0 0 0-1.353ZM14.74 10.91a.177.177 0 0 1 .179 0l3.241 1.882-3.241 1.883a.179.179 0 0 1-.18 0L11.5 12.79l3.24-1.882Zm2.375 4.867a.16.16 0 0 1-.08.138l-1.565.902a1.287 1.287 0 0 1-1.28 0l-1.565-.902a.16.16 0 0 1-.08-.138V14.7l1.629.947a1.306 1.306 0 0 0 1.31 0l1.63-.947v1.076Z"/></svg><svg viewBox="0 0 100 100" id="dna" xmlns="http://www.w3.org/2000/svg"><path d="M97.855 22.994c1.225-1.056 1.218-2.922.073-4.066-1.144-1.144-2.989-1.13-4.23-.093a29.185 29.185 0 0 1-1.95 1.498l-12.08-12.08c.457-.652.955-1.302 1.497-1.95 1.037-1.242 1.051-3.087-.093-4.231-1.144-1.145-3.01-1.152-4.066.073-3.686 4.277-6.059 8.987-7.227 14.322-.645 2.945-.885 5.876-.945 8.773l-1.106-.036c-5.199-.17-10.576-.348-15.996.84-6.243 1.366-11.63 4.383-16.467 9.22-4.839 4.84-7.855 10.225-9.222 16.468-1.187 5.42-1.01 10.797-.84 15.996l.037 1.106c-2.898.06-5.829.3-8.773.945-5.335 1.168-10.045 3.541-14.322 7.227-1.225 1.056-1.218 2.922-.073 4.066 1.144 1.144 2.989 1.13 4.23.093a29.163 29.163 0 0 1 1.95-1.498l12.08 12.08a29.176 29.176 0 0 1-1.497 1.95c-1.037 1.242-1.051 3.087.093 4.231 1.144 1.145 3.01 1.152 4.066-.073 3.686-4.277 6.059-8.987 7.227-14.322.645-2.945.885-5.876.945-8.773l1.106.036c5.199.17 10.576.347 15.996-.84 6.243-1.366 11.63-4.383 16.467-9.221 4.839-4.838 7.855-10.225 9.222-16.467 1.186-5.42 1.01-10.797.84-15.997l-.037-1.105c2.897-.06 5.828-.3 8.773-.945 5.335-1.168 10.045-3.541 14.322-7.227Zm-11.486.247c-3.817 1.507-7.704 1.977-11.675 2.065.088-3.97.558-7.858 2.065-11.676l9.61 9.61Zm-18.833 7.82 1.36.043.044 1.36c.119 3.61.234 7.148-.108 10.623L56.914 31.168c3.474-.342 7.011-.227 10.622-.108ZM58.43 62.572c-2.793 2.336-5.62 3.855-8.486 4.83L32.597 50.055c.975-2.865 2.494-5.692 4.83-8.486L58.43 62.573ZM41.57 37.427c2.793-2.336 5.62-3.855 8.486-4.83l17.347 17.347c-.975 2.866-2.494 5.692-4.83 8.486L41.57 37.427ZM13.63 76.759c3.818-1.507 7.705-1.977 11.676-2.065-.088 3.971-.558 7.858-2.065 11.676l-9.61-9.61Zm18.834-7.82-1.36-.042-.044-1.36c-.119-3.611-.234-7.149.108-10.624l11.919 11.919c-3.475.342-7.012.227-10.623.108Z"/></svg><svg viewBox="0 0 205 146" id="doc" xmlns="http://www.w3.org/2000/svg"><mask id="aya" maskUnits="userSpaceOnUse" x="0" y="0" width="205" height="146"><rect x=".5" y=".5" width="204" height="145" rx="4.5"/></mask><g mask="url(#aya)"><path d="M-92.251 68.573 103.77 264.595 260.564 107.8 64.542-88.22z"/></g><mask id="ayb" maskUnits="userSpaceOnUse" x="153" y="0" width="52" height="52"><path d="M205 52h-47a5 5 0 0 1-5-5V0h52v52Z"/></mask><g mask="url(#ayb)"><rect x="252.193" y="181.485" width="277.216" height="58.358" rx="5" transform="rotate(-135 252.193 181.485)"/></g><mask id="ayc" maskUnits="userSpaceOnUse" x="0" y="0" width="205" height="146"><rect x=".5" y=".5" width="204" height="145" rx="4.5"/></mask><g mask="url(#ayc)"><path d="M-91.544 68.573 103.77 263.887l156.086-156.086L64.542-87.513z"/></g></svg><svg viewBox="0 0 20 20" id="download" xmlns="http://www.w3.org/2000/svg"><path d="M5.292 16.667c-1.237 0-2.289-.43-3.157-1.292-.868-.861-1.302-1.91-1.302-3.146 0-1.092.343-2.05 1.028-2.875a4.282 4.282 0 0 1 2.611-1.52c.218-1.112.794-2.116 1.73-3.015.934-.898 1.974-1.347 3.117-1.347.375 0 .7.117.976.35.275.235.413.534.413.9v5.764l1.103-1.093a.699.699 0 0 1 .986.99l-2.076 2.077a1 1 0 0 1-1.414 0L7.23 10.383a.699.699 0 0 1 .986-.99l1.103 1.093V4.792c-1.148.166-2.046.686-2.694 1.559-.56.753-.877 1.548-.954 2.386a.433.433 0 0 1-.421.402c-.833 0-1.546.294-2.139.882-.593.588-.889 1.317-.889 2.187 0 .87.303 1.6.91 2.188a2.997 2.997 0 0 0 2.16.882h10.277c.611 0 1.132-.216 1.563-.646.43-.43.646-.951.646-1.563a2.13 2.13 0 0 0-.646-1.562 2.129 2.129 0 0 0-1.563-.646h-.291a1 1 0 0 1-1-1V9.14c0-.852-.204-1.603-.611-2.254a4.889 4.889 0 0 0-1.352-1.426.53.53 0 0 1-.232-.431V4.49c0-.352.356-.593.665-.423a5.441 5.441 0 0 1 1.946 1.81c.648.984.973 2.071.973 3.26v.334c.986.019 1.816.37 2.49 1.052.673.683 1.01 1.532 1.01 2.546 0 .986-.353 1.832-1.06 2.538-.706.706-1.552 1.059-2.538 1.059H5.292Z"/></svg><svg viewBox="0 0 20 20" id="download-file" xmlns="http://www.w3.org/2000/svg"><path d="M3 13.833V15.5a1.667 1.667 0 0 0 1.667 1.667h10a1.667 1.667 0 0 0 1.666-1.667v-1.667m-10.833-5L9.667 13m0 0 4.166-4.167M9.667 13V3"/></svg><svg viewBox="0 0 20 20" id="dropdown-arrow" xmlns="http://www.w3.org/2000/svg"><path d="m7.06 9.3 2.416 2.414a.723.723 0 0 0 1.026 0l2.415-2.415a.726.726 0 0 0-.513-1.238h-4.83a.726.726 0 0 0-.513 1.238Z"/></svg><svg viewBox="0 0 20 20" id="edit" xmlns="http://www.w3.org/2000/svg"><path d="m13 4.172 3 3m-5 11h8m-16-4-1 4 4-1L17.586 5.586a2 2 0 0 0 0-2.828l-.172-.172a2 2 0 0 0-2.828 0L3 14.172Z"/></svg><svg viewBox="0 0 20 20" id="error" xmlns="http://www.w3.org/2000/svg"><path d="M10 11.646a.75.75 0 0 0 .75-.75v-5.25a.75.75 0 1 0-1.5 0v5.25a.75.75 0 0 0 .75.75Zm.575 2.841a.781.781 0 0 1-.575.232.782.782 0 0 1-.575-.232.781.781 0 0 1-.233-.576.78.78 0 0 1 .233-.575.782.782 0 0 1 .575-.232.78.78 0 0 1 .575.232.781.781 0 0 1 .233.575c0 .23-.078.421-.232.576Z"/><rect x="1.75" y="1.646" width="16.5" height="16.5" rx="2.25"/></svg><svg viewBox="0 0 20 20" id="file" xmlns="http://www.w3.org/2000/svg"><path fill-rule="evenodd" clip-rule="evenodd" d="M8.72 4.83a.492.492 0 0 0-.289-.08H4.154a.472.472 0 0 0-.314.112.243.243 0 0 0-.09.178v10.92c0 .05.021.116.09.178a.472.472 0 0 0 .314.112h12.692a.468.468 0 0 0 .314-.112.243.243 0 0 0 .09-.178V7.12a.243.243 0 0 0-.09-.178.472.472 0 0 0-.314-.112H9.923a.75.75 0 0 1-.723-.55l-.358-1.29a.291.291 0 0 0-.123-.158Zm-.317-1.58a1.99 1.99 0 0 1 1.164.343c.346.237.608.586.721.998v.002l.205.737h6.353c.481 0 .957.172 1.318.498.364.328.586.791.586 1.292v8.84c0 .501-.222.964-.586 1.293a1.97 1.97 0 0 1-1.318.497H4.154a1.97 1.97 0 0 1-1.318-.497 1.74 1.74 0 0 1-.586-1.293V5.04c0-.501.222-.964.586-1.292a1.97 1.97 0 0 1 1.318-.498h4.249Z"/></svg><svg viewBox="0 0 73 28" id="full-logo" xmlns="http://www.w3.org/2000/svg"><path d="M13.848 1.636h4.305V14.86c0 1.485-.355 2.785-1.064 3.898-.702 1.114-1.687 1.982-2.953 2.605-1.266.617-2.741.925-4.425.925-1.69 0-3.168-.308-4.434-.925-1.266-.623-2.25-1.491-2.953-2.605-.703-1.113-1.054-2.413-1.054-3.898V1.636h4.305v12.857c0 .775.169 1.464.507 2.068a3.698 3.698 0 0 0 1.452 1.422c.623.344 1.349.517 2.177.517.835 0 1.561-.173 2.178-.517a3.63 3.63 0 0 0 1.442-1.422c.344-.604.517-1.293.517-2.069V1.636ZM25.852 13.17V22h-4.236V6.727h4.037v2.695h.179a4.26 4.26 0 0 1 1.7-2.108c.795-.524 1.76-.786 2.893-.786 1.061 0 1.986.232 2.775.696.788.464 1.402 1.127 1.84 1.989.437.855.655 1.876.655 3.062V22H31.46v-8.97c.007-.934-.232-1.663-.715-2.187-.484-.53-1.15-.795-1.999-.795-.57 0-1.074.123-1.511.368a2.56 2.56 0 0 0-1.015 1.074c-.238.464-.36 1.024-.367 1.68ZM39.034 22V6.727h4.236V22h-4.236Zm2.128-17.242c-.63 0-1.17-.209-1.621-.626-.444-.424-.666-.932-.666-1.522 0-.583.222-1.083.666-1.501.45-.424.99-.636 1.62-.636.63 0 1.167.212 1.611.636.451.418.677.918.677 1.501 0 .59-.226 1.098-.677 1.522a2.267 2.267 0 0 1-1.61.626Zm13.624 1.969v3.182H45.59V6.727h9.197Zm-7.11-3.66h4.237v14.24c0 .39.06.696.179.914a.991.991 0 0 0 .497.448c.218.086.47.129.755.129.2 0 .398-.017.597-.05l.457-.09.667 3.153c-.212.066-.51.142-.895.228a7.17 7.17 0 0 1-1.402.17c-1.021.04-1.916-.097-2.685-.408-.762-.312-1.355-.796-1.78-1.452-.424-.656-.633-1.485-.626-2.486V3.068Zm12.484 24.66a8.4 8.4 0 0 1-1.51-.13 5.505 5.505 0 0 1-1.154-.308l.954-3.162c.497.153.945.236 1.343.25.404.012.752-.08 1.044-.28.298-.198.54-.536.725-1.014l.25-.646-5.48-15.71h4.455l3.162 11.216h.159L67.3 6.727h4.484L65.848 23.65a7.106 7.106 0 0 1-1.163 2.148 4.768 4.768 0 0 1-1.84 1.422c-.742.338-1.637.507-2.684.507Z"/></svg><svg viewBox="0 0 20 20" id="group" xmlns="http://www.w3.org/2000/svg"><path d="M6.25 1H4a3 3 0 0 0-3 3v2.25a3 3 0 0 0 3 3h2.25a3 3 0 0 0 3-3V4a3 3 0 0 0-3-3Zm1.5 5.25a1.5 1.5 0 0 1-1.5 1.5H4a1.5 1.5 0 0 1-1.5-1.5V4A1.5 1.5 0 0 1 4 2.5h2.25A1.5 1.5 0 0 1 7.75 4v2.25ZM16 1h-2.25a3 3 0 0 0-3 3v2.25a3 3 0 0 0 3 3H16a3 3 0 0 0 3-3V4a3 3 0 0 0-3-3Zm1.5 5.25a1.5 1.5 0 0 1-1.5 1.5h-2.25a1.5 1.5 0 0 1-1.5-1.5V4a1.5 1.5 0 0 1 1.5-1.5H16A1.5 1.5 0 0 1 17.5 4v2.25Zm-11.25 4.5H4a3 3 0 0 0-3 3V16a3 3 0 0 0 3 3h2.25a3 3 0 0 0 3-3v-2.25a3 3 0 0 0-3-3ZM7.75 16a1.5 1.5 0 0 1-1.5 1.5H4A1.5 1.5 0 0 1 2.5 16v-2.25a1.5 1.5 0 0 1 1.5-1.5h2.25a1.5 1.5 0 0 1 1.5 1.5V16ZM16 10.75h-2.25a3 3 0 0 0-3 3V16a3 3 0 0 0 3 3H16a3 3 0 0 0 3-3v-2.25a3 3 0 0 0-3-3ZM17.5 16a1.5 1.5 0 0 1-1.5 1.5h-2.25a1.5 1.5 0 0 1-1.5-1.5v-2.25a1.5 1.5 0 0 1 1.5-1.5H16a1.5 1.5 0 0 1 1.5 1.5V16Z"/></svg><svg viewBox="0 0 100 100" id="guelder-rose" xmlns="http://www.w3.org/2000/svg"><path d="M89.254 75.65a2.193 2.193 0 1 0 0-4.387 2.193 2.193 0 0 0 0 4.386Zm-2.8-17.387a2.193 2.193 0 1 0 0-4.386 2.193 2.193 0 0 0 0 4.386ZM74.026 71.274a2.193 2.193 0 1 0 0-4.386 2.193 2.193 0 0 0 0 4.386Z"/><path d="M94.665 62.503A11.998 11.998 0 0 0 97.2 55.12c0-6.65-5.41-12.061-12.061-12.061-6.145 0-11.227 4.62-11.966 10.566L38.626 24.476h21.445c-.694 2.801-1.17 7.008.826 10.465 3.243 5.618 11.47 6.577 11.818 6.614a2.193 2.193 0 0 0 2.245-1.295c.141-.321 3.424-7.924.18-13.542a10.189 10.189 0 0 0-1.77-2.242h3.456c1.62 1.879 5.782 6.03 10.911 6.03 6.488 0 11.43-6.644 11.638-6.927a2.192 2.192 0 0 0 0-2.592c-.207-.282-5.15-6.927-11.638-6.927-5.129 0-9.29 4.152-10.911 6.03H73.37c.674-.65 1.28-1.39 1.77-2.24 3.245-5.62-.039-13.222-.18-13.543a2.192 2.192 0 0 0-2.245-1.296c-.349.038-8.575.996-11.818 6.614-1.996 3.458-1.52 7.665-.826 10.465h-6.84A10.19 10.19 0 0 0 55 17.85c3.244-5.618-.039-13.221-.18-13.542a2.193 2.193 0 0 0-2.245-1.296c-.349.038-8.575.996-11.818 6.614-1.997 3.458-1.52 7.664-.826 10.465h-6.503l-9.865-8.324a2.193 2.193 0 0 0-2.829 3.353L34.35 26.608c-.012.019-.025.036-.036.056l-2.707 4.689c-2.08-2.002-5.484-4.518-9.477-4.518-6.487 0-11.43 6.645-11.637 6.928a2.192 2.192 0 0 0 0 2.592c.207.283 5.15 6.927 11.637 6.927.982 0 1.927-.154 2.827-.413l-3.42 5.925c-2.079-2.002-5.484-4.517-9.476-4.517-6.488 0-11.43 6.644-11.638 6.927a2.193 2.193 0 0 0 0 2.592c.207.283 5.15 6.928 11.637 6.928.982 0 1.928-.154 2.828-.413l-1.729 2.993c-2.437.464-8.114 1.992-10.678 6.434-3.244 5.619.04 13.222.18 13.543a2.193 2.193 0 0 0 2.245 1.296c.349-.038 8.575-.997 11.818-6.615 2.565-4.442 1.05-10.122.234-12.465l4.118-7.133 11.71 11.512c-2.392.265-5.039 1.03-7.09 2.876-4.82 4.34-4.047 12.586-4.012 12.935a2.193 2.193 0 0 0 1.735 1.926c.15.031 1.776.359 3.964.359 2.83 0 6.6-.549 9.32-2.997 2.286-2.06 3.313-4.997 3.759-7.553l3.462 3.404c-.309 2.489-.585 8.31 2.826 12.098 3.235 3.593 8.637 4.079 11.325 4.079.919 0 1.521-.057 1.61-.066a2.194 2.194 0 0 0 1.926-1.734c.072-.344 1.703-8.463-2.638-13.284-3.451-3.833-9.366-4.13-11.823-4.073l-3.023-2.971c2.556-.193 5.515-.918 7.76-2.939C56.708 67.595 55.936 59.35 55.9 59a2.192 2.192 0 0 0-1.734-1.926c-.343-.072-8.463-1.703-13.284 2.639-2.476 2.23-3.475 5.487-3.858 8.178L23.342 54.44l5.415-9.378a10.19 10.19 0 0 0 1.055 2.654c3.244 5.619 11.47 6.577 11.818 6.615a2.192 2.192 0 0 0 2.245-1.296c.141-.321 3.425-7.924.18-13.542-1.995-3.458-5.877-5.149-8.65-5.948l2.348-4.067 31.963 26.97c-5.207 1.334-9.066 6.067-9.066 11.684 0 6.65 5.41 12.061 12.06 12.061a11.985 11.985 0 0 0 5.106-1.137c2.152 3.314 5.885 5.512 10.122 5.512 6.651 0 12.062-5.411 12.062-12.062 0-4.16-2.12-7.835-5.335-10.003Zm-6.928-44.057c2.706 0 5.403 2.178 6.99 3.837-1.589 1.661-4.285 3.838-6.99 3.838-2.701 0-5.394-2.172-6.982-3.83 1.448-1.522 4.129-3.845 6.982-3.845Zm-23.042-6.628c1.351-2.34 4.579-3.586 6.809-4.132.593 2.015 1.265 5.498-.162 7.97-1.353 2.343-4.587 3.59-6.818 4.134-.644-2.206-1.181-5.63.171-7.972Zm-.173 12.968c2.04.494 5.394 1.653 6.82 4.125 1.352 2.34.817 5.758.174 7.962-2.041-.494-5.394-1.653-6.82-4.124-1.352-2.34-.817-5.759-.174-7.963ZM44.556 11.818c1.35-2.34 4.579-3.586 6.809-4.132.593 2.015 1.265 5.498-.162 7.97-1.351 2.34-4.58 3.586-6.81 4.132-.592-2.015-1.264-5.498.163-7.97Zm-31.629 63.95c-1.351 2.34-4.579 3.587-6.809 4.132-.593-2.014-1.265-5.498.162-7.969 1.35-2.34 4.579-3.586 6.809-4.132.592 2.015 1.265 5.498-.162 7.97Zm-.866-19.43c-2.702 0-5.395-2.173-6.982-3.831 1.448-1.521 4.129-3.845 6.982-3.845 2.706 0 5.402 2.178 6.99 3.838-1.589 1.66-4.285 3.837-6.99 3.837Zm36.123 25.899c2.1.058 5.62.496 7.53 2.616 1.808 2.008 1.995 5.463 1.825 7.753-2.1-.06-5.62-.497-7.53-2.617-1.807-2.008-1.995-5.463-1.825-7.752Zm-4.367-19.265c2.01-1.81 5.472-1.996 7.761-1.824-.069 2.296-.616 5.718-2.626 7.528-2.007 1.808-5.463 1.996-7.752 1.825.059-2.099.496-5.62 2.616-7.529Zm-7.432 11.213c-.06 2.1-.496 5.62-2.617 7.53-2.01 1.81-5.472 1.995-7.762 1.824.07-2.297.616-5.718 2.626-7.528 2.008-1.808 5.463-1.996 7.753-1.826ZM22.13 38.896c-2.705 0-5.402-2.178-6.989-3.837 1.588-1.661 4.284-3.838 6.989-3.838 2.702 0 5.395 2.172 6.982 3.83-1.448 1.521-4.128 3.845-6.982 3.845Zm18.126 2.79c1.351 2.34.817 5.758.174 7.962-2.041-.494-5.394-1.653-6.821-4.125-1.351-2.34-.816-5.758-.174-7.962 2.042.494 5.394 1.653 6.821 4.125Zm44.88 5.759c4.233 0 7.676 3.443 7.676 7.675 0 4.233-3.443 7.676-7.675 7.676-.59 0-1.163-.07-1.715-.196a12.136 12.136 0 0 0-5.68-5.425 7.65 7.65 0 0 1-.28-2.055c0-4.232 3.442-7.675 7.675-7.675ZM72.712 75.807c-4.232 0-7.675-3.443-7.675-7.675 0-4.232 3.443-7.675 7.675-7.675 4.232 0 7.675 3.443 7.675 7.675 0 4.232-3.443 7.675-7.675 7.675Zm15.227 4.375a7.672 7.672 0 0 1-6.55-3.685 12.017 12.017 0 0 0 3.384-8.365c0-.324-.017-.644-.042-.962.136.004.27.012.407.012 2.202 0 4.265-.596 6.043-1.63a7.684 7.684 0 0 1 4.434 6.955c0 4.232-3.444 7.675-7.676 7.675Z"/></svg><svg viewBox="0 0 20 20" id="home" xmlns="http://www.w3.org/2000/svg"><path d="m18.34 7.79-5.688-5.693a3.755 3.755 0 0 0-5.304 0L1.659 7.79A2.235 2.235 0 0 0 1 9.38v7.368A2.252 2.252 0 0 0 3.25 19h13.5A2.25 2.25 0 0 0 19 16.749V9.38a2.236 2.236 0 0 0-.66-1.591Zm-6.09 9.71h-4.5v-2.953A2.252 2.252 0 0 1 10 12.295a2.25 2.25 0 0 1 2.25 2.252v2.952Zm5.25-.751a.75.75 0 0 1-.75.75h-3v-2.952A3.753 3.753 0 0 0 10 10.795a3.749 3.749 0 0 0-3.75 3.752v2.952h-3a.75.75 0 0 1-.75-.75V9.38c0-.198.08-.389.22-.53l5.688-5.69a2.255 2.255 0 0 1 3.184 0l5.688 5.692c.14.14.219.33.22.528v7.368Z"/></svg><svg viewBox="0 0 100 100" id="leg" xmlns="http://www.w3.org/2000/svg"><path d="M52.114 56.81a2.383 2.383 0 0 1-2.177-1.416c-3.918-8.795-9.073-10.988-13.62-12.923-4.738-2.015-9.635-4.098-9.618-13.021a2.382 2.382 0 0 1 4.764 0c-.01 5.766 2.238 6.722 6.718 8.627 4.822 2.052 11.433 4.861 16.107 15.37a2.382 2.382 0 0 1-2.174 3.353v.01ZM15.306 34.681A2.382 2.382 0 0 1 13.3 31.02c.44-.691 10.968-16.955 26.1-19.085a2.383 2.383 0 1 1 .678 4.717c-12.99 1.827-22.659 16.778-22.756 16.93a2.382 2.382 0 0 1-2.016 1.101Z"/><path d="M62.31 33.16a2.69 2.69 0 0 1-.284-.018c-7.645-.921-13.673-2.43-17.916-4.483-3.729-1.802-6.193-4.076-7.343-6.757-1.636-3.83-.095-7.484 1.072-9.04l6.686-8.907a2.382 2.382 0 1 1 3.81 2.858l-6.669 8.893c-.103.147-1.467 2.153-.49 4.371.976 2.219 4.87 6.133 20.056 8.163l12.26-16.333a2.383 2.383 0 0 1 3.812 2.859l-13.088 17.44a2.383 2.383 0 0 1-1.906.953Zm7.65 52.824c-5.262 0-10.322-1.285-14.621-3.792-6.401-3.737-9.026-7.533-11.794-12.108-2.792-4.615-6.267-10.359-13.906-14.029-10.046-4.824-15.922-10.312-17.484-16.315-1.31-5.04.953-8.443 1.213-8.813l3.892 2.747.02-.03c-.053.082-1.31 2.04-.476 5.032.866 3.12 4.153 7.923 14.9 13.087 8.919 4.287 12.965 10.973 15.92 15.856 2.571 4.251 4.666 7.276 10.119 10.46 5.637 3.29 12.934 4.04 20.009 2.055 5.027-1.409 9.105-4.046 10.64-6.884a2.382 2.382 0 0 1 4.189 2.268c-2.16 3.992-7.224 7.433-13.545 9.21a33.71 33.71 0 0 1-9.077 1.256Z"/><path d="M69.95 97c-7.275 0-14.248-1.83-20.168-5.286-8.618-5.031-12.329-10.403-15.668-15.923-2.45-4.051-4.567-7.548-9.247-9.797-6.613-3.176-11.721-6.617-15.621-10.517a33.433 33.433 0 0 1-4-4.8 13.144 13.144 0 0 1 .373-15.217 13.294 13.294 0 0 1 6.757-4.756l2.245-.683a2.383 2.383 0 0 1 1.386 4.56l-2.25.68a8.505 8.505 0 0 0-4.318 3.04 8.375 8.375 0 0 0-.257 9.697 28.508 28.508 0 0 0 3.424 4.11c3.513 3.515 8.196 6.651 14.314 9.59 5.96 2.86 8.653 7.32 11.259 11.627 3.125 5.164 6.334 9.802 13.996 14.276 5.195 3.031 11.337 4.633 17.767 4.635 6.057 0 12.242-1.43 17.417-4.037a31.974 31.974 0 0 0 1.715-.927 6.34 6.34 0 0 0 .159-10.867l-15.74-9.774-5.328 2.382A11.114 11.114 0 0 1 53.49 63.37l-3.552-7.98 4.35-1.937 3.555 7.98a6.362 6.362 0 0 0 5.807 3.77 6.29 6.29 0 0 0 2.579-.553l6.479-2.888a2.38 2.38 0 0 1 2.223.159l16.812 10.44a11.104 11.104 0 0 1-.273 19.033 37.59 37.59 0 0 1-1.968 1.064C83.678 95.385 76.734 97 69.95 97ZM57.959 44.652a2.382 2.382 0 0 1-.97-4.558l7.19-3.203a2.383 2.383 0 0 1 1.942 4.353l-7.192 3.201a2.35 2.35 0 0 1-.97.207Zm2.842 8.292a2.382 2.382 0 0 1-.97-4.559l7.192-3.203a2.383 2.383 0 0 1 1.938 4.353l-7.19 3.195a2.371 2.371 0 0 1-.97.214Z"/><path d="M63.646 61.235a2.382 2.382 0 0 1-.97-4.56l7.19-3.2a2.382 2.382 0 1 1 1.937 4.35l-7.19 3.204a2.38 2.38 0 0 1-.967.206Z"/></svg><svg viewBox="0 0 20 20" id="link" xmlns="http://www.w3.org/2000/svg"><path d="M10.249 14.061a.625.625 0 0 1 0 .884l-.777.78a4.378 4.378 0 0 1-6.189-6.192l1.885-1.884a4.375 4.375 0 0 1 6-.179.626.626 0 1 1-.83.938 3.125 3.125 0 0 0-4.286.127l-1.884 1.882a3.125 3.125 0 1 0 4.42 4.42l.776-.776a.626.626 0 0 1 .885 0ZM15.724 3.28a4.381 4.381 0 0 0-6.19 0l-.776.777a.625.625 0 1 0 .885.884l.776-.777a3.126 3.126 0 0 1 4.42 4.42l-1.884 1.886a3.125 3.125 0 0 1-4.285.125.626.626 0 1 0-.831.938 4.374 4.374 0 0 0 6-.177l1.885-1.884a4.381 4.381 0 0 0 0-6.19V3.28Z"/></svg><svg viewBox="0 0 20 20" id="list" xmlns="http://www.w3.org/2000/svg"><path d="M6.25 5.25h12a.75.75 0 1 0 0-1.5h-12a.75.75 0 0 0 0 1.5Zm12 3.75h-12a.75.75 0 0 0 0 1.5h12a.75.75 0 1 0 0-1.5Zm0 5.25h-12a.75.75 0 1 0 0 1.5h12a.75.75 0 1 0 0-1.5ZM2.5 6a1.5 1.5 0 1 0 0-3 1.5 1.5 0 0 0 0 3Zm0 5.25a1.5 1.5 0 1 0 0-3 1.5 1.5 0 0 0 0 3Zm0 5.25a1.5 1.5 0 1 0 0-3 1.5 1.5 0 0 0 0 3Z"/></svg><svg viewBox="0 0 20 20" id="login" xmlns="http://www.w3.org/2000/svg"><path d="M4.503 17.5c-.42 0-.777-.146-1.069-.438a1.454 1.454 0 0 1-.437-1.068V4.424c0-.422.146-.778.437-1.07a1.454 1.454 0 0 1 1.07-.437h5.592v1.25H4.503a.245.245 0 0 0-.176.08.245.245 0 0 0-.08.176v11.57c0 .065.027.123.08.177.053.053.112.08.176.08h5.593v1.25H4.503Zm8.942-3.734-.865-.904 2.029-2.029H7.596v-1.25h7.013L12.58 7.555l.865-.904 3.558 3.557-3.558 3.558Z"/></svg><svg viewBox="0 0 20 20" id="logo" xmlns="http://www.w3.org/2000/svg"><path d="M8.811 18.353h.003c1.048.07 2.024-.124 2.913-.591.901-.47 1.623-1.194 2.171-2.143l4.173-7.227a1.125 1.125 0 0 0-.412-1.537l-1.628-.94a1.125 1.125 0 0 0-1.537.412l-4.05 7.014a2.115 2.115 0 0 1-.764.798l-.004.002c-.295.175-.617.26-.98.254h-.003c-.348-.005-.722-.11-1.13-.345-.404-.233-.683-.506-.866-.809a1.849 1.849 0 0 1-.276-.981 2.16 2.16 0 0 1 .315-1.06l4.05-7.015a1.125 1.125 0 0 0-.413-1.536l-1.627-.94a1.125 1.125 0 0 0-1.537.412L3.036 9.348c-.548.948-.816 1.934-.776 2.947.04 1.003.36 1.946.944 2.82l.002.002c.59.873 1.42 1.606 2.465 2.21 1.041.601 2.09.952 3.14 1.026Z"/></svg><svg viewBox="0 0 20 20" id="logout" xmlns="http://www.w3.org/2000/svg"><path fill-rule="evenodd" clip-rule="evenodd" d="M9.799 17.184a.75.75 0 0 1 .526-1.282h4.196a.918.918 0 0 0 .918-.918v-10a.918.918 0 0 0-.918-.918h-4.196a.749.749 0 1 1 0-1.498h4.196a2.416 2.416 0 0 1 2.416 2.416v10.003a2.416 2.416 0 0 1-2.416 2.416h-4.193a.75.75 0 0 1-.53-.22Zm2.295-6.75a.515.515 0 0 0 .023-.03l.01-.017a.907.907 0 0 1 .028-.046.383.383 0 0 0 .016-.035l.005-.01a.29.29 0 0 0 .022-.055l.005-.013.008-.023a.354.354 0 0 0 .009-.033l.002-.01.007-.028a.361.361 0 0 0 .006-.039.272.272 0 0 0 .005-.033V9.92a.28.28 0 0 0-.005-.034.37.37 0 0 0-.012-.066l-.003-.01-.005-.017a.603.603 0 0 0-.02-.064l-.009-.023-.003-.006a1.006 1.006 0 0 0-.051-.099.277.277 0 0 0-.015-.024l-.023-.031a.565.565 0 0 1-.007-.01l-.014-.018a.975.975 0 0 0-.048-.053L8.982 6.422a.749.749 0 1 0-1.06 1.059l1.764 1.755h-5.87a.749.749 0 1 0 0 1.498h5.87l-1.77 1.77a.75.75 0 0 0 1.06 1.059l3.05-3.049a.76.76 0 0 0 .047-.052l.021-.027Z"/></svg><svg viewBox="0 0 100 100" id="math" xmlns="http://www.w3.org/2000/svg"><path d="M10.25 45.667h29.167a6.25 6.25 0 0 0 6.25-6.25V10.25A6.25 6.25 0 0 0 39.417 4H10.25A6.25 6.25 0 0 0 4 10.25v29.167a6.25 6.25 0 0 0 6.25 6.25ZM8.167 10.25a2.083 2.083 0 0 1 2.083-2.083h29.167A2.083 2.083 0 0 1 41.5 10.25v29.167a2.083 2.083 0 0 1-2.083 2.083H10.25a2.083 2.083 0 0 1-2.083-2.083V10.25ZM89.417 54H60.25A6.25 6.25 0 0 0 54 60.25v29.167a6.25 6.25 0 0 0 6.25 6.25h29.167a6.25 6.25 0 0 0 6.25-6.25V60.25a6.25 6.25 0 0 0-6.25-6.25ZM91.5 89.417a2.083 2.083 0 0 1-2.083 2.083H60.25a2.083 2.083 0 0 1-2.083-2.083V60.25a2.083 2.083 0 0 1 2.083-2.083h29.167A2.083 2.083 0 0 1 91.5 60.25v29.167Zm-52.083 6.25a6.25 6.25 0 0 0 6.25-6.25V60.25a6.25 6.25 0 0 0-6.25-6.25H10.25A6.25 6.25 0 0 0 4 60.25v29.167a6.25 6.25 0 0 0 6.25 6.25h29.167Zm-31.25-6.25V60.25a2.083 2.083 0 0 1 2.083-2.083h29.167A2.083 2.083 0 0 1 41.5 60.25v29.167a2.083 2.083 0 0 1-2.083 2.083H10.25a2.083 2.083 0 0 1-2.083-2.083ZM89.417 4H60.25A6.25 6.25 0 0 0 54 10.25v29.167a6.25 6.25 0 0 0 6.25 6.25h29.167a6.25 6.25 0 0 0 6.25-6.25V10.25A6.25 6.25 0 0 0 89.417 4ZM91.5 39.417a2.083 2.083 0 0 1-2.083 2.083H60.25a2.083 2.083 0 0 1-2.083-2.083V10.25a2.083 2.083 0 0 1 2.083-2.083h29.167A2.083 2.083 0 0 1 91.5 10.25v29.167Z"/><path d="M14.417 26.917H35.25a2.083 2.083 0 1 0 0-4.167H14.417a2.084 2.084 0 0 0 0 4.167ZM85.25 72.75H64.417a2.083 2.083 0 1 0 0 4.167H85.25a2.083 2.083 0 1 0 0-4.167Zm0-50h-8.333v-8.333a2.083 2.083 0 0 0-4.167 0v8.333h-8.333a2.083 2.083 0 1 0 0 4.167h8.333v8.333a2.083 2.083 0 1 0 4.167 0v-8.333h8.333a2.083 2.083 0 1 0 0-4.167ZM16 83.667a2.084 2.084 0 0 0 2.937 0l5.896-5.896 5.896 5.896a2.083 2.083 0 0 0 2.938 0 2.083 2.083 0 0 0 0-2.938l-5.896-5.896 5.896-5.895A2.084 2.084 0 0 0 30.729 66l-5.896 5.896L18.937 66A2.084 2.084 0 0 0 16 68.938l5.896 5.895L16 80.73a2.084 2.084 0 0 0 0 2.938Zm58.833-15.084a2.083 2.083 0 1 0 0-4.166 2.083 2.083 0 0 0 0 4.166Zm0 12.5a2.083 2.083 0 1 0 0 4.167 2.083 2.083 0 0 0 0-4.167Z"/></svg><svg viewBox="0 0 70 71" id="mood-false" xmlns="http://www.w3.org/2000/svg"><mask id="bqa" maskUnits="userSpaceOnUse" x="0" y="0" width="70" height="71"><path d="M0 .5h70v70H0z"/></mask><g mask="url(#bqa)"><path d="M44.934 32.022c1.062 0 1.961-.371 2.7-1.114.739-.743 1.108-1.645 1.108-2.706 0-1.062-.372-1.962-1.115-2.7-.743-.738-1.645-1.108-2.706-1.108s-1.961.372-2.7 1.115c-.738.743-1.107 1.645-1.107 2.706s.371 1.961 1.114 2.7c.743.738 1.645 1.107 2.706 1.107Zm-19.855 0c1.06 0 1.96-.371 2.7-1.114.738-.743 1.107-1.645 1.107-2.706 0-1.062-.371-1.962-1.114-2.7-.743-.738-1.645-1.108-2.707-1.108-1.061 0-1.96.372-2.7 1.115-.738.743-1.107 1.645-1.107 2.706s.371 1.961 1.114 2.7c.743.738 1.645 1.107 2.706 1.107Zm9.92 7.853c-3.043 0-5.825.852-8.345 2.555-2.52 1.703-4.38 3.955-5.576 6.756h27.843c-1.196-2.8-3.055-5.053-5.575-6.756-2.52-1.703-5.302-2.555-8.346-2.555Zm.006 23.333c-3.833 0-7.435-.727-10.807-2.181-3.372-1.455-6.305-3.429-8.8-5.922-2.494-2.493-4.469-5.425-5.924-8.796-1.455-3.37-2.183-6.972-2.183-10.804s.728-7.435 2.182-10.807c1.455-3.372 3.428-6.305 5.922-8.8 2.493-2.494 5.425-4.469 8.796-5.924 3.37-1.455 6.972-2.182 10.804-2.182s7.434.727 10.806 2.181c3.372 1.455 6.306 3.429 8.8 5.922 2.495 2.493 4.47 5.425 5.924 8.796 1.456 3.37 2.183 6.972 2.183 10.804s-.727 7.435-2.182 10.807c-1.454 3.372-3.428 6.305-5.921 8.8-2.493 2.494-5.425 4.469-8.796 5.924-3.37 1.455-6.972 2.182-10.804 2.182ZM35 58.833c6.514 0 12.031-2.26 16.552-6.78 4.52-4.522 6.781-10.04 6.781-16.553 0-6.514-2.26-12.031-6.781-16.552-4.521-4.52-10.038-6.781-16.552-6.781-6.514 0-12.032 2.26-16.552 6.78-4.521 4.522-6.782 10.04-6.782 16.553 0 6.514 2.26 12.031 6.782 16.552 4.52 4.52 10.038 6.781 16.552 6.781Z"/></g></svg><svg viewBox="0 0 70 70" id="mood-true" xmlns="http://www.w3.org/2000/svg"><mask id="bra" maskUnits="userSpaceOnUse" x="0" y="0" width="70" height="70"><path d="M0 0h70v70H0z"/></mask><g mask="url(#bra)"><path d="M44.934 31.522c1.062 0 1.962-.371 2.7-1.114.739-.743 1.108-1.645 1.108-2.706 0-1.062-.371-1.962-1.114-2.7-.743-.738-1.645-1.108-2.707-1.108-1.061 0-1.96.372-2.7 1.115-.738.742-1.107 1.645-1.107 2.706s.371 1.961 1.114 2.7c.743.738 1.645 1.107 2.706 1.107Zm-19.855 0c1.061 0 1.96-.371 2.7-1.114.738-.743 1.107-1.645 1.107-2.706 0-1.062-.371-1.962-1.114-2.7-.743-.738-1.645-1.108-2.706-1.108-1.062 0-1.962.372-2.7 1.115-.739.742-1.108 1.645-1.108 2.706s.372 1.961 1.114 2.7c.743.738 1.645 1.107 2.707 1.107ZM35 50.144c3.044 0 5.826-.852 8.346-2.555 2.52-1.703 4.379-3.955 5.575-6.756H21.08c1.196 2.801 3.055 5.053 5.575 6.756 2.52 1.703 5.302 2.555 8.346 2.555Zm.005 12.564c-3.832 0-7.435-.727-10.807-2.181-3.372-1.455-6.305-3.429-8.8-5.922-2.494-2.493-4.469-5.425-5.924-8.796-1.455-3.37-2.182-6.972-2.182-10.804 0-3.833.727-7.435 2.181-10.807 1.455-3.372 3.429-6.305 5.922-8.8 2.493-2.494 5.425-4.469 8.796-5.924 3.37-1.455 6.972-2.182 10.804-2.182s7.435.727 10.807 2.181c3.372 1.455 6.305 3.429 8.8 5.922 2.494 2.493 4.469 5.425 5.924 8.796 1.455 3.37 2.182 6.972 2.182 10.804s-.727 7.434-2.181 10.807c-1.455 3.372-3.429 6.305-5.922 8.8-2.493 2.494-5.425 4.469-8.796 5.924-3.37 1.455-6.972 2.182-10.804 2.182ZM35 58.333c6.514 0 12.031-2.26 16.552-6.781 4.52-4.52 6.781-10.038 6.781-16.552 0-6.514-2.26-12.031-6.78-16.552-4.522-4.521-10.04-6.781-16.553-6.781-6.514 0-12.031 2.26-16.552 6.78-4.52 4.522-6.781 10.039-6.781 16.553 0 6.514 2.26 12.031 6.78 16.552 4.522 4.52 10.04 6.781 16.553 6.781Z"/></g></svg><svg viewBox="0 0 20 20" id="notifications" xmlns="http://www.w3.org/2000/svg"><path d="M9.63 3.106a.702.702 0 0 1-.701-.702v-.702a.702.702 0 1 1 1.404 0v.702a.702.702 0 0 1-.702.702Z"/><path d="M15.757 9.231a.702.702 0 0 1-.702-.702c0-2.852-2.316-5.283-5.163-5.418-2.85-.131-5.392 2.064-5.66 4.9a5.487 5.487 0 0 0-.025.518.702.702 0 0 1-1.403 0c0-.219.01-.438.03-.65.338-3.572 3.538-6.339 7.124-6.17 3.585.17 6.501 3.23 6.501 6.82a.702.702 0 0 1-.702.702Zm1.316 4.788a.702.702 0 0 1-.483-.192 4.935 4.935 0 0 1-1.535-3.568.702.702 0 1 1 1.404 0 3.524 3.524 0 0 0 1.096 2.548.702.702 0 0 1-.482 1.212Zm-14.884 0a.703.703 0 0 1-.482-1.212 3.522 3.522 0 0 0 1.097-2.548.702.702 0 1 1 1.403 0c0 1.344-.56 2.645-1.535 3.568a.702.702 0 0 1-.483.192Zm7.442 5.23c-1.902 0-3.51-1.607-3.51-3.509a.702.702 0 0 1 1.405 0c0 1.141.964 2.106 2.105 2.106 1.142 0 2.106-.965 2.106-2.106a.702.702 0 0 1 1.404 0c0 1.902-1.607 3.51-3.51 3.51Z"/><path d="M3.154 16.442a2.086 2.086 0 0 1-1.939-1.332 2.087 2.087 0 0 1 .491-2.302.702.702 0 0 1 .966 1.02c-.308.29-.195.658-.153.763.042.104.212.448.635.448a.702.702 0 0 1 0 1.403Zm12.954 0a.702.702 0 0 1 0-1.403c.424 0 .593-.345.636-.45.041-.106.154-.47-.154-.762a.702.702 0 0 1 .966-1.02c.62.588.814 1.492.492 2.3a2.087 2.087 0 0 1-1.94 1.335ZM3.505 10.961a.702.702 0 0 1-.702-.702V8.53a.702.702 0 1 1 1.404 0v1.729a.702.702 0 0 1-.702.702Zm12.252 0a.702.702 0 0 1-.702-.702V8.53a.702.702 0 1 1 1.404 0v1.729a.702.702 0 0 1-.702.702Z"/><path d="M16.108 16.442H3.154a.702.702 0 1 1 0-1.404h12.954a.701.701 0 1 1 0 1.404Z"/></svg><svg viewBox="0 0 20 20" id="pen" xmlns="http://www.w3.org/2000/svg"><path d="m14.992 1.697-9.144 9.144a3.724 3.724 0 0 0-1.098 2.651V14.5a.75.75 0 0 0 .75.75h1.007a3.724 3.724 0 0 0 2.652-1.098l9.143-9.143a2.344 2.344 0 0 0 0-3.31 2.395 2.395 0 0 0-3.31 0Zm2.25 2.25-9.144 9.144c-.423.42-.994.657-1.59.659H6.25v-.258a2.265 2.265 0 0 1 .659-1.59l9.143-9.144a.861.861 0 0 1 1.19 0 .842.842 0 0 1 0 1.19Z"/><path d="M18.25 7.734a.75.75 0 0 0-.75.75v3.766h-3a2.25 2.25 0 0 0-2.25 2.25v3h-7.5a2.25 2.25 0 0 1-2.25-2.25V4.75A2.25 2.25 0 0 1 4.75 2.5h6.781a.75.75 0 1 0 0-1.5H4.75A3.755 3.755 0 0 0 1 4.75v10.5A3.754 3.754 0 0 0 4.75 19h8.507a3.726 3.726 0 0 0 2.652-1.098l1.992-1.994A3.727 3.727 0 0 0 19 13.258V8.483a.75.75 0 0 0-.75-.75Zm-3.401 9.107c-.302.301-.683.51-1.099.6V14.5a.75.75 0 0 1 .75-.75h2.944a2.265 2.265 0 0 1-.6 1.098l-1.995 1.993Z"/></svg><svg viewBox="0 0 20 20" id="phone" xmlns="http://www.w3.org/2000/svg"><path d="M16.192 17.035c-1.62 0-3.226-.384-4.815-1.154a15.572 15.572 0 0 1-4.256-3.026 15.665 15.665 0 0 1-3.03-4.253c-.772-1.586-1.158-3.19-1.158-4.81 0-.25.083-.459.25-.625a.848.848 0 0 1 .625-.25h2.718a.86.86 0 0 1 .863.714l.478 2.452c.033.205.03.392-.01.56a.86.86 0 0 1-.264.439L5.676 8.955a14.82 14.82 0 0 0 2.354 3.029 15.388 15.388 0 0 0 3.095 2.359l1.862-1.894a1.15 1.15 0 0 1 .482-.29c.185-.057.375-.069.57-.036l2.313.472c.21.046.383.148.516.305.133.156.2.342.2.558v2.702a.85.85 0 0 1-.25.625.848.848 0 0 1-.626.25ZM5.077 7.772 6.564 6.35a.149.149 0 0 0 .052-.088.195.195 0 0 0-.004-.104L6.25 4.295a.172.172 0 0 0-.056-.096.162.162 0 0 0-.104-.032H4.308a.109.109 0 0 0-.113.112 10.658 10.658 0 0 0 .882 3.493Zm7.218 7.154a8.575 8.575 0 0 0 1.728.59c.6.137 1.16.218 1.682.243.032 0 .059-.01.08-.032a.109.109 0 0 0 .032-.08v-1.753a.161.161 0 0 0-.032-.104.172.172 0 0 0-.096-.056l-1.75-.356a.132.132 0 0 0-.084-.004.204.204 0 0 0-.076.052l-1.484 1.5Z"/></svg><svg viewBox="0 0 20 20" id="play" xmlns="http://www.w3.org/2000/svg"><path d="M7.75 13.938 14.05 10l-6.3-3.938v7.875ZM2.8 17c-.495 0-.919-.171-1.271-.514A1.662 1.662 0 0 1 1 15.25V4.75c0-.481.176-.893.529-1.236A1.758 1.758 0 0 1 2.8 3h14.4c.495 0 .919.171 1.271.514.353.343.529.755.529 1.236v10.5c0 .481-.176.893-.529 1.236A1.759 1.759 0 0 1 17.2 17H2.8Zm-.5-2c0 .414.336.75.75.75h13.9a.75.75 0 0 0 .75-.75V5a.75.75 0 0 0-.75-.75H3.05A.75.75 0 0 0 2.3 5v10Z"/></svg><svg viewBox="0 0 20 20" id="plus" xmlns="http://www.w3.org/2000/svg"><path fill-rule="evenodd" clip-rule="evenodd" d="M19.032 9.316a.684.684 0 1 1 0 1.37h-8.348v8.347a.684.684 0 1 1-1.368 0v-8.348H.968a.684.684 0 0 1 0-1.369h8.348V.97a.684.684 0 1 1 1.368 0v8.347h8.348Z"/></svg><svg viewBox="0 0 20 20" id="print" xmlns="http://www.w3.org/2000/svg"><path d="M15.344 14.5h1.02a2.11 2.11 0 0 0 2.109-2.11V8.173a2.11 2.11 0 0 0-2.11-2.11H3.637a2.11 2.11 0 0 0-2.11 2.11v4.219a2.11 2.11 0 0 0 2.11 2.109h1.02m11.531-2.813H3.813"/><path d="M5.71 18.473h8.58c.582 0 1.054-.473 1.054-1.055v-5.73H4.656v5.73c0 .582.472 1.055 1.055 1.055Zm5.696-4.535H8.594m2.812 2.25H8.594M5.5 8.313H3.812m2.954-6.786h6.468a2.11 2.11 0 0 1 2.11 2.11v2.425H4.656V3.638a2.11 2.11 0 0 1 2.11-2.11Z"/></svg><svg viewBox="0 0 20 20" id="radio-active" xmlns="http://www.w3.org/2000/svg"><path d="M10 13.75c1.04 0 1.926-.365 2.655-1.095.73-.73 1.095-1.614 1.095-2.655 0-1.04-.365-1.926-1.095-2.655-.73-.73-1.614-1.095-2.655-1.095-1.04 0-1.926.365-2.656 1.095-.73.73-1.094 1.614-1.094 2.655 0 1.04.365 1.926 1.094 2.655.73.73 1.615 1.095 2.656 1.095Zm0 4.167a7.711 7.711 0 0 1-3.087-.624A7.997 7.997 0 0 1 4.4 15.602a7.994 7.994 0 0 1-1.693-2.514 7.705 7.705 0 0 1-.624-3.087 7.7 7.7 0 0 1 .624-3.087A7.997 7.997 0 0 1 4.398 4.4a7.993 7.993 0 0 1 2.514-1.693 7.704 7.704 0 0 1 3.087-.624c1.094 0 2.124.208 3.087.624A7.99 7.99 0 0 1 15.6 4.399a7.992 7.992 0 0 1 1.693 2.513 7.7 7.7 0 0 1 .623 3.087 7.71 7.71 0 0 1-.623 3.087 7.995 7.995 0 0 1-1.692 2.514 7.992 7.992 0 0 1-2.513 1.693 7.705 7.705 0 0 1-3.087.624Zm0-1.25c1.861 0 3.437-.646 4.73-1.938 1.29-1.291 1.937-2.868 1.937-4.729 0-1.861-.646-3.437-1.938-4.73-1.292-1.29-2.868-1.937-4.73-1.937-1.86 0-3.437.646-4.728 1.938C3.979 6.563 3.333 8.139 3.333 10c0 1.861.646 3.438 1.938 4.73 1.291 1.29 2.868 1.937 4.729 1.937Z"/></svg><svg viewBox="0 0 20 20" id="radio-default" xmlns="http://www.w3.org/2000/svg"><path d="M10.001 17.917a7.711 7.711 0 0 1-3.087-.624A7.997 7.997 0 0 1 4.4 15.602a7.994 7.994 0 0 1-1.693-2.514 7.705 7.705 0 0 1-.624-3.087 7.7 7.7 0 0 1 .624-3.087A7.997 7.997 0 0 1 4.398 4.4a7.993 7.993 0 0 1 2.514-1.693 7.704 7.704 0 0 1 3.087-.624c1.094 0 2.124.208 3.087.624A7.99 7.99 0 0 1 15.6 4.399a7.992 7.992 0 0 1 1.693 2.513 7.7 7.7 0 0 1 .623 3.087 7.71 7.71 0 0 1-.623 3.087 7.995 7.995 0 0 1-1.692 2.514 7.992 7.992 0 0 1-2.513 1.693 7.705 7.705 0 0 1-3.087.624ZM10 16.667c1.861 0 3.437-.646 4.73-1.938 1.29-1.291 1.937-2.868 1.937-4.729 0-1.861-.646-3.437-1.938-4.73-1.292-1.29-2.868-1.937-4.73-1.937-1.86 0-3.437.646-4.728 1.938C3.979 6.563 3.333 8.139 3.333 10c0 1.861.646 3.438 1.938 4.73 1.291 1.29 2.868 1.937 4.729 1.937Z"/></svg><svg viewBox="0 0 20 20" id="refresh" xmlns="http://www.w3.org/2000/svg"><path d="M3.571 14.782a4.558 4.558 0 0 1-2.828-3.918 4.56 4.56 0 0 1 4.245-4.856.325.325 0 0 0 .3-.182 5.526 5.526 0 0 1 10.726 1.3.35.35 0 0 0 .247.287 3.9 3.9 0 0 1 .882 7.269"/><path d="M13.5 13.611a3.573 3.573 0 0 0-7.072.715 3.571 3.571 0 0 0 5.883 2.723"/><path d="m14.286 11.468-.786 2.143-2.072-.357"/></svg><svg viewBox="0 0 20 20" id="remove" xmlns="http://www.w3.org/2000/svg"><path d="M1.428 5h17.143M3.572 5h12.857v12.857A1.429 1.429 0 0 1 15 19.286H5a1.429 1.429 0 0 1-1.428-1.429V5Zm2.856 0v-.714a3.571 3.571 0 0 1 7.143 0V5M7.857 9.288v5.716m4.286-5.716v5.716"/></svg><svg viewBox="0 0 20 20" id="rotate" xmlns="http://www.w3.org/2000/svg"><mask id="cca" maskUnits="userSpaceOnUse" x="0" y="0" width="20" height="20"><path d="M0 0h20v20H0z"/></mask><g mask="url(#cca)"><path d="M10.745 17.917a6.995 6.995 0 0 1-3.696-1.055l.904-.904c.43.237.882.414 1.354.532.473.118.952.177 1.438.177 1.625 0 3.003-.566 4.135-1.698 1.132-1.132 1.698-2.51 1.698-4.136 0-1.625-.566-3.003-1.698-4.135C13.748 5.566 12.37 5 10.745 5h-.606l1.484 1.484-.878.936L7.7 4.375l3.045-3.045.878.936L10.14 3.75h.606c1.968 0 3.64.689 5.017 2.066 1.378 1.377 2.066 3.049 2.066 5.016 0 .984-.186 1.905-.558 2.764a7.172 7.172 0 0 1-1.515 2.247 7.174 7.174 0 0 1-2.247 1.516 6.879 6.879 0 0 1-2.763.558Zm-5-2.677-4.407-4.407 4.407-4.407 4.407 4.407-4.407 4.407Zm0-1.782 2.625-2.625-2.625-2.625-2.625 2.625 2.625 2.625Z"/></g></svg><svg viewBox="0 0 20 20" id="save" xmlns="http://www.w3.org/2000/svg"><path d="M14.571 17.429 10 12.857 5.428 17.43V3.714a1.143 1.143 0 0 1 1.143-1.143h6.857a1.143 1.143 0 0 1 1.143 1.143V17.43Z"/></svg><svg viewBox="0 0 16 16" id="sort" xmlns="http://www.w3.org/2000/svg"><path d="M5.064 6.436 8 3.5l2.936 2.936H5.064ZM8 12.372 5.064 9.436h5.872L8 12.372Z"/></svg><svg viewBox="0 0 20 20" id="star" xmlns="http://www.w3.org/2000/svg"><path fill-rule="evenodd" clip-rule="evenodd" d="M10.385 2.407 8.178 6.88c-.164.332-.48.562-.847.615l-4.936.718 3.571 3.48c.265.259.386.631.324.996l-.843 4.917 4.646-2.444a.62.62 0 0 1 .607.014l4.623 2.43-.843-4.917a1.125 1.125 0 0 1 .324-.996l3.571-3.48-4.936-.718a1.125 1.125 0 0 1-.847-.615l-2.207-4.473Zm-1.009-.78a1.125 1.125 0 0 1 2.018 0l2.29 4.64 5.121.745a1.125 1.125 0 0 1 .624 1.92l-3.706 3.61.875 5.103a1.125 1.125 0 0 1-1.632 1.185l-4.582-2.408-4.58 2.408a1.125 1.125 0 0 1-1.632-1.186l.875-5.101L1.34 8.93c-.668-.65-.3-1.785.623-1.919l5.122-.744 2.29-4.64Zm.384 14.09Z"/></svg><svg viewBox="0 0 20 20" id="statistics" xmlns="http://www.w3.org/2000/svg"><path d="M18.25 17.5h-15a.75.75 0 0 1-.75-.75v-15a.75.75 0 0 0-1.5 0v15A2.25 2.25 0 0 0 3.25 19h15a.75.75 0 1 0 0-1.5Z"/><path d="M12.25 16a.75.75 0 0 0 .75-.75V10a.75.75 0 1 0-1.5 0v5.25a.75.75 0 0 0 .75.75Zm-6 0a.75.75 0 0 0 .75-.75V10a.75.75 0 1 0-1.5 0v5.25a.75.75 0 0 0 .75.75Zm9 0a.75.75 0 0 0 .75-.75v-9a.75.75 0 1 0-1.5 0v9a.75.75 0 0 0 .75.75Zm-6 0a.75.75 0 0 0 .75-.75V3.7a.75.75 0 0 0-1.5 0v11.55a.75.75 0 0 0 .75.75Z"/></svg><svg viewBox="0 0 20 20" id="task" xmlns="http://www.w3.org/2000/svg"><path d="M6.875 8.035a1.384 1.384 0 0 1-.558-.115 1.446 1.446 0 0 1-.473-.33L5.21 7a.665.665 0 0 1-.174-.704.66.66 0 0 1 .319-.373.604.604 0 0 1 .688.102l.66.615a.245.245 0 0 0 .173.09.204.204 0 0 0 .148-.064L8.528 5.17a.61.61 0 0 1 .872.034.67.67 0 0 1 .172.458.668.668 0 0 1-.182.453L7.895 7.6c-.134.14-.293.25-.468.324a1.383 1.383 0 0 1-.551.111ZM15 6.512a.668.668 0 0 0-.183-.462.612.612 0 0 0-.442-.19h-3.333a.612.612 0 0 0-.442.19.668.668 0 0 0-.183.462c0 .173.066.34.183.462a.612.612 0 0 0 .442.19h3.333a.612.612 0 0 0 .442-.19.668.668 0 0 0 .183-.462Zm-7.105 4.57L9.39 9.596a.668.668 0 0 0 .182-.453.67.67 0 0 0-.172-.458.61.61 0 0 0-.872-.034l-1.505 1.497a.204.204 0 0 1-.148.064.204.204 0 0 1-.147-.064l-.66-.69a.624.624 0 0 0-.442-.191.602.602 0 0 0-.442.191A.668.668 0 0 0 5 9.92c0 .173.066.34.184.462l.66.69c.272.283.64.443 1.024.445.384.002.753-.154 1.027-.435ZM15 9.994a.668.668 0 0 0-.183-.461.612.612 0 0 0-.442-.192h-3.333a.612.612 0 0 0-.442.192.668.668 0 0 0-.183.461c0 .173.066.34.183.462a.612.612 0 0 0 .442.191h3.333a.612.612 0 0 0 .442-.191.668.668 0 0 0 .183-.462Zm-7.105 4.57 1.495-1.486a.67.67 0 0 0 .01-.912.61.61 0 0 0-.872-.034L7.023 13.63a.204.204 0 0 1-.147.064.236.236 0 0 1-.174-.09l-.66-.615a.61.61 0 0 0-.883.052.672.672 0 0 0 .05.923l.634.59c.272.284.64.444 1.024.446.385.002.754-.155 1.028-.435ZM15 13.477a.668.668 0 0 0-.183-.461.612.612 0 0 0-.442-.192h-3.333a.612.612 0 0 0-.442.192.668.668 0 0 0-.183.461c0 .173.066.34.183.462a.612.612 0 0 0 .442.191h3.333a.612.612 0 0 0 .442-.19.668.668 0 0 0 .183-.463Z"/><rect x="1.75" y="1.75" width="16.5" height="16.5" rx="2.25"/></svg><svg viewBox="0 0 20 20" id="telegram" xmlns="http://www.w3.org/2000/svg"><path d="M15.4 6.4 3.7 10.45l4.05 1.35m7.65-5.4-7.65 5.4m7.65-5.4-3.6 9.45-4.05-4.05"/><path d="M10 19a9 9 0 0 0 9-9 9 9 0 0 0-9-9 9 9 0 0 0-9 9 9 9 0 0 0 9 9Z"/></svg><svg viewBox="0 0 20 20" id="test" xmlns="http://www.w3.org/2000/svg"><path d="m9.772 9.789-1.396 1.353a1.231 1.231 0 0 1-.873.359c-.32 0-.642-.122-.887-.367l-.51-.49a.75.75 0 1 1 1.039-1.082l.355.341 1.228-1.19a.75.75 0 0 1 1.044 1.076ZM13 13.75h-2.25a.75.75 0 1 0 0 1.5H13a.75.75 0 1 0 0-1.5Zm0-9h-2.25a.75.75 0 1 0 0 1.5H13a.75.75 0 1 0 0-1.5Zm0 4.5h-1.5a.75.75 0 1 0 0 1.5H13a.75.75 0 1 0 0-1.5Zm-5.625 4.125a1.124 1.124 0 1 0 0 2.249 1.124 1.124 0 0 0 0-2.249Zm0-6.75a1.125 1.125 0 1 0 0-2.25 1.125 1.125 0 0 0 0 2.25ZM17.5 4.75v10.5A3.754 3.754 0 0 1 13.75 19h-7.5a3.754 3.754 0 0 1-3.75-3.75V4.75A3.754 3.754 0 0 1 6.25 1h7.5a3.754 3.754 0 0 1 3.75 3.75Zm-1.5 0c0-1.24-1.01-2.25-2.25-2.25h-7.5C5.01 2.5 4 3.51 4 4.75v10.5c0 1.24 1.01 2.25 2.25 2.25h7.5c1.24 0 2.25-1.01 2.25-2.25V4.75Z"/></svg><svg viewBox="0 0 20 20" id="time" xmlns="http://www.w3.org/2000/svg"><path d="M10 1a9 9 0 1 0 9 9 9.01 9.01 0 0 0-9-9Zm0 16.5a7.5 7.5 0 1 1 7.5-7.5 7.509 7.509 0 0 1-7.5 7.5Z"/><path d="M10 5.5a.75.75 0 0 0-.75.75v3.244l-2.528 1.584a.752.752 0 0 0 .796 1.275l2.88-1.8a.75.75 0 0 0 .352-.644V6.25A.75.75 0 0 0 10 5.5Z"/></svg><svg viewBox="0 0 70 70" id="upload" xmlns="http://www.w3.org/2000/svg"><path d="M43.75 50.284h10.39c7.52 0 13.672-3.994 13.672-11.43s-7.246-11.138-13.124-11.43C53.471 15.795 44.98 8.721 35 8.721c-9.434 0-15.51 6.26-17.5 12.47-8.203.778-15.313 5.998-15.313 14.546 0 8.548 7.383 14.547 16.407 14.547h7.656"/><path d="M43.75 34.971 35 26.221l-8.75 8.75M35 61.28V28.41"/></svg><svg viewBox="0 0 20 20" id="wallet" xmlns="http://www.w3.org/2000/svg"><path d="M18.213 8.965h-.608V7a2.106 2.106 0 0 0-2.106-2.106h-.609V2.249a.749.749 0 0 0-.749-.749h-8.82A4.826 4.826 0 0 0 .5 6.32V16.5a2.106 2.106 0 0 0 2.106 2.106h12.893a2.106 2.106 0 0 0 2.106-2.106v-1.965h.608a1.426 1.426 0 0 0 1.427-1.427v-2.71a1.426 1.426 0 0 0-1.427-1.432ZM16.106 16.5a.614.614 0 0 1-.373.56.605.605 0 0 1-.232.046H2.606A.607.607 0 0 1 2 16.5V6.32a3.326 3.326 0 0 1 3.322-3.323h8.072v1.895H5.32a.749.749 0 1 0 0 1.498H15.5a.609.609 0 0 1 .607.608v1.966h-2.643a1.427 1.427 0 0 0-1.427 1.427v2.71a1.426 1.426 0 0 0 1.427 1.427h2.644v1.97Zm2.036-3.463h-4.608v-2.573h4.608v2.573Z"/></svg><svg viewBox="0 0 20 20" id="warn" xmlns="http://www.w3.org/2000/svg"><path fill-rule="evenodd" clip-rule="evenodd" d="M16 2.5H4A1.5 1.5 0 0 0 2.5 4v12A1.5 1.5 0 0 0 4 17.5h12a1.5 1.5 0 0 0 1.5-1.5V4A1.5 1.5 0 0 0 16 2.5ZM4 1a3 3 0 0 0-3 3v12a3 3 0 0 0 3 3h12a3 3 0 0 0 3-3V4a3 3 0 0 0-3-3H4Z"/><path d="M10 11.646a.75.75 0 0 0 .75-.75v-5.25a.75.75 0 1 0-1.5 0v5.25a.75.75 0 0 0 .75.75Zm.575 2.841a.781.781 0 0 1-.575.232.782.782 0 0 1-.575-.232.781.781 0 0 1-.233-.576.78.78 0 0 1 .233-.575.782.782 0 0 1 .575-.232.78.78 0 0 1 .575.232.781.781 0 0 1 .233.575c0 .23-.078.421-.232.576Z"/></svg><svg viewBox="0 0 20 20" id="webcam" xmlns="http://www.w3.org/2000/svg"><path fill-rule="evenodd" clip-rule="evenodd" d="M10 2.417a5.917 5.917 0 1 0 0 11.833 5.917 5.917 0 0 0 0-11.833Zm.75 13.296a7.418 7.418 0 1 0-1.5 0v1.87H5.833a.75.75 0 0 0 0 1.5h8.333a.75.75 0 1 0 0-1.5H10.75v-1.87ZM10 6.584a1.75 1.75 0 1 0 0 3.5 1.75 1.75 0 0 0 0-3.5Zm-3.25 1.75a3.25 3.25 0 1 1 6.5 0 3.25 3.25 0 0 1-6.5 0Z"/></svg></svg>